<?xml version="1.0" standalone="no"?>
<!DOCTYPE svg PUBLIC "-//W3C//DTD SVG 1.1//EN" "http://www.w3.org/Graphics/SVG/1.1/DTD/svg11.dtd" >
<!--
2014-12-9: Created with FontForge (http://fontforge.org)
-->
<svg xmlns="http://www.w3.org/2000/svg" xmlns:xlink="http://www.w3.org/1999/xlink" version="1.1">
<metadata>
Created by FontForge 20141207 at Tue Dec  9 10:35:41 2014
 By Sunna
Copyright (c) 2014, Sunna
</metadata>
<defs>
<font id="Menicon" horiz-adv-x="512" >
  <font-face 
    font-family="Menicon"
    font-weight="400"
    font-stretch="normal"
    units-per-em="512"
    panose-1="2 0 5 9 0 0 0 0 0 0"
    ascent="448"
    descent="-64"
    bbox="-96.7676 -164.135 515.494 498.688"
    underline-thickness="25.6"
    underline-position="-51.2"
    unicode-range="U+E600-E7E1"
  />
    <missing-glyph />
    <glyph glyph-name="uniE7C2" unicode="&#xe7c2;" 
d="M318.055 72.499c-5.83691 0 -11.7246 2.25293 -16.1797 6.70703c-8.95996 8.95996 -8.95996 23.4502 0 32.3584l80.3838 80.4355l-80.6904 80.6914c-8.95996 8.95996 -8.95996 23.4492 0 32.3584c8.9082 8.95996 23.4492 8.95996 32.3584 0l113.101 -113.05
l-112.794 -112.794c-4.4541 -4.4541 -10.3418 -6.70703 -16.1787 -6.70703zM372.224 169.113h-150.579c-12.6465 0 -22.8857 10.2402 -22.8857 22.8867s10.2393 22.8867 22.8857 22.8867h150.579c12.6465 0 22.8867 -10.2402 22.8867 -22.8867
s-10.2402 -22.8867 -22.8867 -22.8867zM435.303 126.976l62.7197 62.6689v-161.484c0 -49.4082 -40.1924 -89.6006 -89.5996 -89.6006h-304.794c-49.4082 0 -89.6006 40.1924 -89.6006 89.6006v327.68c0 49.4082 40.1924 89.6006 89.6006 89.6006h304.794
c49.4072 0 89.5996 -40.1924 89.5996 -89.6006v-161.434l-62.9756 62.9248c-1.84375 1.79199 -3.73828 3.48145 -5.73535 5.06934v93.4395c0 11.3154 -9.57422 20.8896 -20.8887 20.8896h-304.794c-11.3154 0 -20.8896 -9.57422 -20.8896 -20.8896v-327.68
c0 -11.3662 9.57422 -20.9414 20.8896 -20.9414h304.742c11.3154 0 20.8896 9.62598 20.8896 20.9414v93.4912c2.09961 1.68945 4.14746 3.43066 6.04199 5.32422z" />
    <glyph glyph-name="uniE6F7" unicode="&#xe6f7;" 
d="M353.178 228.301c7.83301 0 14.1826 -6.34863 14.1826 -14.1826c0 -7.83301 -6.34961 -14.1826 -14.1826 -14.1826c-7.78223 0 -14.1826 6.34961 -14.1826 14.1826c0 7.83398 6.34863 14.1826 14.1826 14.1826zM197.376 286.311v0v0v0zM197.376 286.311
c15.4111 4.50586 32.6143 6.86035 51.6611 6.91211c19.7119 0 38.2461 -2.56055 55.2959 -7.32227l-6.50293 -23.1934c-14.8477 4.14746 -31.1289 6.45117 -48.8447 6.45117c-16.998 0 -31.8975 -2.15039 -44.7998 -5.93945zM256 445.44
c139.93 0 253.44 -113.46 253.44 -253.44s-113.46 -253.44 -253.44 -253.44s-253.44 113.511 -253.44 253.44s113.511 253.44 253.44 253.44zM397.722 141.927c12.2881 0 22.3232 10.0352 22.2207 22.3232h-0.0507812v39.9863c0 12.2881 -10.0352 22.3232 -22.3232 22.3232
h-5.37598c-2.25293 8.90918 -5.47852 17.3057 -9.4209 25.1396l-7.9873 50.125c-1.89453 12.1855 -12.1855 17.0498 -22.835 10.9053l-18.7393 -10.8545c-22.4775 11.9297 -50.7393 18.5859 -84.3779 18.5859c-79.3604 0 -119.757 -36.8643 -131.584 -93.8496
c-1.0752 0.255859 -2.20117 0.40918 -3.27637 0.40918c-5.99121 -0.102539 -10.1377 -3.07129 -13.1592 -6.24609c-2.96973 -3.27637 -5.01758 -7.27051 -5.93848 -11.9297c-0.615234 -2.71387 -1.02441 -5.22266 -1.02441 -7.78223
c0 -2.56055 0.40918 -5.27344 1.53613 -7.83398c0.819336 -2.04785 2.15039 -3.89062 3.7373 -5.42676c-0.921875 -0.921875 -1.89453 -1.74121 -2.81543 -2.35547c-2.09961 -1.48438 -3.73828 -1.94531 -4.35254 -1.94531l1.0752 -21.043
c5.93945 0.306641 11.0078 2.71289 15.3086 5.68262c2.15039 1.53613 4.09668 3.1748 5.99121 5.06934c3.22559 -27.1367 15.8203 -48.5381 39.9355 -62.7207v-45.875c0 -0.358398 0.0507812 -0.716797 0.102539 -1.0752h69.2227
c0 0.358398 0.0507812 0.716797 0.0507812 1.0752v27.1357c7.88477 -0.614258 16.2812 -0.920898 25.1396 -0.920898c11.1611 0 21.708 0.255859 31.6924 0.819336v-26.9824c0 -0.358398 0.0507812 -0.716797 0.0507812 -1.0752h69.3252
c0 0.358398 0.0507812 0.716797 0.0507812 1.0752v40.499c18.0225 7.88477 31.0273 19.6602 38.7588 36.7617h9.0625z" />
    <glyph glyph-name="uniE6B4" unicode="&#xe6b4;" 
d="M-1.28027 203.264h514.561v-23.3984h-514.561v23.3984zM-1.28027 39.5771v23.3984h514.561v-23.3984h-514.561zM-1.28027 109.722v23.3984h514.561v-23.3984h-514.561zM256 344.423l82.6885 -82.6885h-165.377z" />
    <glyph glyph-name="uniE621" unicode="&#xe621;" 
d="M459.436 444.376c0 0.354492 -0.0498047 0.708984 -0.0498047 1.06445h49.5732v-1.06445c0 -276.706 -191.297 -505.816 -505.917 -505.816l0.708984 50.5361h0.405273c251.463 0 455.279 203.816 455.279 455.28z" />
    <glyph glyph-name="uniE6BF" unicode="&#xe6bf;" 
d="M456.616 377.873v0h52.7725v-33.8086h-52.8232c-7.47363 -29.1318 -33.9619 -50.6885 -65.4316 -50.6885s-57.9072 21.5566 -65.4316 50.6885h-323.143v33.8086h323.193c7.47363 29.1318 33.9619 50.6875 65.4316 50.6875c31.4707 0 57.9072 -21.5557 65.4316 -50.6875z
M120.815 259.567v0c31.5205 0 57.958 -21.5059 65.4824 -50.6885h323.091v-33.8086h-323.142c-7.47363 -29.1318 -33.9619 -50.6885 -65.4316 -50.6885c-31.4707 0 -57.9072 21.5566 -65.4316 50.6885h-52.8242v33.8086h52.8242
c7.47266 29.1318 33.9609 50.6885 65.4316 50.6885zM256 90.624c31.4697 0 57.958 -21.5566 65.4316 -50.6885h188.009v-33.8086h-188.009c-7.47363 -29.1318 -33.9619 -50.6875 -65.4316 -50.6875s-57.9072 21.5557 -65.4316 50.6875h-188.009v33.8086h188.009
c7.47363 29.1318 33.9619 50.6885 65.4316 50.6885z" />
    <glyph glyph-name="uniE7C3" unicode="&#xe7c3;" 
d="M332.236 305.101h-218.931c-10.0869 0 -18.2275 8.19238 -18.2275 18.2275s8.19238 18.2275 18.2275 18.2275h218.982c10.0859 0 18.2275 -8.19238 18.2275 -18.2275s-8.19238 -18.2275 -18.2793 -18.2275zM332.236 232.96h-218.931
c-10.0869 0 -18.2275 8.19238 -18.2275 18.2275s8.19238 18.2266 18.2275 18.2266h218.982c10.0859 0 18.2275 -8.19141 18.2275 -18.2266s-8.19238 -18.2275 -18.2793 -18.2275zM240.998 160.205h-127.692c-10.0869 0 -18.2275 8.19141 -18.2275 18.2266
c0 10.0869 8.19238 18.2275 18.2275 18.2275h127.744c10.0859 0 18.2266 -8.19238 18.2266 -18.2275c0 -10.0859 -8.19141 -18.2266 -18.2783 -18.2266zM477.696 127.591c17.459 -0.0517578 31.7441 -14.2852 31.7441 -31.7441v-114.228
c0 -17.459 -14.2852 -31.7441 -31.7441 -31.7441h-142.388c-17.459 0 -31.7441 14.2852 -31.7441 31.7441v114.228c0 17.459 14.2344 31.7441 31.6934 31.7441h-7.01465c0 43.1104 35.0723 78.2334 78.2334 78.2334c43.1104 0 78.2334 -35.0723 78.2334 -78.2334h-7.01367z
M406.477 169.318c-22.9883 0 -41.7275 -18.7393 -41.7275 -41.7793h83.5068c-0.0507812 23.04 -18.7393 41.7793 -41.7793 41.7793zM422.144 31.5908c6.80957 4.91504 11.3154 12.8506 11.3672 21.9131c0 14.8994 -12.084 26.9824 -26.9824 26.9824
c-14.8994 0 -26.9824 -12.083 -26.9824 -26.9824c0 -9.0625 4.50488 -16.998 11.3145 -21.9131v-34.6113h31.2832v34.6113zM263.168 48.4355v-54.7842h-189.184c-39.373 0 -71.4248 32.0508 -71.4248 71.4238v297.626c0 39.3721 32.0518 71.4238 71.4248 71.4238h297.574
c39.373 0 71.4238 -32.0518 71.4238 -71.4238v-125.235h-54.7324v125.235c0 9.0625 -7.62891 16.6904 -16.6406 16.6904h-297.625c-9.0625 0 -16.6914 -7.67969 -16.6914 -16.6904v-297.626c0 -9.01074 7.67969 -16.6396 16.6914 -16.6396h189.184z" />
    <glyph glyph-name="uniE74E" unicode="&#xe74e;" 
d="M256 445.44c139.98 0 253.44 -113.46 253.44 -253.44s-113.46 -253.44 -253.44 -253.44s-253.44 113.46 -253.44 253.44s113.46 253.44 253.44 253.44zM297.318 203.571c30.1572 15.1553 50.8926 46.3867 50.8418 82.4834c0 50.8926 -41.2676 92.2109 -92.2109 92.2109
c-50.8936 0 -92.2119 -41.2676 -92.2119 -92.2109c0 -36.0967 20.7363 -67.3281 50.9443 -82.4834v-31.1299l1.74121 -2.20117l31.0264 -31.0273l-32.7676 -32.7686v-1.68945l30.208 -30.208l-28.4668 -28.4668l40.3447 -40.3457l40.5508 40.5508v157.286zM256 338.893
c15.7188 0 28.4668 -12.749 28.4668 -28.4668c0 -15.7188 -12.748 -28.4678 -28.4668 -28.4678s-28.4668 12.749 -28.4668 28.4678c0 15.7178 12.748 28.4668 28.4668 28.4668z" />
    <glyph glyph-name="uniE60C" unicode="&#xe60c;" 
d="M8.18652 -61.2881v0v-0.152344v506.881h495.627c-274.526 -6.23535 -495.627 -230.732 -495.627 -506.729z" />
    <glyph glyph-name="uniE7A3" unicode="&#xe7a3;" 
d="M15.7695 256.717c0 0 188.724 3.99316 188.724 188.724c0 0 0.358398 -188.724 188.723 -188.724c0 0 -188.723 -0.511719 -188.723 -188.724c0 0.0517578 -0.716797 188.724 -188.724 188.724zM309.504 130.253c0 0 93.3379 1.99707 93.3379 93.3379
c0 0 0.205078 -93.3379 93.3379 -93.3379c0 0 -93.3379 -0.255859 -93.3379 -93.3379c0 -0.0507812 -0.307617 93.3379 -93.3379 93.3379zM184.269 -1.33105c0 0 60.1094 1.28027 60.1094 60.1084c0 0 0.102539 -60.1084 60.1084 -60.1084
c0 0 -60.1084 -0.15332 -60.1084 -60.1094c0 0 -0.255859 60.1094 -60.1094 60.1094z" />
    <glyph glyph-name="uniE63F" unicode="&#xe63f;" 
d="M256 445.44v0c139.98 0 253.491 -113.46 253.44 -253.44c0 -139.98 -113.46 -253.44 -253.44 -253.44s-253.44 113.46 -253.44 253.44s113.46 253.44 253.44 253.44zM256 415.027v0c-123.188 0 -223.027 -99.8398 -223.027 -223.027s99.7891 -223.027 223.027 -223.027
s223.078 99.8398 223.078 223.027s-99.8906 223.027 -223.078 223.027zM256 265.933v0l108.544 -116.173h-217.088z" />
    <glyph glyph-name="uniE606" unicode="&#xe606;" 
d="M52.6143 -60.376v-1.06445h-49.5732v1.06445c0 276.706 191.297 505.816 505.918 505.816l-0.660156 -50.5361h-0.405273c-251.463 0 -455.279 -203.816 -455.279 -455.28z" />
    <glyph glyph-name="uniE687" unicode="&#xe687;" 
d="M3.72559 395.36v0c-0.354492 0 -0.151367 0 -1.16602 -0.0507812v49.5732h1.16602c276.604 0 505.715 -191.246 505.715 -505.766l-50.5361 0.709961v0.405273c0 251.362 -203.816 455.128 -455.179 455.128z" />
    <glyph glyph-name="uniE6E6" unicode="&#xe6e6;" 
d="M256 445.44v0c139.949 0 253.44 -113.44 253.44 -253.44s-113.44 -253.44 -253.44 -253.44s-253.44 113.491 -253.44 253.44s113.491 253.44 253.44 253.44zM246.116 156.519l-0.0507812 -0.00195312v126.365l-97.6758 -19.4131v-111.21
c-10.8477 3.49707 -16.0176 5.2207 -22.5059 5.2207c-10.2891 0 -19.3125 -2.73633 -25.6484 -8.16016c-6.28516 -5.47461 -9.47852 -12.165 -9.47852 -20.1738c0 -7.50195 2.63574 -13.6348 7.95801 -18.2979c5.27148 -4.66309 12.4697 -6.99512 21.543 -6.99512
c7.6543 0 14.75 1.52148 21.2383 4.56152c6.4873 2.99121 11.1006 7.09668 13.7363 12.2666c2.68652 5.12012 4.00391 12.2158 4.00391 21.4414v95.3945l75.9814 12.2666v-82.5205c-10.8467 2.23047 -10.6953 3.54785 -13.2295 4.10547
c-2.58496 0.506836 -6.33594 0.811523 -9.63086 0.811523c-10.1885 0 -18.4502 -2.78711 -24.8877 -8.3125c-6.38672 -5.47461 -9.58008 -12.0635 -9.58008 -19.667c0 -7.50098 2.68652 -13.6348 8.11035 -18.3994s12.6729 -7.14648 21.7451 -7.14648
c7.95801 0 15.0039 1.57129 21.2891 4.66309c6.23438 3.0918 10.6953 7.0957 13.2803 11.8613c2.58496 4.76465 3.80176 11.8613 3.80176 21.3398zM317.434 104.462l118.914 92.5566l-118.914 91.2383v-183.795z" />
    <glyph glyph-name="uniE7A6" unicode="&#xe7a6;" 
d="M256 445.44c139.971 0 253.44 -113.47 253.44 -253.44s-113.47 -253.44 -253.44 -253.44s-253.44 113.47 -253.44 253.44s113.47 253.44 253.44 253.44zM212.866 345.867c-57.418 -16.0684 -101.8 -63.3525 -113.572 -122.445
c3.88184 -0.407227 7.73242 -0.597656 11.583 -0.597656c27.5732 0.0322266 53.9141 9.91113 73.8652 29.8271c19.9014 19.9219 29.7793 46.2471 29.7969 73.834c0 6.43945 -0.569336 12.9443 -1.67285 19.3818zM287.407 35.2607
c59.1064 11.8047 106.424 56.1846 122.491 113.604c-6.4873 1.10547 -12.9893 1.67285 -19.4443 1.67285c-27.5586 -0.0322266 -53.8828 -9.88086 -73.8174 -29.8281c-19.917 -19.9189 -29.7803 -46.2441 -29.7803 -73.8027
c-0.0322266 -3.87891 0.15625 -7.73047 0.550781 -11.6465zM414.601 172.477c0.755859 6.37793 1.2168 12.9121 1.21582 19.5107c0 88.292 -71.543 159.846 -159.802 159.846c-6.65918 0 -13.1318 -0.47168 -19.54 -1.24707
c1.38965 -8.03223 2.13086 -16.0811 2.13086 -24.0996c0.0175781 -33.333 -12.1377 -66.1592 -36.8516 -90.875c-24.6836 -24.6865 -57.4961 -36.8398 -90.7666 -36.8398h-0.111328c-4.82812 0 -9.6582 0.286133 -14.5029 0.758789
c-0.111328 -2.49121 -0.19043 -4.99023 -0.19043 -7.54297c0 -88.291 71.542 -159.819 159.832 -159.819c2.50977 0 5.02051 0.09375 7.5127 0.194336c-0.503906 4.8252 -0.756836 9.69043 -0.756836 14.5459c-0.03125 33.3047 12.1211 66.1299 36.8359 90.8516
c24.7197 24.71 57.5615 36.8945 90.8486 36.834c8.04883 0 16.1289 -0.731445 24.1455 -2.11719z" />
    <glyph glyph-name="uniE75D" unicode="&#xe75d;" 
d="M263.68 243.559l1.17773 -27.9043h-17.6641l1.12695 27.9043h15.3594zM265.882 189.952l1.22852 -29.9014h-22.1699l1.22949 29.9014h19.7119zM261.734 291.072l0.870117 -21.8623h-13.3115l0.921875 21.8623h11.5195zM256 445.44
c139.98 0 253.44 -113.46 253.44 -253.44s-113.46 -253.44 -253.44 -253.44s-253.44 113.46 -253.44 253.44s113.46 253.44 253.44 253.44zM268.697 48.6396h123.904l-65.6387 286.721h-66.9697l0.768555 -18.6367h-9.47168l0.767578 18.6367h-66.9697l-65.6387 -286.721
h123.904v26.1123h25.3438v-26.1123zM243.917 134.349h24.2178l0.5625 -14.0801v-19.8652h-25.3438v19.7627z" />
    <glyph glyph-name="uniE7A9" unicode="&#xe7a9;" 
d="M425.523 401.92h-121.242l-6.19531 -49.7666h71.4248l-18.3301 -174.131h0.410156l-25.6006 -239.463h-195.942l-25.5996 239.463h0.40918l-18.3291 174.131h167.68l9.26758 74.2402c1.33105 10.8545 10.5977 19.0469 21.5547 19.0469h140.493v-43.5205v0z" />
    <glyph glyph-name="uniE6AD" unicode="&#xe6ad;" 
d="M16.1982 70.6357v0c-18.1758 17.4082 -18.1758 45.6191 0 63.0273l205.466 197.018c9.52344 9.16504 22.2207 13.5166 34.7646 13.0049c12.2373 0.307617 24.5762 -4.04492 33.8945 -13.0049l205.517 -197.068c18.125 -17.4082 18.125 -45.5684 0 -62.9766
l-18.0732 -17.3057c-18.125 -17.4072 -47.5645 -17.4072 -65.6895 0l-156.058 149.709l-156.108 -149.709c-18.125 -17.4072 -47.5137 -17.4072 -65.6904 0z" />
    <glyph glyph-name="uniE747" unicode="&#xe747;" 
d="M158.976 332.8c13.3125 0 24.1152 -10.8027 24.1152 -24.1152v-233.318c0 -13.3115 -10.8027 -24.1152 -24.1152 -24.1152h-32.2041c-13.3125 0 -24.1152 10.8037 -24.1152 24.1152v233.318c0 13.3125 10.8027 24.1152 24.1152 24.1152h32.2041zM62.4131 292.557
c13.3115 0 24.1152 -10.8027 24.1152 -24.1152v-152.883c0 -13.3633 -10.8037 -24.167 -24.1152 -24.167h-12.083c-13.3125 0 -24.1152 10.8545 -24.1152 24.167v56.166h-13.5176c-5.58008 0 -10.1377 4.55664 -10.1377 10.1377v20.2754
c0 5.58105 4.55762 10.1377 10.1377 10.1377h13.5176v56.166c0 13.3125 10.8027 24.1152 24.1152 24.1152h12.083zM385.229 332.8c13.3125 0 24.1152 -10.8027 24.1152 -24.1152v-233.318c0 -13.3115 -10.8027 -24.1152 -24.1152 -24.1152h-32.2041
c-13.3125 0 -24.1152 10.8037 -24.1152 24.1152v233.318c0 13.3125 10.8027 24.1152 24.1152 24.1152h32.2041zM499.303 212.275c5.58008 0 10.1377 -4.55664 10.1377 -10.1377v-20.2754c0 -5.58105 -4.55762 -10.1377 -10.1377 -10.1377h-13.4658v-56.166
c0 -13.3633 -10.8037 -24.167 -24.1152 -24.167h-12.083c-13.3125 0 -24.1152 10.8545 -24.1152 24.167v152.883c0 13.3125 10.8027 24.1152 24.1152 24.1152h12.083c13.3115 0 24.1152 -10.8027 24.1152 -24.1152v-56.166h13.4658zM200.243 212.275h111.514v-40.5508
h-111.514v40.5508z" />
    <glyph glyph-name="uniE651" unicode="&#xe651;" 
d="M396.646 424.294v0l112.794 -97.5869l-112.846 -97.5361v68.0449h-54.9375l-173.106 -105.216l173.158 -105.165h54.9375v68.0449l112.794 -97.5869l-112.794 -97.5869v70.707h-82.5859l-226.099 126.361h-85.4023v70.4512h85.4023l226.099 126.413h82.5859v70.6553z" />
    <glyph glyph-name="uniE625" unicode="&#xe625;" 
d="M129.28 223.949h253.439v-63.8467h-253.439v63.8467zM446.566 445.44c35.0205 0 62.874 -27.8535 62.874 -62.874v-380.16c0 -34.9697 -27.9043 -63.8467 -62.874 -63.8467h-380.16c-34.9697 0 -63.8467 28.877 -63.8467 63.8467v380.16
c0 35.0205 28.877 62.874 63.8467 62.874h380.16v0zM458.752 40.3457v304.128c0 28.0068 -22.2715 50.2783 -50.2783 50.2783h-304.128c-28.0068 0 -51.0977 -22.2715 -51.0977 -50.2783v-304.128c0 -28.0068 23.0908 -51.0977 51.0977 -51.0977h304.128
c28.0068 0 50.2783 23.0908 50.2783 51.0977v0z" />
    <glyph glyph-name="uniE6DB" unicode="&#xe6db;" 
d="M256 445.44v0c139.949 0 253.44 -113.44 253.44 -253.44s-113.44 -253.44 -253.44 -253.44s-253.44 113.491 -253.44 253.44s113.491 253.44 253.44 253.44zM181.032 323.282v-0.000976562l-88.4502 -48.3564l51.0938 -23.9238l97.9795 55.5029zM143.523 242.181
v0.000976562l-48.9639 -48.9648l89.6162 -55.4023l49.6738 52.209zM244.443 39.4287h-0.0507812v142.181l-58.0371 -60.9785l-50.4346 31.1738v-49.7256zM375.725 102.079v0v49.3701l-50.0283 -30.8682l-58.4941 61.4844v-142.637zM327.927 137.866v0l89.6162 55.3516
l-48.8125 48.8633l-90.3262 -52.1582zM368.324 251v0.000976562l51.1445 23.9248l-88.502 48.3555l-60.5713 -16.7773z" />
    <glyph glyph-name="uniE78E" unicode="&#xe78e;" 
d="M2.55957 445.44h506.881v-506.881h-506.881v506.881zM387.942 214.989h-253.184v-64.6152l253.184 1.28027v63.335v0z" />
    <glyph glyph-name="uniE7A2" unicode="&#xe7a2;" 
d="M256 444.16c139.213 0 252.16 -112.845 252.16 -252.16s-112.845 -252.16 -252.16 -252.16s-252.16 112.896 -252.16 252.16s112.896 252.16 252.16 252.16zM426.24 104.857v0v174.285c0 8.14062 -7.06543 14.7451 -15.7695 14.7451h-308.941
c-8.7041 0 -15.7695 -6.60449 -15.7695 -14.7451v-174.285c0 -8.14062 7.06543 -14.7451 15.7695 -14.7451h308.941c8.7041 0 15.7695 6.60449 15.7695 14.7451zM109.107 270.438h293.734v-18.8418h-293.734v18.8418zM109.107 113.562v75.7246h293.734v-75.7246h-293.734z
M192.563 165.018v-13.0049h63.4873v13.0049h-63.4873zM134.502 165.018v0v-13.0049h48.6914v13.0049h-48.6914zM134.502 145.101v-13.0049h130.816v13.0049h-130.816z" />
    <glyph glyph-name="uniE7C8" unicode="&#xe7c8;" 
d="M509.44 192l-102.964 -84.9922v55.4502h-120.935v-120.935h55.4502l-84.9922 -102.964l-84.9922 102.964h55.4502v120.935h-120.935v-55.4502l-102.964 84.9922l102.964 84.9922v-55.4502h120.935v120.935h-55.4502l84.9922 102.964l84.9922 -102.964h-55.4502v-120.935
h120.935v55.4502z" />
    <glyph glyph-name="uniE79D" unicode="&#xe79d;" 
d="M509.44 155.802h-506.881v72.3965h506.881v-72.3965z" />
    <glyph glyph-name="uniE743" unicode="&#xe743;" 
d="M276.992 208.998v-43.7754h43.7246v-41.8818h-43.7246v-43.7764h-41.8818v43.7764h-43.7764v41.8818h43.7764v43.7754h41.8818zM256 445.44c139.98 0 253.44 -113.46 253.44 -253.44s-113.46 -253.44 -253.44 -253.44s-253.44 113.46 -253.44 253.44
s113.46 253.44 253.44 253.44zM178.842 346.727v-50.6885h154.316v50.6885c0 10.5986 -8.5498 19.1484 -19.0977 19.1484h-116.07c-10.5986 0 -19.1484 -8.5498 -19.1484 -19.1484zM351.334 37.2734v0v143.565c0 11.417 -3.94238 29.1328 -8.85742 39.4238l-11.8271 24.7803
c-1.99707 4.30078 -7.78223 17.459 -13.8242 31.2832h-121.6c-6.04199 -13.875 -11.8271 -26.9824 -13.8242 -31.2832l-11.8271 -24.7803c-4.91504 -10.291 -8.9082 -28.0068 -8.9082 -39.4238v-143.565c0 -10.5986 8.60156 -19.1484 19.1484 -19.1484h152.371
c10.5986 0 19.1484 8.5498 19.1484 19.1484z" />
    <glyph glyph-name="uniE78B" unicode="&#xe78b;" 
d="M501.345 279.077l-271.664 -271.663c-2.76465 -2.76465 -5.93945 -4.76172 -9.36914 -6.09277c-3.1748 -1.28027 -6.55371 -1.94531 -9.93359 -1.94531c-7.11621 -0.0517578 -14.2334 2.61133 -19.6602 8.03809l-58.4697 58.4697
c-0.972656 0.972656 -1.38281 2.20117 -2.15039 3.27637l-119.908 119.858c-10.0869 10.0859 -10.1885 26.418 -0.205078 36.4023l54.8857 54.8857c9.98438 9.98438 26.3164 9.88184 36.4033 -0.205078l103.063 -103.063l199.523 199.523
c10.752 10.752 28.2109 10.752 38.9629 0l58.4697 -58.4707c10.8535 -10.8018 10.8535 -28.2617 0.0517578 -39.0137v0z" />
    <glyph glyph-name="uniE665" unicode="&#xe665;" 
d="M256 445.44c139.98 0 253.44 -113.511 253.44 -253.44s-113.46 -253.44 -253.44 -253.44s-253.44 113.46 -253.44 253.44s113.46 253.44 253.44 253.44zM256 408.679v0c-119.501 0 -216.679 -97.2295 -216.679 -216.679s97.2295 -216.627 216.679 -216.627
s216.679 97.1777 216.679 216.678c0 119.45 -97.1777 216.628 -216.679 216.628zM175.411 294.195c18.8418 0 34.0479 -15.1553 33.9971 -33.9971c0 -18.8926 -15.1553 -34.457 -33.9971 -34.457c-18.8926 0 -33.9971 15.6152 -33.9971 34.457
s15.1045 33.9971 33.9971 33.9971zM336.589 294.195c18.79 0 33.9971 -15.1553 33.9971 -33.9971s-15.1553 -34.457 -33.9971 -34.457c-18.8926 0 -33.9971 15.6152 -33.9971 34.457s15.1045 33.9971 33.9971 33.9971zM256 175.564v0
c31.7949 0 57.5996 -31.2314 57.5996 -69.8369c0 -38.5527 -25.8047 -69.7852 -57.5996 -69.7852s-57.5996 31.2832 -57.5996 69.8369s25.8047 69.7852 57.5996 69.7852z" />
    <glyph glyph-name="uniE630" unicode="&#xe630;" 
d="M497.511 411.443v0l11.9297 -27.3408c-36.7109 -33.5361 -71.168 -71.0654 -103.066 -109.363v-302.183h-403.814v403.814h403.814v-26.624c28.3145 21.2998 58.5225 41.8301 91.1367 61.6963zM36.1982 342.732v0v-336.537h336.538v226.457
c-65.8945 -85.8105 -115.61 -171.366 -136.704 -225.023l-197.734 199.782l50.4834 40.6533l114.995 -89.0371c31.6924 37.5293 90.1113 100.301 168.96 164.096v19.6094h-336.538z" />
    <glyph glyph-name="uniE763" unicode="&#xe763;" 
d="M264.551 243.456h24.832v-23.5518h-24.832v23.5518zM189.389 253.85h40.8574v-23.6035h-40.8574v23.6035zM264.909 120.781h24.832v-15.002h-24.832v15.002zM130.355 120.781h24.8828v-15.002h-24.8828v15.002zM130.355 277.606h24.8828v-15.002h-24.8828v15.002z
M320.358 267.776l23.2959 8.7041l5.27344 -14.0293l-23.2959 -8.75488zM256 445.44c139.98 0 253.44 -113.46 253.44 -253.44s-113.46 -253.44 -253.44 -253.44s-253.44 113.46 -253.44 253.44s113.46 253.44 253.44 253.44zM166.349 80.8447v221.645h-43.9805v-221.645
h43.9805zM238.183 80.2812v0v196.455h-56.6787v-196.455h56.6787zM299.008 81.8174v211.814h-44.0322v-211.814h44.0322zM381.9 80.7422l41.2676 15.4111l-77.8242 207.514l-41.2158 -15.4111zM403.968 115.559l-23.2441 -8.7041l-5.27441 14.0283l23.2451 8.7041z" />
    <glyph glyph-name="uniE693" unicode="&#xe693;" 
d="M479.13 208.589v0c18.585 -18.5859 30.1055 -44.2373 30.3105 -72.6016c0 -28.3135 -11.5205 -54.0156 -30.1064 -72.6016c-18.585 -18.5859 -44.2363 -30.1055 -72.6016 -30.1055c-28.3643 0 -54.0156 11.5195 -72.6016 30.1055
c-18.585 18.5859 -30.1055 44.2363 -30.1055 72.6016c0 20.5312 6.04199 39.7314 16.4863 55.8076c9.72852 15.0527 23.3477 27.3926 39.373 35.584l-4.6084 14.2852v0.0507812l-2.04785 6.70801l-94.9756 -105.779c0.614258 -2.09961 0.972656 -4.35254 0.972656 -6.65625
c0 -6.34863 -2.55957 -12.1855 -6.70703 -16.333s-9.98438 -6.75781 -16.2822 -6.80957v0c-0.306641 -0.0507812 -0.5625 -0.0507812 -0.818359 -0.0507812c-1.38281 0 -2.61133 0.204102 -3.78906 0.460938c-1.17773 0.255859 -2.25293 0.614258 -3.1748 0.920898
c-1.89453 0.666016 -3.17383 1.28027 -3.27637 1.33105l-0.205078 0.102539c-4.19824 2.30469 -7.52637 5.78613 -9.625 9.98438h-7.93652c-2.50879 -25.2422 -14.2334 -47.8213 -31.6924 -64.3076c-18.3809 -17.3564 -43.1621 -28.0059 -70.4512 -28.0059
c-28.3652 0 -54.0166 11.5195 -72.6016 30.1055c-18.5859 18.5859 -30.1064 44.2363 -30.1064 72.6016c0 28.3643 11.5205 54.0156 30.208 72.4482c18.5859 18.585 44.2373 30.1055 72.6016 30.1055c11.5713 0 22.6816 -1.94629 33.0752 -5.47852l-9.16406 -19.7119
c-7.52637 2.30371 -15.5654 3.58398 -23.9111 3.58398c-22.374 0 -42.5977 -9.01172 -57.292 -23.7061c-14.5928 -14.6426 -23.7061 -34.918 -23.7061 -57.293c0 -22.374 9.01172 -42.5977 23.7061 -57.292c14.6943 -14.5928 34.918 -23.7061 57.292 -23.7061
c21.4023 0 40.8584 8.24316 55.3477 21.8115c13.4141 12.5947 22.5791 29.6445 25.0371 48.8447h-67.7383c-1.33105 -1.58691 -2.91797 -2.91895 -4.65918 -3.8916c-2.45703 -1.38184 -5.22168 -2.09863 -8.03809 -2.09863c-2.71387 0 -5.42676 0.665039 -7.93555 2.04785
c-2.71387 1.48438 -4.81348 3.63477 -6.24707 6.14355s-2.20117 5.3252 -2.20117 8.19238c0 2.71387 0.665039 5.42676 2.04785 7.93555c1.48438 2.71387 3.63477 4.81348 6.14355 6.24707c1.84375 1.0752 3.8916 1.79199 5.99121 2.04785l73.8809 134.041l-8.08887 26.4199
c-2.40723 -0.768555 -4.76172 -1.12695 -6.96387 -1.12695c-3.53223 0 -6.65527 0.819336 -9.21582 1.89453c-2.55957 1.02441 -4.60742 2.35547 -5.99023 3.37891c-0.921875 0.716797 -1.58691 1.28027 -1.94531 1.58789l-0.0517578 0.0507812
c-0.0507812 0.0517578 -0.102539 0.102539 -0.204102 0.15332c-0.205078 0.154297 -0.512695 0.410156 -0.921875 0.666016c-0.768555 0.563477 -1.84375 1.38281 -3.07227 2.25293c-2.45801 1.79199 -5.5293 4.04492 -8.29395 6.04102v0
c-1.69043 1.17773 -2.96973 2.76562 -3.84082 4.55762c-0.870117 1.89355 -1.38184 3.99316 -1.38184 6.19531c0 2.40625 0.563477 4.65918 1.58691 6.60449c1.02441 1.94531 2.56055 3.63477 4.55664 4.70996c0.255859 0.154297 0.512695 0.307617 0.819336 0.410156
l4.55664 0.716797c4.19824 -0.358398 9.26758 -0.716797 14.3877 -1.02441c5.12012 -0.306641 10.3418 -0.511719 14.6426 -0.511719c1.17773 0 2.25293 0 3.27734 0.0507812c7.52637 0.255859 14.4385 0.563477 20.4795 0.819336
c6.04199 0.255859 11.3672 0.460938 15.8213 0.460938c2.20117 0 4.25 -0.307617 6.14355 -0.870117h0.102539c1.12695 -0.358398 2.09961 -0.921875 2.96973 -1.63867s1.58691 -1.53613 2.15039 -2.45801c1.12695 -1.84277 1.74121 -3.99316 1.74121 -6.29688
c0 -2.04785 -0.460938 -3.94238 -1.38281 -5.63281c-0.921875 -1.68945 -2.25293 -3.12305 -3.99316 -4.0957c-1.17773 -0.665039 -2.50879 -1.02344 -3.94238 -1.02344v0c-7.47559 -0.102539 -14.6436 -1.69043 -21.4023 -4.55762l11.0088 -35.2256h140.697
l-8.75488 28.4678c-0.512695 1.33105 -0.819336 2.81543 -0.819336 4.30078c0 3.17383 1.33105 6.14355 3.42969 8.24316c2.09961 2.09863 5.01855 3.43066 8.24414 3.43066h60.416c9.31836 0 17.8682 -3.8916 23.9609 -9.98438
c6.19531 -6.09277 9.98438 -14.6436 9.98438 -23.9619s-3.8916 -17.8682 -9.98438 -23.9609c-6.09277 -6.19531 -14.5918 -9.98438 -23.9609 -9.98438c-3.1748 0 -6.14453 1.33105 -8.24414 3.43066c-2.09863 2.09863 -3.42969 5.01758 -3.42969 8.24316
c0 3.17383 1.33105 6.14355 3.42969 8.24316c2.09961 2.09863 5.01855 3.43066 8.24414 3.43066c2.91797 0 5.5293 1.17676 7.42383 3.07129c1.89453 1.94629 3.07129 4.50586 3.07129 7.42383c0 2.91895 -1.17676 5.53027 -3.07129 7.4248
c-1.84375 1.84277 -4.35254 2.96973 -7.11719 3.07129h-45.3115c6.75781 -22.4248 18.4824 -61.2344 18.4824 -61.2344v0v0s0.102539 -0.307617 0.256836 -0.871094c0.204102 -0.5625 0.40918 -1.33105 0.716797 -2.35449
c0.614258 -2.04883 1.43359 -4.86426 2.40625 -8.1416c1.94531 -6.50195 4.35156 -14.7969 6.39941 -21.6064c1.38281 -4.60742 2.56055 -8.49902 3.27734 -10.8545c3.42969 -10.752 7.21875 -22.0664 10.8027 -32.3066c3.1748 -9.11328 6.29785 -17.4082 8.80664 -23.4492
c2.40625 -0.615234 4.55664 -1.84375 6.24609 -3.58398c2.30469 -2.40723 3.73828 -5.68359 3.73828 -9.2168c0 -3.68652 -1.48535 -7.01367 -3.8916 -9.36914s-5.73438 -3.83984 -9.36914 -3.83984c-3.68652 0 -7.01465 1.48438 -9.37012 3.83984
c-2.35547 2.40625 -3.83984 5.73438 -3.83984 9.36914c0 1.79199 0.40918 3.5332 1.0752 5.12012c-9.7793 20.1221 -19.6094 42.1377 -27.751 65.4336c-11.6221 -6.60449 -21.4521 -15.9229 -28.5693 -27.1357c-8.03809 -12.4932 -12.6465 -27.3916 -12.6465 -43.418
c0 -22.374 9.01172 -42.5977 23.7061 -57.293c14.6943 -14.5918 34.918 -23.7051 57.293 -23.7051c22.374 0 42.5977 9.01074 57.292 23.7051c14.5928 14.6953 23.7061 34.9189 23.7061 57.293c0 22.4258 -9.01074 42.6504 -23.7061 57.3447
c-14.6943 14.5918 -34.918 23.7051 -57.292 23.7051c-3.63574 0 -7.21973 -0.255859 -10.752 -0.716797l-4.9668 21.1455c5.12012 0.768555 10.3936 1.17773 15.7188 1.17773c28.3643 0 54.0156 -11.5195 72.6016 -30.1055zM214.938 145.562v0
c0.921875 2.04785 2.15039 3.94238 3.63574 5.58105l-33.2295 108.186l-21.5039 -39.1172c21.6582 -15.0527 37.2734 -38.2969 42.291 -65.2285l-21.708 -1.63867c-4.30078 19.5078 -15.5654 36.4033 -31.0791 47.8721l-30.5664 -55.6543h92.1602zM241.408 158.464v0
l97.0234 107.264h-130.867l32.666 -107.008c0.40918 -0.0507812 0.767578 -0.15332 1.17773 -0.255859z" />
    <glyph glyph-name="uniE611" unicode="&#xe611;" 
d="M256 445.44v0c139.98 0 253.44 -113.46 253.44 -253.44s-113.46 -253.44 -253.44 -253.44s-253.44 113.46 -253.44 253.44s113.46 253.44 253.44 253.44zM256.205 7.06543c27.8018 0 50.3809 22.5283 50.3809 50.3809s-22.5791 50.3809 -50.3809 50.3809
c-27.8535 0 -50.3809 -22.5791 -50.3809 -50.3809c0 -27.8525 22.5791 -50.3809 50.3809 -50.3809zM291.431 141.466v0l19.8145 206.797h-108.954l19.8145 -206.797h69.3252z" />
    <glyph glyph-name="uniE641" unicode="&#xe641;" 
d="M256 445.44v0v0c139.98 0 253.44 -113.46 253.44 -253.44s-113.46 -253.44 -253.44 -253.44s-253.44 113.511 -253.44 253.44s113.46 253.44 253.44 253.44zM256 415.027v0v0c-123.188 0 -221.184 -99.8398 -221.184 -223.027s97.9961 -223.027 221.184 -223.027
s223.027 99.8398 223.027 223.027s-99.8398 223.027 -223.027 223.027zM298.24 300.544v-217.088l-116.173 108.544z" />
    <glyph glyph-name="uniE6EE" unicode="&#xe6ee;" 
d="M237.772 221.594h38.708v-38.707h-38.708v38.707zM237.772 106.394h38.708v-38.707h-38.708v38.707zM237.772 163.379h38.708v-38.7578h-38.708v38.7578zM179.507 106.394h38.7588v-38.707h-38.7588v38.707zM179.507 221.594h38.7588v-38.707h-38.7588v38.707z
M179.507 163.379h38.7588v-38.7578h-38.7588v38.7578zM295.219 163.379h38.708v-38.7578h-38.708v38.7578zM295.219 106.394h38.708v-38.707h-38.708v38.707zM256 445.44c139.93 0 253.44 -113.46 253.44 -253.44s-113.46 -253.44 -253.44 -253.44
s-253.44 113.511 -253.44 253.44s113.511 253.44 253.44 253.44zM362.035 58.7773v0l-0.0507812 270.029c0 10.2402 -7.93652 18.1758 -17.7666 18.1758h-176.486c-9.83105 0 -17.7666 -7.93555 -17.7666 -17.7666v-270.08c0 -9.83008 7.93555 -17.7666 17.7666 -17.7666
h176.537c9.83105 0 17.7666 7.9873 17.7666 17.4082v0zM179.507 318.516h154.521v-63.2324h-154.521v63.2324zM295.219 221.594h38.708v-38.707h-38.708v38.707z" />
    <glyph glyph-name="uniE7C7" unicode="&#xe7c7;" 
d="M473.088 81.6641c7.73145 0 13.9775 -6.24609 14.0293 -13.9775c0 -41.8301 -58.1641 -74.5986 -132.403 -74.5986h-197.581c-74.2402 0 -132.403 32.7686 -132.403 74.5986c0 7.73145 6.24609 13.9775 13.9268 13.9775h434.432zM473.088 172.288
c20.0195 0 36.25 -16.2305 36.1982 -36.3525c0 -20.0703 -16.1787 -36.3516 -36.1982 -36.3516h-434.432c-20.0195 0 -36.1982 16.2812 -36.1982 36.3516c0 20.0713 16.1787 36.3525 36.1982 36.3525h29.6953l40.1924 -52.2754
c2.71387 -3.53223 6.80957 -5.42676 11.0078 -5.42676c2.09961 0 4.25 0.460938 6.24707 1.48438l111.104 56.2178h236.186zM38.6562 230.81c-7.68066 0 -13.9268 6.24609 -13.9268 13.9268c0 94.2588 82.0732 146.176 231.117 146.176
c149.043 0 231.168 -51.8652 231.168 -146.125c0 -7.73145 -6.24707 -13.9775 -13.9268 -13.9775h-434.432zM255.897 299.674c-7.88477 0 -14.2842 -6.45117 -14.2842 -14.3359c0 -7.93652 6.39941 -14.3359 14.2842 -14.3359s14.2852 6.39941 14.2852 14.3359
c0 7.93555 -6.40039 14.3359 -14.2852 14.3359zM237.875 336.128c0 7.93652 -6.39941 14.3359 -14.2842 14.3359s-14.2852 -6.39941 -14.2852 -14.3359c0 -7.93555 6.40039 -14.3359 14.2852 -14.3359s14.2842 6.40039 14.2842 14.3359zM204.288 285.338
c0 7.88477 -6.40039 14.3359 -14.2852 14.3359s-14.2842 -6.40039 -14.2842 -14.3359c0 -7.93652 6.39941 -14.3359 14.2842 -14.3359s14.2852 6.39941 14.2852 14.3359zM159.078 350.464c-7.88477 0 -14.2842 -6.39941 -14.2842 -14.3359
c0 -7.93555 6.39941 -14.3359 14.2842 -14.3359s14.2852 6.40039 14.2852 14.3359c0 7.93652 -6.40039 14.3359 -14.2852 14.3359zM273.869 336.128c0 -7.93555 6.39941 -14.3359 14.2842 -14.3359s14.2852 6.40039 14.2852 14.3359
c0 7.93652 -6.40039 14.3359 -14.2852 14.3359s-14.2842 -6.39941 -14.2842 -14.3359zM307.456 285.338c0 -7.93652 6.40039 -14.3359 14.2852 -14.3359s14.2842 6.39941 14.2842 14.3359c0 7.93555 -6.39941 14.3359 -14.2842 14.3359s-14.2852 -6.40039 -14.2852 -14.3359
zM338.381 336.128c0 -7.93555 6.40039 -14.3359 14.2852 -14.3359s14.2842 6.40039 14.2842 14.3359c0 7.93652 -6.39941 14.3359 -14.2842 14.3359s-14.2852 -6.39941 -14.2852 -14.3359zM264.704 187.853h-208.384h-17.6641c-7.68066 0 -13.9268 6.24707 -13.9268 13.9775
c0 7.73145 6.24609 13.9775 13.9268 13.9775h434.432c7.67969 0 13.9268 -6.24609 13.9268 -13.9775c0 -7.73047 -6.24707 -13.9775 -13.9268 -13.9775h-208.384z" />
    <glyph glyph-name="uniE6EB" unicode="&#xe6eb;" 
d="M222.925 239.206v-0.0507812h17.7666l26.624 -75.1621h-17.0498l-4.9668 15.4629h-27.6992l-5.11914 -15.4629h-16.3848l26.8291 75.2129v0zM221.9 192.461h19.252l-9.47266 29.5938zM199.936 239.206l0.0517578 -13.3115h-22.4766v-61.8496h-15.8213v61.9004h-22.6299
v13.2607h60.876zM335.923 239.206l-22.9883 -36.3008l24.4219 -38.9121h-19.0459l-14.2852 25.6514l-15.1035 -25.6514h-18.2275l24.166 38.3496l-22.9883 36.8633h18.7393l13.4141 -24.4736l13.7734 24.4736h18.124zM345.344 239.206h15.6162v-75.1611h-15.6162v75.1611z
M256 445.44c139.93 0 253.44 -113.46 253.44 -253.44s-113.46 -253.44 -253.44 -253.44s-253.44 113.511 -253.44 253.44s113.511 253.44 253.44 253.44zM409.549 132.045c15.2578 0 25.3438 12.2881 22.3232 27.3408l-16.9473 84.4795
c-2.96973 15.002 -17.9199 27.29 -33.2285 27.29h-250.42c-15.2568 0 -30.2588 -12.2881 -33.2285 -27.29l-16.9473 -84.5312c-3.02051 -15.001 7.06543 -27.2891 22.375 -27.2891h306.073z" />
    <glyph glyph-name="uniE73B" unicode="&#xe73b;" 
d="M256.461 82.8926l1.17773 -0.767578c0.614258 -0.358398 1.2793 -0.511719 1.89453 -0.614258l-0.205078 -10.4961h-3.02051l-0.256836 12.1855c0.154297 -0.102539 0.256836 -0.205078 0.410156 -0.307617zM265.165 110.438
c2.76465 -2.09961 4.96582 -4.86426 5.27344 -8.75488c1.12598 -7.73145 -6.60449 -11.8271 -10.1885 -15.2578l-1.22949 0.716797c4.50586 4.91504 9.93262 8.03809 8.60156 14.2334c-0.306641 1.89453 -1.22852 3.43066 -2.55957 4.70996zM258.918 292.147
c-1.68945 -0.154297 -4.35156 -0.512695 -7.32129 -1.17773l-0.40918 17.7148h13.3633l-0.358398 -16.998c-1.28027 0.306641 -2.61133 0.511719 -3.94238 0.511719c-0.460938 0 -0.921875 0 -1.33203 -0.0507812zM253.491 200.551l-0.563477 22.5791v0.102539
l-0.614258 27.4941v0l-0.102539 5.27344c1.12695 1.38281 3.02148 2.20117 5.73438 2.35547c0.921875 0 2.81641 -0.768555 4.35254 -1.38281l0.204102 -0.0507812c0.256836 -0.102539 0.563477 -0.205078 0.819336 -0.307617l-0.511719 -24.7295v0l-0.40918 -19.9678
v-0.0517578l-0.154297 -7.42383c-1.33105 -0.614258 -2.86719 -1.28027 -4.04492 -1.79199c-1.43359 -0.614258 -3.07129 -1.33105 -4.70996 -2.09863zM247.398 250.675l0.716797 -27.5967c-9.21582 6.24707 -19.0469 13.0566 -22.5283 30.0547
c-0.819336 10.1377 3.58398 19.4561 11.2646 25.7539c5.99023 4.96582 14.9502 7.52637 22.6299 8.24316c0.255859 0.0507812 0.563477 0.0507812 0.819336 0.0507812c6.65625 0 14.2852 -6.70703 18.0225 -11.6738c3.27637 -4.35156 4.50586 -8.9082 2.71387 -10.0352
c-1.79199 -1.12598 -4.65918 -3.22559 -6.40039 -4.60742c-1.02344 -0.819336 -2.20117 -1.12695 -3.43066 -1.12695c-2.15039 0 -4.4541 0.921875 -6.75781 1.84375c-2.30469 0.920898 -4.50586 1.84277 -6.40039 1.84277h-0.306641
c-5.63281 -0.306641 -10.292 -2.96973 -11.3672 -8.65234c-0.204102 -1.12695 0.205078 -2.50879 1.02441 -4.09668zM267.725 276.94c-3.63477 2.86719 -2.81543 7.27051 -11.0586 6.09277c0.767578 -3.17383 2.61035 -6.29688 11.0586 -6.09277zM258.662 93.7988
c-0.920898 -0.871094 -1.84277 -1.79199 -2.76465 -2.86719l-0.460938 22.1689v0.0517578l-0.15332 5.83691v0.0507812l-0.102539 5.01758c1.48535 0.666016 3.58398 1.38281 5.37598 1.94531l-0.358398 -15.4111v0l-0.102539 -4.40332v-0.0507812l-0.255859 -11.1621
c-0.358398 -0.358398 -0.716797 -0.767578 -1.17773 -1.17676zM273.255 158.105c3.63477 -2.09863 6.39941 -7.57715 5.58008 -11.7754c-1.17773 -10.1895 -10.9053 -12.6982 -15.9746 -14.3877c-5.73438 -1.79199 -12.2871 -3.37891 -13.9258 -6.86035
c-1.0752 -2.40723 -0.410156 -4.40332 1.38184 -6.14453l0.102539 -5.83691c-1.38184 0.716797 -2.76465 1.53613 -4.0957 2.81641c-2.86719 2.86719 -4.14746 7.21875 -2.66211 11.2129c4.0957 8.14062 11.6221 8.85742 16.8447 11.417
c10.9053 3.43066 12.9023 10.292 5.5293 13.1592l0.205078 9.77832c2.30371 -0.716797 4.65918 -1.68945 7.01465 -3.37891zM256 445.44c139.98 0 253.44 -113.46 253.44 -253.44s-113.46 -253.44 -253.44 -253.44s-253.44 113.46 -253.44 253.44
s113.46 253.44 253.44 253.44zM408.371 158.105l-64.4092 37.1709l64.4092 37.1719l-43.1104 74.6494l-64.3584 -37.1201v74.291h-86.2207v-74.3418l-64.4092 37.1709l-43.0596 -74.6494l64.4609 -37.0693l-64.4102 -37.2217l43.0596 -74.7012l64.3584 37.1709v-74.3418
h86.2207v74.291l64.3584 -37.1201zM280.166 223.13c2.96973 -2.76465 6.45117 -7.57812 6.80957 -13.3633c0.154297 -5.78613 -1.53516 -9.7793 -4.24902 -13.5166c-12.4932 -14.4902 -27.5459 -11.7764 -32.1025 -18.7393
c-2.35547 -3.22559 -2.81641 -6.19531 -1.33105 -8.7041l0.306641 -13.4658c-2.86719 1.02441 -5.68262 2.61133 -8.34473 5.27344c-6.55371 6.70703 -5.68359 17.8174 -0.768555 24.4229c11.1621 13.209 27.085 13.1064 29.3887 19.6602
c1.63867 4.04492 1.63867 3.5332 -0.972656 5.99121c-0.460938 0.358398 -0.921875 0.716797 -1.48438 1.0752l0.40918 20.0186c3.63477 -2.20117 7.93652 -4.60742 12.3389 -8.65234zM254.771 141.568l-0.307617 13.9258v0.0517578l-0.306641 13.4141v0.0507812
l-0.102539 4.9668c0.15332 0.255859 0.306641 0.460938 0.460938 0.666016c0.101562 0.0507812 0.15332 0.15332 0.15332 0.204102c0.921875 1.38281 3.68652 2.35547 7.01465 3.43066l-0.358398 -16.5889v-0.0507812l-0.205078 -9.7793v-0.0517578l-0.15332 -7.78223
c-0.615234 -0.255859 -1.22949 -0.511719 -1.94629 -0.716797c-0.255859 -0.102539 -0.511719 -0.205078 -0.716797 -0.306641c-1.02344 -0.512695 -2.25293 -0.921875 -3.53223 -1.43359z" />
    <glyph glyph-name="uniE6BD" unicode="&#xe6bd;" 
d="M256 439.279v0v6.16113c139.99 0 253.44 -113.45 253.44 -253.44s-113.45 -253.44 -253.44 -253.44s-253.44 113.45 -253.44 253.44s113.45 253.44 253.44 253.44v-12.3203c-66.5811 -0.0517578 -126.849 -27.0029 -170.483 -70.6377
c-43.6855 -43.6338 -70.6367 -103.901 -70.6367 -170.482c0.0517578 -66.5811 27.0029 -126.849 70.6377 -170.483c43.6338 -43.6855 103.901 -70.6367 170.482 -70.6367c66.5811 0.0517578 126.849 27.0029 170.483 70.6377
c43.6855 43.6338 70.6367 103.901 70.6367 170.482c-0.0517578 66.5811 -27.0029 126.849 -70.6377 170.482c-43.6338 43.6865 -103.901 70.6367 -170.482 70.6367v6.16016z" />
    <glyph glyph-name="uniE691" unicode="&#xe691;" 
d="M150.544 445.44h71.4619v-134.03h83.1172l-152.942 -152.994h-1.58496c-79.335 0 -143.538 64.2539 -143.538 143.537c0 79.2324 64.2031 143.487 143.486 143.487v0zM76.6289 -61.4404c-28.4727 0 -51.4756 23.0547 -51.4756 51.4756
c0 28.4219 23.0537 51.5264 51.4756 51.5264c28.4717 0 51.5254 -23.1045 51.5254 -51.5264c-0.0507812 -28.4209 -23.1045 -51.4756 -51.5254 -51.4756zM350.413 -61.4404c-28.4717 0 -51.5264 23.0547 -51.5264 51.4756c0 28.4219 23.0547 51.5264 51.5264 51.5264
c28.4727 0 51.5264 -23.1045 51.5264 -51.5264c-0.0507812 -28.4209 -23.1055 -51.4756 -51.5264 -51.4756zM504.941 366.157h-27.4502l-58.2217 -58.1719v-100.957c0 -26.8359 -21.7246 -48.5615 -48.5625 -48.5615h-100.957l-25.4053 -25.4053l64.1523 -64.1016
l-29.6484 -29.6475l-64.1523 64.1016l-64.1006 -64.1533l-29.6484 29.6484l339.164 339.164h44.8301v-41.916v0z" />
    <glyph glyph-name="uniE739" unicode="&#xe739;" 
d="M256 445.44c139.98 0 253.44 -113.46 253.44 -253.44s-113.46 -253.44 -253.44 -253.44s-253.44 113.46 -253.44 253.44s113.46 253.44 253.44 253.44zM341.914 231.629c4.14648 6.29785 4.04395 14.1826 0.40918 20.3262
c6.91211 14.9502 10.8027 31.7949 10.8027 49.6641c0 16.4355 -3.37891 31.9492 -9.16406 45.875l-2.45801 5.83691h-51.4561v-18.9443h38.6045c3.48242 -10.1367 5.47852 -21.1455 5.47852 -32.7168c0 -14.5918 -3.07129 -28.3643 -8.44727 -40.499
c-5.99121 -0.15332 -11.8271 -3.12305 -15.3604 -8.44727c-13.0557 -19.5078 -32.7168 -31.1299 -54.3232 -31.1299s-41.2676 11.6221 -54.3232 31.1299c-3.58398 5.37598 -9.4209 8.34473 -15.4111 8.44727c-5.37598 12.1348 -8.44824 25.9072 -8.44824 40.499
c0 11.5713 1.94629 22.5801 5.47852 32.7168h33.6387v18.9443h-46.541l-2.40625 -5.83691c-5.83691 -13.9258 -9.16504 -29.4912 -9.16504 -45.875c0 -17.8691 3.8916 -34.7646 10.8037 -49.7148c-3.63574 -6.09277 -3.73828 -13.9268 0.459961 -20.2246
c14.7461 -22.3232 37.0176 -39.0654 63.1299 -45.3633v-2.45703c-0.0507812 -8.7041 0.666016 -18.5342 4.71094 -28.7236c4.04492 -10.1377 10.5977 -19.7627 20.377 -31.0781c3.73828 -4.35156 9.01172 -6.55371 14.2852 -6.55371
c1.38281 0 2.76465 0.15332 4.14746 0.460938c2.20117 -2.30371 4.50488 -4.65918 7.01367 -7.16797c12.1348 -12.083 17.7158 -25.6514 17.6641 -36.0449c-0.0507812 -7.37305 -2.45703 -13.0049 -7.27051 -17.3564c-4.8125 -4.30078 -12.9023 -7.62891 -25.4971 -7.62891
c-10.957 -0.0517578 -20.1221 6.04102 -26.8799 13.0557c-0.819336 0.819336 -1.58691 1.68945 -2.35547 2.56055c5.99023 7.21875 9.57422 16.4863 9.57422 26.5723c0 22.9893 -18.6875 41.6768 -41.6768 41.6768c-22.9883 0 -41.6768 -18.6875 -41.6768 -41.6768
c0 -22.9883 18.6885 -41.6768 41.6768 -41.6768c6.04199 0 11.7764 1.28027 16.999 3.63574c1.17676 -1.38281 2.45703 -2.81641 3.83984 -4.25c8.65234 -8.95996 22.2207 -18.79 40.499 -18.8418h0.102539c15.8203 0 28.8252 4.30078 37.9902 12.4414
c9.16504 8.08984 13.6699 19.7119 13.6191 31.5391c-0.0507812 16.8457 -8.3457 34.458 -23.2451 49.46c-2.30371 2.25293 -4.4541 4.4541 -6.45117 6.55371c1.89453 6.04102 0.716797 12.8506 -3.7373 18.0225c-8.29395 9.57422 -11.9805 15.7695 -13.6699 20.0703
c-1.63867 4.35156 -2.09961 7.73047 -2.09961 14.8984v0.973633c29.3379 4.60742 54.5791 22.4248 70.7588 46.8477zM207.411 114.637c12.5439 0 22.7324 -10.1377 22.7324 -22.7324c0 -12.5439 -10.1885 -22.7334 -22.7324 -22.7334s-22.7324 10.1895 -22.7324 22.7334
s10.1885 22.7324 22.7324 22.7324z" />
    <glyph glyph-name="uniE609" unicode="&#xe609;" 
d="M293.793 365.441v0l-210.219 -208.495l-47.9395 47.8369l242.635 240.657h129.358l34.3428 -34.2422v-37.9961h-140.366zM442.021 346.57v0l34.3438 -34.2422v-135.952l-238.525 -237.816l-167.861 167.354l242.686 240.657h129.357zM432.586 254.092v0
c13.5449 13.4941 13.5449 35.3574 0 48.8516c-13.5449 13.4932 -35.459 13.4932 -49.0039 0c-13.5439 -13.4941 -13.5439 -35.3574 0 -48.8516c13.5449 -13.4941 35.46 -13.4941 49.0039 0z" />
    <glyph glyph-name="uniE760" unicode="&#xe760;" 
d="M256 445.44c139.878 0 253.44 -113.408 253.44 -253.44s-113.408 -253.44 -253.44 -253.44s-253.44 113.46 -253.44 253.44s113.46 253.44 253.44 253.44zM349.491 58.8799l-35.6865 109.978l93.543 67.9424h-115.661l-35.6865 109.978l-35.7891 -109.978h-115.559
l93.543 -67.9424l-35.7373 -109.978l93.542 67.9941z" />
    <glyph glyph-name="uniE6FE" unicode="&#xe6fe;" 
d="M256 445.44v0c139.949 0 253.44 -113.44 253.44 -253.44s-113.44 -253.44 -253.44 -253.44s-253.44 113.491 -253.44 253.44s113.491 253.44 253.44 253.44zM346.731 290.03v0h0.000976562c-0.65918 5.72852 -4.96777 7.50195 -9.42871 4.00488l-39.5869 -30.7168
c-4.56152 -3.54785 -3.90332 -8.11035 1.46973 -10.1885l44.8594 -17.4375c5.32129 -2.07812 9.12305 0.862305 8.46387 6.58984zM272.423 305.896v-0.000976562c-2.63574 -5.11914 -0.709961 -11.4053 4.46094 -14.0908
c5.52441 -2.88867 11.1006 -6.33691 16.4736 -10.1885c1.8252 -1.31738 3.95312 -1.97656 6.08203 -1.97656c3.24414 0 6.4375 1.52051 8.46484 4.35938c3.34473 4.66309 2.28027 11.2021 -2.38281 14.5469c-6.18359 4.46094 -12.5703 8.41504 -19.0078 11.7607
c-5.06836 2.68652 -11.4053 0.708984 -14.0908 -4.41016zM188.99 69.9941v0c7.45117 9.47852 4.76465 25.3945 5.12012 42.6797h-47.4443c-0.506836 -0.203125 -0.861328 -0.557617 -0.811523 -1.31836c0.760742 -14.8008 -2.22949 -29.7539 3.90332 -39.2324
c4.46094 -6.89355 12.9258 -12.2666 24.1279 -10.7451c6.4375 0.861328 12.0635 4.71387 15.1045 8.61621zM203.69 187.235h-0.000976562c3.39648 21.2383 3.14258 52.1074 -5.11914 67.2627c-5.12012 9.32715 -18.5518 17.792 -31.9336 14.6494
c-29.1963 -6.74219 -34.3164 -40.3477 -31.4775 -75.4238c2.12891 -25.9014 10.1885 -48.915 10.7969 -72.8389h48.2549c0.456055 12.6719 0.658203 24.2285 2.58496 35.3291c1.8252 10.4424 5.11914 20.0732 6.89453 31.0215zM203.03 301.891h0.000976562v0.00195312
c5.62598 1.2666 9.1748 6.84277 7.90723 12.5195c-1.26758 5.62598 -6.84277 9.07227 -12.4697 7.90723c-7.0957 -1.57227 -14.2939 -3.80273 -21.4404 -6.58984c-5.37305 -2.12891 -8.05957 -8.16113 -5.93066 -13.5342c1.62207 -4.10547 5.5752 -6.64062 9.73242 -6.64062
c1.26758 0 2.5332 0.203125 3.80078 0.709961c6.18359 2.38281 12.3682 4.25781 18.3994 5.62598zM262.59 309.646l-0.000976562 0.000976562c1.31836 5.62598 -2.17871 11.2012 -7.80566 12.4688c-7.40039 1.72363 -15.0029 2.78809 -22.5049 3.14258
c-6.03223 0.253906 -10.6445 -4.15625 -10.8984 -9.93457c-0.25293 -5.72754 4.15625 -10.6445 9.93555 -10.8975c6.28516 -0.25293 12.5703 -1.16602 18.7539 -2.58496c0.811523 -0.152344 1.62207 -0.253906 2.38281 -0.253906c4.71387 0 9.02246 3.24316 10.1377 8.05859
zM328.129 85.6562c0.506836 0.507812 0.557617 1.01465 0.253906 1.52051c-11.6084 10.6953 -23.2158 21.3906 -34.874 32.1367c-11.3535 -13.0273 -24.127 -22.8604 -25.0898 -34.9238c-0.40625 -4.91699 1.11523 -11.6074 5.27148 -16.5244
c7.19727 -8.66797 17.0811 -10.4932 25.04 -8.41406c10.8975 2.78809 18.8555 15.8145 29.3984 26.2051zM391.844 138.879v0c25.8506 23.874 44.8594 52.0566 27.9795 76.792c-7.7041 11.3545 -23.3672 14.2441 -33.4033 10.8477
c-16.3721 -5.52539 -37.5088 -28.0303 -49.3701 -45.9736c-6.13281 -9.27637 -10.2383 -18.6035 -15.9668 -27.5244c-6.08203 -9.47852 -13.7871 -18.0957 -22.0488 -27.7266c11.8613 -10.8975 23.6709 -21.7959 35.5322 -32.6934
c16.626 17.1826 38.168 28.6387 57.2773 46.2783z" />
    <glyph glyph-name="uniE604" unicode="&#xe604;" 
d="M2.55957 65.3311l252.058 253.338l254.823 -253.338h-506.881v0z" />
    <glyph glyph-name="uniE6C3" unicode="&#xe6c3;" 
d="M491.945 -42.8203c-23.3262 -23.0166 -61.1338 -23.0166 -84.46 0l-103.288 101.994c-28.9121 -15.5674 -61.4443 -25.1885 -96.5625 -25.1885c-113.27 0 -205.075 91.8057 -205.075 205.074c0 113.27 91.8057 205.023 205.075 205.023
c113.269 0 205.073 -91.8057 205.073 -205.075c0 -34.8076 -9.46484 -67.082 -24.7744 -95.7871l104.012 -102.666c23.3262 -23.0166 23.3262 -60.3594 0 -83.375v0zM207.635 381.862c-78.3057 0 -141.819 -63.5137 -141.819 -141.819
c0 -78.3066 63.5137 -141.82 141.819 -141.82s141.819 63.5137 141.819 141.82c0 78.3057 -63.5137 141.819 -141.819 141.819z" />
    <glyph glyph-name="uniE622" unicode="&#xe622;" 
d="M408.013 445.44l101.428 -101.479l-151.962 -151.962l151.962 -151.962l-101.428 -101.479l-152.013 152.014l-152.013 -152.014l-101.428 101.479l151.962 151.962l-151.962 151.962l101.428 101.479l152.013 -152.014z" />
    <glyph glyph-name="uniE627" unicode="&#xe627;" 
d="M312.627 184.524v90.4199h-279.244v0l-0.256836 77.6191h279.501v92.877l166.093 -130.458zM478.617 107.469l0.256836 -76.9023h-276.531v-92.0068l-164.25 129.28l164.25 129.28v-89.6514h276.274z" />
    <glyph glyph-name="uniE75F" unicode="&#xe75f;" 
d="M256 445.44c139.98 0 253.44 -113.46 253.44 -253.44s-113.46 -253.44 -253.44 -253.44s-253.44 113.46 -253.44 253.44s113.46 253.44 253.44 253.44zM241.101 67.584v23.9102v0.0517578v103.065l-49.9199 49.9707l-10.5986 -10.5977
c-5.8877 -5.83691 -5.8877 -15.3604 0 -21.1973l30.5156 -30.5664v-15.9746l-0.614258 0.307617l-48.999 48.998v81.2031c0 10.8545 -8.80566 19.6611 -19.6602 19.6611h-19.6611v-134.195v0l51.5586 -51.5068v-63.1299h67.3789zM389.837 182.221v0l-0.0517578 134.195
h-19.6602c-10.8545 0 -19.6611 -8.80664 -19.6611 -19.6611v-81.1514l-48.998 -48.999l-0.614258 -0.306641v15.9746l30.5664 30.5664c5.8877 5.83594 5.8877 15.3594 0 21.1963l-10.5986 10.5986l-49.9199 -49.9717v-103.014v-0.0517578v-24.0127h67.4307v63.1299
l51.5068 51.5068v0z" />
    <glyph glyph-name="uniE78C" unicode="&#xe78c;" 
d="M2.55957 445.44h506.881v-506.881h-506.881v506.881zM129.434 159.36v0h91.9551v-94.0039h63.2832v94.0039h97.8945v63.334h-97.8945v95.9492h-63.2832v-95.9492h-91.9551v-63.334z" />
    <glyph glyph-name="uniE70B" unicode="&#xe70b;" 
d="M509.44 1.43359v0c0 -35.0205 -27.8535 -62.874 -62.874 -62.874h-380.16c-34.9697 0 -63.8467 27.9043 -63.8467 62.874v380.16c0 34.9697 28.877 63.8467 63.8467 63.8467h380.16c35.0205 0 62.874 -28.877 62.874 -63.8467v-380.16zM180.89 192l117.351 -108.544
v217.088z" />
    <glyph glyph-name="uniE799" unicode="&#xe799;" 
d="M509.44 155.802h-217.242v-217.242h-72.3965v217.242h-217.242v72.3965h217.242v217.242h72.3965v-217.242h217.242v-72.3965z" />
    <glyph glyph-name="uniE7A4" unicode="&#xe7a4;" 
d="M256 445.44c139.98 0 253.44 -113.46 253.44 -253.44s-113.46 -253.44 -253.44 -253.44s-253.44 113.46 -253.44 253.44s113.46 253.44 253.44 253.44zM84.7871 238.131c137.268 0 137.779 -137.779 137.779 -137.779c0 137.421 137.779 137.779 137.779 137.779
c-137.523 0 -137.779 137.779 -137.779 137.779c0 -134.86 -137.779 -137.779 -137.779 -137.779zM251.648 5.83691c0 43.7246 43.8779 43.8779 43.8779 43.8779c-43.7764 0 -43.8779 43.8789 -43.8779 43.8789c0 -42.957 -43.8789 -43.8789 -43.8789 -43.8789
c43.7246 0 43.8789 -43.8779 43.8789 -43.8779zM367.411 77.6191c0 67.9424 68.1475 68.1475 68.1475 68.1475c-67.9941 0 -68.1475 68.1475 -68.1475 68.1475c0 -66.7139 -68.1475 -68.1475 -68.1475 -68.1475c67.8916 0 68.1475 -68.1475 68.1475 -68.1475z" />
    <glyph glyph-name="uniE673" unicode="&#xe673;" 
d="M256 445.44v0c139.98 0 253.44 -113.46 253.44 -253.44s-113.46 -253.44 -253.44 -253.44s-253.44 113.46 -253.44 253.44s113.46 253.44 253.44 253.44zM428.058 157.799h0.0507812v68.4023h-344.217v-68.4023h344.166z" />
    <glyph glyph-name="uniE6FF" unicode="&#xe6ff;" 
d="M206.694 264.192c-7.37305 0 -14.0283 2.91797 -18.79 7.78223c-4.81348 4.8125 -7.78223 11.4688 -7.78223 18.79s2.96875 13.9775 7.78223 18.791c4.8125 4.8125 11.4688 7.78223 18.79 7.78223s13.9775 -2.96973 18.79 -7.78223
c4.81348 -4.81348 7.7832 -11.4697 7.7832 -18.791s-2.96973 -13.9775 -7.7832 -18.79c-4.8125 -4.81348 -11.417 -7.78223 -18.79 -7.78223zM206.694 311.245c-11.3154 0 -20.4795 -9.16504 -20.4795 -20.4805s9.16406 -20.4795 20.4795 -20.4795
s20.4805 9.16406 20.4805 20.4795s-9.16504 20.4805 -20.4805 20.4805zM304.538 117.606c7.26953 0 13.9258 -2.96973 18.79 -7.78223c4.8125 -4.81348 7.78223 -11.4688 7.78223 -18.791c0 -7.32129 -2.96973 -13.9775 -7.78223 -18.79s-11.4688 -7.78223 -18.79 -7.78223
c-7.32227 0 -13.9785 2.96973 -18.791 7.78223s-7.78223 11.4688 -7.78223 18.79c0 7.32227 2.96973 13.9775 7.78223 18.791c4.8125 4.8125 11.418 7.78223 18.791 7.78223zM304.538 70.5537c11.2119 0 20.4287 9.16504 20.4795 20.4795
c0 11.3154 -9.16504 20.4805 -20.4795 20.4805c-11.3154 0 -20.4805 -9.16504 -20.4805 -20.4805c0 -11.3145 9.16504 -20.4795 20.4805 -20.4795zM256 445.44c139.93 0 253.44 -113.46 253.44 -253.44s-113.46 -253.44 -253.44 -253.44s-253.44 113.511 -253.44 253.44
s113.511 253.44 253.44 253.44zM206.694 321.895c-17.2539 0 -31.1807 -13.9775 -31.1807 -31.1807c0 -17.2549 13.9775 -31.1807 31.1807 -31.1807c17.2549 0 31.1807 13.9775 31.1807 31.1807c0 17.2539 -13.9775 31.1807 -31.1807 31.1807zM257.997 71.2188
c0 7.83398 0 31.0273 0.0507812 40.9092c-23.9619 -0.0507812 -48.5889 9.0625 -66.9697 27.1875l-0.102539 0.102539l-0.306641 0.306641c-19.251 19.1494 -28.3652 44.4414 -27.5459 69.6318l46.0293 0.307617l-65.8945 65.8945l-66.7139 -66.7139l45.6191 0.307617
c-0.716797 -35.4824 12.4932 -71.3223 39.5264 -98.3555l0.716797 -0.716797c26.3174 -25.958 61.3379 -38.8613 95.5908 -38.8613v0zM304.486 59.8525c17.2031 0.0517578 31.1299 13.9775 31.1807 31.1807c0 17.2549 -13.9775 31.1816 -31.1807 31.1816
c-17.2539 0 -31.1807 -13.9785 -31.1807 -31.1816c0 -17.2539 13.9775 -31.1807 31.1807 -31.1807zM368.742 108.749l66.6631 66.7646l-45.6201 -0.307617c0.716797 35.4824 -12.4922 71.3223 -39.5264 98.3555c-0.204102 0.15332 -0.40918 0.358398 -0.716797 0.666016
c-26.4189 26.0088 -60.7744 38.9121 -95.0781 38.8604v-40.9082c24.0127 0.0507812 48.0771 -9.01172 66.458 -27.1875l0.102539 -0.102539c0.0507812 -0.0507812 0.15332 -0.15332 0.306641 -0.307617c19.251 -19.1484 28.3652 -44.4414 27.5459 -69.6318
l-46.0293 -0.306641z" />
    <glyph glyph-name="uniE758" unicode="&#xe758;" 
d="M487.731 229.068c1.33105 -15.6152 2.50879 -41.1133 2.50879 -56.7803l-0.0517578 -154.266h-36.3516v-38.6562c0 -22.4766 -18.2783 -40.7549 -40.8066 -40.7549c-22.4766 0 -40.7549 18.2275 -40.7549 40.7549v38.6562h-232.653v-38.6562
c0 -22.5273 -18.3291 -40.7549 -40.8057 -40.7549c-22.4775 0 -40.7559 18.2275 -40.7559 40.7549v38.6562h-36.3516v154.266c0 15.667 1.12598 41.2158 2.55957 56.7803l13.9268 168.346c1.38184 15.5654 15.1553 30.0039 30.6689 32.1025
c0 0 46.1309 15.9238 187.136 15.9238c140.953 0 187.136 -15.9238 187.136 -15.9238c15.5137 -2.09863 29.2871 -16.5371 30.6689 -32.1025zM197.068 422.81c-12.7998 0 -23.1934 -10.3936 -23.1934 -23.1426c0 -12.7998 10.3936 -23.1426 23.1934 -23.1426h117.914
c12.749 0 23.1426 10.3428 23.1426 23.1426c0 12.749 -10.3936 23.1426 -23.1426 23.1426h-117.914zM98.8672 51.2002c18.6367 0 33.792 15.1553 33.792 33.792c0 18.6875 -15.1553 33.792 -33.792 33.792s-33.792 -15.1045 -33.792 -33.792
c0 -18.6367 15.1553 -33.792 33.792 -33.792zM72.3457 165.939h367.258v12.9023c0 12.2881 -0.871094 32.3066 -1.94629 44.4922l-10.9053 103.834c-1.0752 12.2373 -12.0322 22.2207 -24.2686 22.2207h-292.967c-12.2363 0 -23.1934 -10.0352 -24.2686 -22.2207
l-10.9053 -103.782c-1.12695 -12.1855 -1.99707 -32.2559 -1.99707 -44.4932v-12.9531v0zM413.082 51.2002c18.7383 0 33.792 15.1553 33.792 33.792c0 18.6875 -15.1045 33.792 -33.792 33.792c-18.6377 0 -33.792 -15.1045 -33.792 -33.792
c0 -18.6367 15.1543 -33.792 33.792 -33.792z" />
    <glyph glyph-name="uniE789" unicode="&#xe789;" 
d="M2.55957 65.3057l252.929 253.389l253.952 -253.389h-69.6836l-184.269 184.269l-184.27 -184.269h-68.6592z" />
    <glyph glyph-name="uniE650" unicode="&#xe650;" 
d="M131.941 445.44v0s61.3379 -1.0752 92.4678 -40.2949c31.0791 -39.2197 20.2754 -101.582 20.2754 -101.582s-61.2871 0.972656 -92.4678 40.1924c-31.1299 39.2197 -20.2754 101.685 -20.2754 101.685zM325.377 423.629v0
c14.7959 -9.72852 30.0547 -21.5049 42.291 -33.8438c-46.7461 -18.1758 -86.7334 -60.9287 -100.915 -111.207c41.9834 29.082 102.554 36.4033 145.46 15.8721c60.1094 -28.7236 69.7344 -113.716 66.2021 -174.9c-5.27441 -90.9326 -67.8408 -172.393 -159.95 -180.584
c-20.5312 -1.74121 -43.8281 2.30371 -62.4141 13.3115c-18.6367 -11.0078 -42.0352 -15.1035 -62.5664 -13.3115c-92.1602 8.19141 -154.677 89.6523 -159.898 180.584c-3.5332 61.1846 6.09277 146.228 66.2021 174.951c43.3145 20.7363 104.551 13.0557 146.535 -16.5889
c10.8545 53.7607 45.6201 113.87 79.0537 145.717zM359.425 276.888v0c26.7266 -13.7217 49.6133 -56.1152 56.5771 -79.3096c8.39648 -27.9043 1.6377 -53.6582 -3.84082 -80.999c85.4023 23.5527 9.26758 140.597 -52.7363 160.309z" />
    <glyph glyph-name="uniE7D8" unicode="&#xe7d8;" 
d="M418.406 417.639l37.4785 -37.4785l-1.33105 -2.35547c-26.6758 -47.1553 -33.4336 -109.466 -20.6338 -190.566c0.921875 -5.93945 1.94531 -11.8271 2.96973 -17.5107c8.7041 -49.9199 14.4893 -82.8926 -36.8125 -118.63
c-29.9014 -20.8896 -57.6514 -31.3857 -82.1768 -40.6533c-22.9883 -8.70312 -42.8535 -16.1787 -59.6475 -29.7979l-2.25293 -1.84375l-2.25293 1.84375c-16.7939 13.6191 -36.6592 21.1455 -59.75 29.8496c-24.4736 9.26758 -52.2246 19.7627 -82.0225 40.5508
c-51.3027 35.7881 -45.5166 68.71 -36.8135 118.681l0.256836 1.53613c0.920898 5.22266 1.84277 10.5479 2.66211 15.9746c12.7998 81.1006 6.04199 143.463 -20.6338 190.566l-1.33105 2.40625l37.4785 37.4785h324.812v-0.0507812zM484.301 373.197
c-28.1084 -42.1377 -35.6348 -101.53 -22.9893 -181.658c0.921875 -5.78516 1.89453 -11.4688 2.86816 -17.0498c8.65234 -49.3057 17.5615 -100.301 -48.2822 -146.227c-32.5635 -22.7334 -62.1055 -33.8945 -88.1152 -43.7764
c-25.6514 -9.72754 -45.875 -17.3564 -60.1602 -33.126l-11.6221 -12.8008l-11.6221 12.8008c-14.2852 15.7695 -34.5088 23.3984 -60.1602 33.126c-26.0098 9.83008 -55.501 20.9922 -88.1152 43.7764c-65.8438 45.9258 -56.9346 96.9209 -48.333 146.227
c0.972656 5.58105 1.99707 11.2646 2.91895 17.0498c12.6455 80.0771 5.11914 139.521 -22.9893 181.658l-7.11719 10.7002l61.543 61.543h347.802l61.542 -61.543zM469.248 382.003l-46.4385 46.4385h-333.67l-46.4385 -46.4385l5.42676 -9.52246
c25.4463 -44.9541 31.7949 -104.961 19.3535 -183.604c-0.819336 -5.37598 -1.74023 -10.5986 -2.66211 -15.8213l-0.255859 -1.53613c-8.75586 -50.0215 -15.667 -89.5996 41.2158 -129.279c30.873 -21.5557 59.2891 -32.3076 84.4287 -41.7793
c22.1699 -8.39648 41.2676 -15.6162 56.7295 -28.1094l9.0625 -7.32129l9.0625 7.32129c15.4111 12.4932 34.5596 19.7129 56.6787 28.1094c25.0879 9.47168 53.5039 20.2236 84.4795 41.8301c56.8828 39.6289 49.9717 79.207 41.2676 129.28
c-1.02441 5.63184 -1.99707 11.418 -2.91895 17.3057c-12.4414 78.6426 -6.14355 138.649 19.3027 183.604z" />
    <glyph glyph-name="uniE79F" unicode="&#xe79f;" 
d="M135.065 209.255h241.92v-34.5605h-241.92v34.5605zM256 428.186v-17.3057c-60.5186 0 -115.098 -24.4736 -154.777 -64.1025c-39.6289 -39.6797 -64.1025 -94.2588 -64.1025 -154.777s24.4736 -115.098 64.1025 -154.777
c39.6797 -39.6289 94.2588 -64.1025 154.777 -64.1025s115.098 24.4736 154.777 64.1533c39.6289 39.6797 64.1025 94.2598 64.1025 154.777c0 60.5186 -24.4736 115.098 -64.1025 154.778c-39.6797 39.6289 -94.3105 64.1025 -154.777 64.1025v17.2539v17.2549
c139.98 0 253.44 -113.46 253.44 -253.44s-113.46 -253.44 -253.44 -253.44s-253.44 113.46 -253.44 253.44s113.46 253.44 253.44 253.44v-17.2549z" />
    <glyph glyph-name="uniE636" unicode="&#xe636;" 
d="M436.682 337.362v0c35.0889 -0.102539 63.2842 -28.2959 63.3857 -63.3857v-166.967c-0.15332 -35.0381 -28.3467 -63.2832 -63.4365 -63.3857h-57.1543v-63.4365c-0.101562 -22.9844 -82.334 -41.6279 -183.771 -41.6279s-183.67 18.6436 -183.772 41.6279v420.611
h0.459961c-0.306641 0.970703 -0.459961 1.94141 -0.459961 2.91211c0 23.0352 82.2832 41.7285 183.823 41.7285c101.488 0 183.771 -18.6934 183.771 -41.7285c0 -0.970703 -0.204102 -1.94141 -0.510742 -2.91211h0.510742v-63.4365h57.1543zM114.697 44.2363v0v292.514
c0 10.9297 -8.83594 19.7656 -19.7158 19.7656c-10.9814 0 -19.8174 -8.83594 -19.8174 -19.7656v-292.514c0 -10.9297 8.83594 -19.7656 19.8174 -19.7656c10.8799 0 19.7158 8.83594 19.7158 19.7656zM215.521 44.2363h0.000976562v292.514
c0 10.9297 -8.83594 19.7656 -19.7666 19.7656c-10.9297 0 -19.7656 -8.83594 -19.7656 -19.7656v-292.514c0 -10.9297 8.83496 -19.7656 19.7656 -19.7656c10.9297 0 19.7656 8.83594 19.7656 19.7656zM316.296 44.2363v292.514
c0 10.9297 -8.83594 19.7656 -19.7666 19.7656c-10.9297 0 -19.7666 -8.83594 -19.7666 -19.7656v-292.514c0 -10.8789 8.83691 -19.7148 19.7666 -19.7148c10.9307 0 19.7666 8.83594 19.7666 19.7148zM440.512 107.06h0.000976562v166.918
c0 1.02148 -0.358398 1.83887 -1.12402 2.65527c-0.868164 0.766602 -1.68555 1.12402 -2.70703 1.1748h-57.1543v-174.629h57.1543c1.02148 0 1.83789 0.356445 2.70605 1.17383c0.766602 0.817383 1.12402 1.68555 1.12402 2.70703z" />
    <glyph glyph-name="uniE7AB" unicode="&#xe7ab;" 
d="M261.068 288.768c-26.6748 0 -48.2295 21.6064 -48.2812 48.2822c0 26.624 48.2812 108.391 48.2812 108.391s48.2822 -81.7666 48.2822 -108.391c0 -26.6758 -21.6582 -48.2822 -48.2822 -48.2822zM228.096 235.98c-12.1855 -12.1338 -31.8975 -12.1338 -44.083 0
c-12.1855 12.1855 -27.4941 71.5781 -27.4941 71.5781s59.3916 -15.3604 71.5771 -27.4941c12.1855 -12.1865 12.1855 -31.8984 0 -44.084zM293.888 235.98c-12.1855 12.1855 -12.1855 31.8975 0 44.084c12.1348 12.1855 71.5264 27.4941 71.5264 27.4941
s-15.2568 -59.3926 -27.4424 -71.5781c-12.1348 -12.1338 -31.8984 -12.1338 -44.084 0zM275.047 161.126h113.715v-73.1133h-265.472v73.1133h122.572v112.385h29.1846v-112.385zM172.391 -61.4404l-29.1846 124.468h225.639l-29.1836 -124.468h-167.271z" />
    <glyph glyph-name="uniE795" unicode="&#xe795;" 
d="M509.44 62.8994v0l-133.581 -112.742v70.8096h-67.7891c-46.0283 0.511719 -83.3027 23.2441 -116.479 49.8682c-21.0439 17.1523 -41.1143 36.915 -60.6211 57.293h-128.41v125.542h127.079v0.871094c19.917 20.8379 40.4473 41.1133 61.9004 58.624
c33.1777 26.624 70.5029 49.3564 116.48 49.8682h67.7881v70.8096l133.633 -112.896l-133.633 -112.538v68.9668h-67.7881h-0.358398c-10.4961 0 -25.0879 -4.76172 -43.2129 -16.7422c-18.2275 -11.9297 -38.8613 -30.4639 -60.1602 -52.1729
c-5.3252 -5.3252 -10.7012 -10.8545 -16.0771 -16.5381c5.42773 -5.63184 10.752 -11.2129 16.0771 -16.5371c21.3506 -21.709 41.9844 -40.2432 60.1602 -52.1729c18.125 -11.9805 32.7168 -16.7422 43.2129 -16.7422h0.358398h67.7881v68.9658z" />
    <glyph glyph-name="uniE6C4" unicode="&#xe6c4;" 
d="M229.198 264.389l169.486 169.537c15.3516 15.3525 40.2539 15.3525 55.6055 0c15.3516 -15.3516 15.3516 -40.2529 0 -55.6045l-169.538 -169.486c-7.70117 -7.65039 -17.7646 -11.501 -27.7764 -11.501c-10.0635 0 -20.127 3.85059 -27.7773 11.501
c-15.3516 15.3516 -15.3516 40.2529 0 55.5537zM3.13184 275.581h197.16c-7.95898 -11.4492 -12.2197 -24.9531 -12.2197 -39.1748c0 -14.1709 4.26074 -27.623 12.168 -39.0215h-197.108v78.1963v0zM424.049 -61.4404h-336.098l-48.417 214.926h432.983zM508.868 197.334
h-193.463l78.1963 78.2471h115.267v-78.2471v0z" />
    <glyph glyph-name="uniE60E" unicode="&#xe60e;" 
d="M509.288 -55.8643h0.152344h-506.881v495.729c6.08301 -274.526 230.732 -495.729 506.729 -495.729z" />
    <glyph glyph-name="uniE695" unicode="&#xe695;" 
d="M461.234 46.6387l-76.3096 177.08v-241.44h-257.952v241.44l-76.3096 -177.08l-48.1035 49.1289l120.771 285.902l61.1289 20.0518c4.25684 -10.8213 11.1797 -20.1025 19.6924 -27.2832c13.9492 -11.8457 32.2578 -18.4609 51.8477 -18.5127
c19.5391 0 37.8467 6.66699 51.9492 18.5127c8.46191 7.12891 15.3857 16.4111 19.6416 27.2314l61.1289 -20.0508l120.721 -285.902l-48.2061 -49.0781v0z" />
    <glyph glyph-name="uniE624" unicode="&#xe624;" 
d="M288.461 318.72v-94.2588h94.2588v-63.8975h-94.2588v-95.2832h-63.8975v95.2832h-95.2832v63.8975h95.2832v94.2588h63.8975zM446.566 445.44c35.0205 0 62.874 -27.8535 62.874 -62.874v-380.16c0 -34.9697 -27.9043 -63.8467 -62.874 -63.8467h-380.16
c-34.9697 0 -63.8467 28.877 -63.8467 63.8467v380.16c0 35.0205 28.877 62.874 63.8467 62.874h380.16v0zM458.752 40.3457v304.128c0 28.0068 -22.2715 50.2783 -50.2783 50.2783h-304.128c-28.0068 0 -51.0977 -22.2715 -51.0977 -50.2783v-304.128
c0 -28.0068 23.0908 -51.0977 51.0977 -51.0977h304.128c28.0068 0 50.2783 23.0908 50.2783 51.0977v0z" />
    <glyph glyph-name="uniE669" unicode="&#xe669;" 
d="M440.816 445.414l68.624 -68.5723l-58.4141 -58.3125l-68.624 68.5732zM166.017 95.7949v0l223.04 222.734l30.9844 -30.9854l-292.526 -292.17l-0.558594 -0.558594l-0.203125 0.203125l-124.193 -56.4326l55.9766 124.599l-0.203125 0.203125l293.085 292.729
l18.9971 -18.9971l-222.988 -222.734zM120.201 26.8662l27.3262 27.2773l-25.8037 3.70801l-3.91113 26.0068l-27.3271 -27.2764l-24.4326 -54.3506z" />
    <glyph glyph-name="uniE615" unicode="&#xe615;" 
d="M310.579 199.936c109.363 -106.035 198.861 -237.158 198.861 -237.158h-506.881v185.805c0 159.847 7.62891 189.85 54.5801 214.989c47.9736 25.7021 78.5918 5.8877 253.439 -163.636v0z" />
    <glyph glyph-name="uniE7B1" unicode="&#xe7b1;" 
d="M417.741 428.441l91.6992 -128.665l-253.44 -344.218l-253.44 344.218l91.751 128.665h313.344h10.0869zM215.193 319.539h81.6133l-40.8066 54.2725zM304.333 280.423h-96.5635l48.2812 -200.858zM293.427 389.273l38.708 -51.5068l38.7578 51.5068h-77.4658z
M179.968 337.767l38.707 51.4561h-77.4648zM144.64 319.539l-41.0107 54.5283l-38.9121 -54.5283h79.9229zM167.526 280.423h-102.093l151.552 -205.824zM344.576 280.423l-49.4082 -205.671l151.348 205.671h-101.939zM367.411 319.539h79.8721l-38.8604 54.5283z" />
    <glyph glyph-name="uniE755" unicode="&#xe755;" 
d="M256 445.44c139.98 0 253.44 -113.46 253.44 -253.44s-113.46 -253.44 -253.44 -253.44s-253.44 113.46 -253.44 253.44s113.46 253.44 253.44 253.44zM265.011 126.566c36.8643 9.88184 93.5938 74.9053 93.6963 138.291c0 60.877 -45.9775 110.233 -102.656 110.233
c-56.6777 0 -102.604 -49.3564 -102.604 -110.233c0 -63.1807 57.2422 -128.973 94.1055 -138.444c-9.16504 -7.16797 -26.5723 -24.0645 -26.5723 -48.8965c0 -6.14355 0.358398 -11.8271 0.665039 -16.793c1.22949 -19.6611 1.79199 -29.543 -17.9707 -40.8066
c-2.81641 -1.63867 -3.78906 -5.27344 -2.20215 -8.08984c1.0752 -1.89453 3.07227 -2.96973 5.12012 -2.96973c0.972656 0 1.99707 0.255859 2.91895 0.768555c26.1631 14.9502 25.1904 31.2314 23.9102 51.8145c-0.307617 5.06836 -0.614258 10.291 -0.614258 16.0762
c0 21.6064 17.6641 36.4033 24.0127 41.0625l0.972656 -5.01758c0.819336 -4.25 2.20117 -11.2129 3.02051 -15.4619l2.35547 -12.1855c0.819336 -4.25 4.25 -5.47852 7.57715 -2.71387l4.6084 3.78906c3.37891 2.76465 8.85742 7.26953 12.1855 10.0352l4.6084 3.78809
c3.32812 2.76465 3.07129 6.91211 -0.614258 9.21582l-8.80664 5.47852c-3.63574 2.30469 -9.67676 6.04199 -13.3633 8.3457z" />
    <glyph glyph-name="uniE7BD" unicode="&#xe7bd;" 
d="M502.528 202.599c10.0859 -10.0869 9.01074 -21.709 -2.45801 -30.208c-42.4443 -31.4883 -88.166 -56.832 -139.06 -71.834c-33.9453 -9.9834 -68.71 -15.3086 -91.9033 -15.3594c-104.346 0.255859 -184.729 33.0752 -257.434 87.4492
c-10.1895 7.62891 -12.3906 19.4043 -3.73828 28.0059c39.5781 39.4756 82.0742 74.8037 136.961 91.4434c36.0439 10.9062 70.9629 8.39746 104.806 -8.5498c3.07227 -1.53613 7.9873 -2.66309 10.5986 -1.28027c50.2275 26.624 98.8672 18.4834 146.688 -6.40039
c36.0957 -18.79 66.8672 -44.748 95.5391 -73.2666zM383.949 189.85c5.99023 0.921875 6.60449 2.20117 1.2793 3.27637c-15.001 3.1748 -31.1289 6.04199 -50.0732 8.08984c-25.0371 2.76465 -50.5859 3.63574 -76.9023 0.716797
c-1.38281 -0.15332 -3.99414 0 -5.58105 0.15332c-17.7148 1.84375 -36.0449 2.09961 -54.9375 0.921875c-28.7744 -1.84277 -51.0459 -5.73438 -71.7822 -10.0859c-4.55664 -0.921875 -3.43066 -2.25293 1.94531 -3.07227
c38.0928 -5.99023 80.2822 -9.57422 134.963 -9.62598c12.1348 0 30.3623 0.563477 48.1797 1.69043c26.6748 1.68945 50.6367 4.4541 72.9092 7.93555z" />
    <glyph glyph-name="uniE7C6" unicode="&#xe7c6;" 
d="M309.504 -12.9531l-48.4863 -48.4873l-45.7725 45.7734c-109.159 19.0977 -192.103 114.278 -192.103 228.812c0 128.308 104.141 232.295 232.602 232.295s232.602 -103.987 232.602 -232.295c0 -109.824 -76.2881 -201.882 -178.842 -226.099z" />
    <glyph glyph-name="uniE65D" unicode="&#xe65d;" 
d="M184.448 445.44v0c78.541 0 142.233 -69.0693 142.233 -154.266c0 -74.0869 -48.1797 -135.937 -112.281 -150.784l18.585 -29.082c4.40332 -7.42383 0.819336 -13.5166 -7.88477 -13.5166h-33.4336v-159.232h-20.2236v159.232h-27.5459
c-8.7041 0 -12.2363 6.09277 -7.83301 13.5166l18.585 29.082c-64.2051 14.8994 -112.333 76.6973 -112.333 150.784c0 85.1963 63.6416 154.266 142.132 154.266zM181.684 413.338v0c-31.9492 0 -58.0098 -14.1318 -78.3359 -36.3525
c-20.4297 -22.2207 -32.8193 -57.1904 -32.8711 -90.4697h31.6934c0 25.5488 9.57422 53.0938 24.627 69.4775c15.1035 16.3848 32.5635 26.1123 54.8867 26.1123v31.2324zM353.408 334.95v0c64.2051 0 116.275 -56.4736 116.275 -126.156
c0 -60.5703 -39.373 -111.104 -91.8535 -123.29l15.1553 -25.5996c3.58398 -6.09277 0.716797 -11.6738 -6.39941 -11.6738h-26.1631v-109.671h-19.9688v109.671h-20.2236c-7.11719 0 -9.98438 5.63184 -6.40039 11.6738l15.207 25.5996
c-28.0068 6.50293 -52.1729 24.0127 -68.7617 48.0771c20.7871 11.4688 39.0654 27.0332 53.4014 46.0801c23.0908 30.6172 36.7617 69.5293 36.7617 111.564c0 14.8994 -1.89453 29.3379 -5.1709 43.2637c2.71289 0.205078 5.42676 0.460938 8.14062 0.460938z" />
    <glyph glyph-name="uniE738" unicode="&#xe738;" 
d="M408.627 364.236c0 -28.1084 -6.09277 -54.6299 -16.8955 -78.0791c5.73438 -9.52344 5.8877 -21.9141 -0.666016 -31.7959c-25.4463 -38.3994 -65.0752 -66.3545 -111.206 -73.625v-1.53613c0.0507812 -11.2646 0.716797 -16.6406 3.32812 -23.4502
c2.61133 -6.75781 8.39648 -16.4863 21.5039 -31.5898c7.01465 -8.08984 8.85742 -18.8418 5.8877 -28.3652c3.1748 -3.32812 6.55371 -6.75781 10.1885 -10.3418c23.4502 -23.5527 36.4033 -51.252 36.5059 -77.7734c0.102539 -18.585 -7.01465 -36.8125 -21.4014 -49.5615
c-14.3877 -12.749 -34.8672 -19.5586 -59.75 -19.5586h-0.154297c-28.6719 0.102539 -50.0225 15.5137 -63.5391 29.543c-2.20117 2.30371 -4.19824 4.50586 -6.04199 6.70703c-8.14062 -3.68652 -17.2031 -5.73438 -26.7256 -5.73438
c-36.1475 0 -65.4854 29.3379 -65.4854 65.4844c0 36.1475 29.3379 65.5361 65.4854 65.5361c36.1465 0 65.5361 -29.3887 65.5361 -65.5361c0 -15.8203 -5.63281 -30.4121 -15.0537 -41.7275c1.12695 -1.33105 2.35547 -2.71387 3.68652 -4.04492
c10.6504 -11.0078 25.0371 -20.6338 42.2402 -20.5312c19.8145 0.0517578 32.4609 5.27344 40.0898 12.0322c7.57715 6.80957 11.3154 15.667 11.417 27.2891c0.102539 16.333 -8.75488 37.6836 -27.8008 56.6787c-3.94238 3.94238 -7.57812 7.67969 -11.0088 11.2637
c-2.15039 -0.511719 -4.30078 -0.767578 -6.50195 -0.767578c-8.29395 0 -16.5889 3.48145 -22.4766 10.291c-15.4111 17.8174 -25.7031 32.8711 -32 48.8965c-6.34863 15.9746 -7.47559 31.4365 -7.42383 45.1582c0 1.33105 0.0507812 2.61133 0.0507812 3.8916
c-41.0107 9.88086 -76.083 36.249 -99.2764 71.3213c-6.55371 9.88184 -6.45117 22.2207 -0.716797 31.7441c-10.8545 23.501 -16.999 50.0225 -16.999 78.1309c0 25.8047 5.27344 50.2275 14.4385 72.0898l3.78906 9.16504h73.2158v-29.7988h-53.043
c-5.53027 -15.9229 -8.65332 -33.2803 -8.65332 -51.4561c0 -22.9375 4.86426 -44.5439 13.3125 -63.6416c9.4209 -0.205078 18.585 -4.8125 24.2178 -13.2607c20.5312 -30.6689 51.4561 -48.9473 85.4014 -48.9473s64.8193 18.2783 85.4014 48.9473
c5.58105 8.39648 14.7461 13.0557 24.1152 13.2607c8.44824 19.0469 13.3125 40.6533 13.3125 63.6416c0 18.1758 -3.12402 35.5332 -8.65332 51.4561h-60.6719v29.7988h80.7939l3.83984 -9.11426c9.11328 -21.9131 14.3867 -46.2842 14.3867 -72.0898zM179.559 -1.0752
c19.7119 0 35.7373 15.9746 35.7373 35.7373c0 19.7637 -16.0254 35.7383 -35.7373 35.7383s-35.7383 -15.9746 -35.7383 -35.7383c0 -19.7119 16.0264 -35.7373 35.7383 -35.7373z" />
    <glyph glyph-name="uniE62D" unicode="&#xe62d;" 
d="M2.55957 189.645v0l54.375 43.5205l123.085 -95.7959c50.2783 59.4951 162.201 177.972 316.364 271.872l13.0566 -29.9004c-141.568 -129.383 -257.536 -311.449 -294.145 -404.582z" />
    <glyph glyph-name="uniE652" unicode="&#xe652;" 
d="M71.168 403.2v0h128.256c11.2129 0 20.2754 -9.0625 20.2754 -20.2246v-2.25195c0 -5.22266 5.83691 -19.7637 13.3633 -19.9688h240.947c10.5469 0 19.0459 -7.67969 19.0459 -18.1758v0v-9.62598h-474.111v9.62598c0 10.3936 8.3457 18.8418 18.6875 19.0469
c7.52637 0.255859 13.3125 13.9258 13.3125 19.1484v2.20117c0 11.1621 9.0625 20.2246 20.2236 20.2246zM18.9443 290.765v-0.0507812h474.061v-0.358398c9.36914 -1.79199 16.4355 -9.98438 16.4355 -19.8662c0 0 -6.65625 -98.6621 -7.88477 -135.116
c-1.22949 -36.4551 -4.50586 -134.349 -4.50586 -134.349c0 -11.1621 -2.35547 -20.2246 -13.5166 -20.2246h-455.117c-11.1611 0 -13.4658 9.0625 -13.4658 20.2246c0 0 -3.27637 97.8428 -4.50586 134.349c-1.22852 36.5049 -7.88477 135.116 -7.88477 135.116
c0 9.88184 7.06641 18.0742 16.3848 19.8662v0.40918z" />
    <glyph glyph-name="uniE6F2" unicode="&#xe6f2;" 
d="M308.736 292.045c6.45117 0 11.7246 -5.27344 11.7754 -11.7246v-173.773c0 -6.45117 -5.27344 -11.7246 -11.7754 -11.7246c-6.45117 0 -11.7256 5.22266 -11.7256 11.7246v173.722c0 6.50293 5.22266 11.7764 11.7256 11.7764zM248.883 292.045
c6.45117 0 11.7256 -5.27344 11.7256 -11.7246v-173.722c0 -6.50293 -5.22266 -11.7764 -11.7256 -11.7764c-6.50195 0 -11.7754 5.27344 -11.7754 11.7764v173.67c0 6.50293 5.27344 11.7764 11.7754 11.7764zM256 445.44v0c139.93 0 253.44 -113.46 253.44 -253.44
s-113.46 -253.44 -253.44 -253.44s-253.44 113.511 -253.44 253.44s113.511 253.44 253.44 253.44zM429.619 143.872v0v99.123c-0.102539 20.8389 -16.8447 37.6318 -37.6836 37.6836h-33.8936v37.6826h-0.307617c0.205078 0.563477 0.307617 1.12695 0.307617 1.74121
c0 13.6699 -48.8447 24.7803 -109.107 24.7803c-60.3135 0 -109.107 -11.1104 -109.107 -24.7803c0 -0.563477 0.102539 -1.17773 0.255859 -1.74121h-0.255859v-249.855c0.0507812 -13.6709 48.8447 -24.7295 109.107 -24.7295s109.005 11.1104 109.107 24.7295v37.6826
h33.8936c20.8389 0.102539 37.5811 16.8447 37.6836 37.6836zM391.936 245.299v0c0.615234 -0.0507812 1.0752 -0.204102 1.63867 -0.665039c0.460938 -0.460938 0.666016 -0.972656 0.666016 -1.58691v-99.1748c0 -0.614258 -0.205078 -1.12695 -0.666016 -1.58691
c-0.511719 -0.512695 -1.02344 -0.716797 -1.63867 -0.716797h-33.8936v103.73h33.8936zM189.03 292.045c6.45117 0 11.7246 -5.27344 11.7246 -11.7764v-173.619c0 -6.50195 -5.27344 -11.7754 -11.7246 -11.7754c-6.50195 0 -11.7754 5.27344 -11.7754 11.7754v173.619
c0 6.50293 5.27344 11.7764 11.7754 11.7764z" />
    <glyph glyph-name="uniE73C" unicode="&#xe73c;" 
d="M356.864 403.661c26.9307 -26.9316 41.7275 -62.7207 41.6768 -100.813l-0.614258 -13.1064c-1.74121 -19.5586 -7.47559 -38.2471 -16.5381 -55.501c-0.511719 -0.972656 -54.1182 -97.0752 -54.1182 -157.133l-1.84375 -17.7666
c-2.86719 -11.8271 -8.9082 -17.8691 -17.9707 -17.8691h-102.963c-9.01172 0 -15.1045 5.99023 -17.9717 17.8691l-1.84277 17.7666c0 60.0576 -53.6064 156.16 -53.709 157.133c-9.47168 17.2031 -15.2061 35.8906 -16.998 55.501l-0.615234 13.1064
c0 38.0928 14.7969 73.8818 41.7793 100.813c26.9824 26.9824 62.7715 41.7793 100.864 41.7793c13.7217 0 27.2383 -1.89453 40.2432 -5.68359c22.7842 -6.75879 43.7246 -19.2002 60.6211 -36.0957zM361.728 292.25l0.563477 11.417
c-0.205078 28.0576 -11.2129 54.4258 -31.0781 74.291c-12.5957 12.5957 -28.2109 21.9141 -45.21 26.9316c-9.52246 2.81641 -19.6602 4.25 -29.9521 4.25c-28.416 0 -55.0908 -11.1113 -75.1611 -31.1816c-19.917 -19.8652 -30.9248 -46.2842 -31.1299 -74.3936
l0.512695 -11.3145c1.43359 -14.3359 5.63184 -27.9561 12.5947 -40.5508l3.5332 -6.45117l0.0507812 -0.563477c24.9854 -48.3838 53.8115 -114.995 54.5791 -165.632l0.15332 -1.38281h16.6914v66.2529h36.3008v-66.2012h16.6914l0.15332 1.38184
c1.02441 67.585 52.7363 162.151 58.4707 172.391c6.75879 13.0049 10.8545 26.6758 12.2363 40.7559zM198.042 -19.6094v36.3008h115.916v-36.3008h-115.916zM223.232 -61.4404v20.5312h65.5352v-20.5312h-65.5352z" />
    <glyph glyph-name="uniE6F3" unicode="&#xe6f3;" 
d="M256 445.44c139.949 0 253.44 -113.44 253.44 -253.44s-113.44 -253.44 -253.44 -253.44s-253.44 113.491 -253.44 253.44s113.491 253.44 253.44 253.44zM86.2979 246.997c-8.51562 -7.95801 -6.13281 -16.1191 5.32227 -18.1982l21.542 -3.80176
c11.5068 -2.02637 20.8838 -3.7002 20.8838 -3.7002s8.87012 -3.69922 19.6152 -8.16016l19.1602 -7.95801l64.4746 26.7637l-64.9307 26.9658c-10.7461 4.46094 -25.9023 15.2578 -33.6572 23.9756l-9.83301 11.0498c-7.75488 8.71875 -16.3223 6.58984 -19.0078 -4.76465
l-1.26758 -5.37305c-2.73828 -11.3545 -11.9121 -27.1182 -20.4785 -35.0762l-1.82422 -1.72363zM172.568 136.345l184.858 76.6904c10.7461 4.46094 29.0957 7.55371 40.7539 6.89453l14.75 -0.862305c11.6582 -0.65918 16.1689 6.89355 10.0361 16.8281l-2.93945 4.71387
c-6.08203 9.93555 -10.7969 27.5742 -10.3906 39.2334l0.100586 2.53418c0.40625 11.6582 -7.09668 15.7129 -16.626 9.02246l-17.9434 -12.5713c-9.53027 -6.69043 -17.335 -12.165 -17.335 -12.165s-8.82031 -3.64941 -19.5654 -8.11035l-184.961 -76.6904
c-10.7461 -4.46094 -29.0947 -7.55371 -40.7529 -6.89453l-14.75 0.862305c-11.6582 0.65918 -16.1699 -6.89355 -10.0371 -16.8281l2.93945 -4.71387c6.13379 -9.93555 10.7969 -27.5752 10.3916 -39.2334l-0.101562 -2.53418
c-0.405273 -11.6572 7.09668 -15.7129 16.626 -9.02246l17.9434 12.5713c9.5293 6.69043 17.3867 12.165 17.3867 12.165s8.81934 3.64941 19.6152 8.11035h0.000976562zM424.688 148.257c8.51562 7.95801 6.13281 16.1191 -5.42383 18.249l-21.543 3.80078
c-11.4551 2.02734 -20.8828 3.7002 -20.8828 3.7002s-8.82031 3.65039 -19.5654 8.11035l-18.8047 7.80566l-64.4746 -26.7637l64.5762 -26.8652c10.7969 -4.45996 25.9531 -15.2568 33.707 -23.9746l9.83398 -11.0508c7.75488 -8.76855 16.2705 -6.58887 19.0078 4.76465
l1.26758 5.42383c2.68652 11.3545 11.9121 27.1182 20.4277 35.0762l1.875 1.72363h-0.000976562z" />
    <glyph glyph-name="uniE68F" unicode="&#xe68f;" 
d="M476.982 231.164v0c17.918 0 32.3555 -14.5391 32.458 -32.4062v-145.086h-32.2539v-41.6221c0 -24.3682 -19.8125 -44.1299 -44.1299 -44.1299c-24.4199 0 -44.1299 19.8125 -44.1299 44.1299v41.6221h-267.441v-41.6221
c0 -24.4199 -19.8125 -44.1299 -44.1299 -44.1299c-24.4199 0 -44.1299 19.7617 -44.1299 44.1299v41.6221h-30.666v145.137c0 17.8672 14.4893 32.3555 32.3555 32.3555h10.1885l42.1836 134.182l0.460938 1.0752c6.45117 15.1533 17.458 26.7754 30.2051 35.376
c12.9004 8.44629 27.7988 14.1299 44.2832 14.2832h182.612c16.5869 -0.15332 31.4854 -5.83691 44.2832 -14.2832c12.748 -8.60059 23.7031 -20.2227 30.1543 -35.376l0.460938 -1.0752l42.1836 -134.182h15.0518zM77.3555 110.242
c20.1709 0 36.5537 16.2793 36.5537 36.502c0 20.2217 -16.3828 36.5527 -36.5537 36.5527s-36.6045 -16.2803 -36.6045 -36.502s16.4336 -36.5527 36.6045 -36.5527zM97.5771 231.164v-0.0517578h311.88l-36.7578 116.878
c-1.74121 3.58398 -5.93848 8.60156 -11.3652 12.082c-5.78516 3.94238 -12.5947 5.93945 -16.4854 5.83691h-182.611c-3.89062 0.15332 -10.7002 -1.84375 -16.4854 -5.83691c-5.42676 -3.53223 -9.67578 -8.49805 -11.3652 -12.082zM433.058 110.242
c20.1709 0 36.6045 16.3818 36.6045 36.5527s-16.4336 36.5537 -36.6045 36.5537c-20.2227 0 -36.5537 -16.332 -36.5537 -36.5537s16.3828 -36.5527 36.5537 -36.5527z" />
    <glyph glyph-name="uniE607" unicode="&#xe607;" 
d="M78.7969 402.113v0l430.644 10.8252v-377.749l-90.0391 -2.97461v-61.1543l-341.22 48.8926c-13.9551 0.102539 -27.0879 2.51367 -38.6318 6.92578c-11.748 4.51465 -22.0605 11.1328 -29.1914 20.624c-4.7207 6.31055 -7.79883 14.1084 -7.79883 22.3682v282.324
c0 8.25977 3.07812 16.0576 7.79883 22.3164c4.71973 6.3623 10.9785 11.3896 18.0078 15.3916c14.0566 7.90039 31.4482 12.1074 50.4307 12.21zM479.94 74.4375v0h0.0517578v308.335l-400.682 -15.6484h-0.205078c-9.33691 0 -17.8535 -1.69238 -24.2666 -4.15527
c-6.51562 -2.46191 -10.6201 -5.74512 -12.1592 -7.90039c-1.02637 -1.43652 -1.12891 -2.20605 -1.17969 -2.87305c0 -0.666016 0.102539 -1.38477 1.17969 -2.87305c1.07812 -1.43652 3.18164 -3.38574 6.46484 -5.23242
c6.56641 -3.74512 17.5459 -18.4697 29.9609 -18.418l0.821289 -0.923828l339.476 -45.0967v-212.396z" />
    <glyph glyph-name="uniE65A" unicode="&#xe65a;" 
d="M256 328.166v0l253.44 -82.0732l-94.9248 -30.7715c-9.98438 20.9414 -57.9072 35.3799 -143.002 42.9062c-4.55664 0.40918 -8.49902 -3.68652 -8.85742 -9.11426c-0.358398 -5.42676 3.07129 -10.1377 7.62891 -10.5469
c99.2256 -8.75488 133.171 -28.877 133.171 -39.0654v-64.9219c0 -21.9648 -66.0479 -39.834 -147.456 -39.834s-147.405 17.8184 -147.405 39.834v77.21l-35.0205 11.3145v-62.7197c9.7793 -2.86719 16.9473 -12.083 16.9473 -23.0908
c0 -8.55078 -4.24902 -15.9746 -10.7012 -20.2754c4.19922 -3.68652 6.91211 -9.16504 6.91211 -15.3086v-29.3379l-39.0137 -16.5371v45.875c0 6.14355 2.71289 11.6221 6.91211 15.3086c-6.45117 4.30078 -10.7529 11.7764 -10.7529 20.2754
c0 11.0078 7.21973 20.2236 16.999 23.0908v66.8164l-58.3174 18.8926z" />
    <glyph glyph-name="uniE64B" unicode="&#xe64b;" 
d="M344.679 445.44v0c40.7051 0 73.7041 -23.8955 73.7041 -53.2744s-32.999 -53.1709 -73.7041 -53.1709c-6.31055 0 -12.4141 0.621094 -18.2578 1.70703c31.2402 0.878906 56.2734 18.9824 56.2734 41.2744c0 22.8096 -26.2227 41.3262 -58.6016 41.3262
c-22.6543 0 -42.2568 -9.05176 -52.0332 -22.3447c5.74219 25.2412 36.0518 44.4824 72.6191 44.4824zM152.581 444.457v0c36.5674 0 66.8252 -19.1885 72.6182 -44.3779c-9.77539 13.2412 -29.3779 22.3447 -52.0322 22.3447
c-32.3789 0 -58.6016 -18.5166 -58.6016 -41.3262c0 -22.293 24.9814 -40.3955 56.2734 -41.2744c-5.84473 -1.08691 -11.9473 -1.70703 -18.2578 -1.70703c-40.7051 0 -73.7041 23.792 -73.7041 53.1709c0 29.3779 32.999 53.1699 73.7041 53.1699zM255.198 396.459v0
h1.34473c28.0859 0 50.8955 -23.0684 51.6191 -51.7744h-103.29c0.672852 28.293 22.8096 51.1025 50.3262 51.7744zM56.6875 325.496v0l143.686 -0.0517578v-91.5488h-143.686c-12.0518 0 -21.8271 10.0342 -21.8271 22.4473v46.6533c0 12.4141 9.77539 22.5 21.8271 22.5z
M311.11 325.496h144.202c12.0518 0 21.8271 -10.0342 21.8271 -22.4482v-46.6533c0 -12.4131 -9.77539 -22.4473 -21.8271 -22.4473h-144.202v91.5488zM53.0146 196.552v0h147.357v-113.635l55.1367 22.1895l55.6533 -22.1895v0v113.635h147.616v-235.492
c0 -12.4141 -9.82715 -22.5 -21.8789 -22.5h-362.058c-12.0508 0 -21.8271 10.0859 -21.8271 22.5v235.492z" />
    <glyph glyph-name="uniE7B8" unicode="&#xe7b8;" 
d="M256 445.44c139.903 0 253.44 -113.416 253.44 -253.44s-113.416 -253.44 -253.44 -253.44s-253.44 113.477 -253.44 253.44s113.477 253.44 253.44 253.44zM251.446 46.1416v0v50.668h-153.392v-50.668h153.392v0zM391.11 246.334l22.835 10.9609l-10.9893 22.835
c-6.06055 12.5977 -21.2002 17.9053 -33.8223 11.8711l-87.8877 -42.3223l-96.6865 50.1133c-11.5938 7.84668 -24.7207 12.2734 -32.541 0.654297c-7.84668 -11.5879 -2.3916 -20.3662 9.2041 -28.2393l63.3945 -49.8154l-33.6455 -16.1904l-43.0781 18.5303
l-20.0156 -46.5479l53.6611 -23.1064c6.74023 -2.89355 14.4111 -2.71777 21.0244 0.451172z" />
    <glyph glyph-name="uniE73A" unicode="&#xe73a;" 
d="M254.105 339.712c13.875 1.94531 12.4414 -5.47852 18.5859 -10.2402c-14.1826 -0.358398 -17.3057 4.91504 -18.5859 10.2402zM401.05 192l108.391 -62.5156l-72.5508 -125.695l-108.288 62.5146v-125.081h-145.152v125.184l-108.39 -62.6172l-72.5 125.695
l108.391 62.6182l-108.391 62.4639l72.5 125.645l108.39 -62.6172v125.184h145.102v-125.03l108.288 62.4639l72.6016 -125.645zM244.736 382.925l0.665039 -29.8496c5.17188 1.17773 9.57422 1.74121 12.4414 1.99707
c0.716797 0.0507812 1.48535 0.102539 2.20215 0.102539c2.25293 0 4.50586 -0.358398 6.65625 -0.871094l0.614258 28.6211h-22.5791zM239.462 238.95l-1.02344 46.2852c-1.38281 2.61133 -2.09961 5.01758 -1.74121 6.86035
c1.84375 9.52344 9.67676 14.0293 19.1494 14.541h0.511719c3.1748 0 6.91211 -1.53613 10.752 -3.07227s7.78223 -3.07129 11.3662 -3.07129c2.09961 0 4.04492 0.5625 5.73438 1.94531c2.96973 2.30371 7.73145 5.78516 10.8037 7.73145
c3.07129 1.94531 0.972656 9.57422 -4.6084 16.9473c-6.29785 8.39648 -19.1484 19.6602 -30.3613 19.6602c-0.410156 0 -0.921875 0 -1.38281 -0.0507812c-12.9023 -1.17773 -27.9551 -5.5293 -38.0928 -13.875c-12.9023 -10.5986 -20.377 -26.3174 -18.9434 -43.3154
c5.83594 -28.5693 22.374 -40.0898 37.8359 -50.5859zM247.962 239.155v-0.15332l0.819336 -38.042c2.76465 1.28027 5.47754 2.45801 7.93555 3.48145c1.99707 0.870117 4.55664 1.94531 6.75879 3.02051l0.255859 12.4424l0.102539 0.15332l0.716797 33.6387
c0 0.0507812 0.0507812 0.0507812 0.0507812 0.0507812l0.870117 41.626c-0.460938 0.15332 -0.920898 0.306641 -1.38184 0.511719l-0.358398 0.102539c-2.61133 1.0752 -5.78613 2.35547 -7.32227 2.35547c-4.60742 -0.205078 -7.78223 -1.58789 -9.67676 -3.94238
l0.205078 -8.90918l0.0517578 -0.0507812zM252.774 16.4863c1.63867 1.68945 3.1748 3.22559 4.70996 4.71094c0.716797 0.665039 1.38281 1.33105 1.99707 1.94531l0.410156 18.79c0 0.0517578 -0.0517578 0.102539 -0.0517578 0.102539l0.205078 7.37305v0.0507812
l0.563477 25.959c-3.02148 -0.973633 -6.55371 -2.15039 -9.0625 -3.27734l0.204102 -8.44824v-0.0507812l0.205078 -9.83008v-0.0517578zM258.918 0.511719c-1.0752 0.154297 -2.20117 0.460938 -3.17383 1.0752l-2.04785 1.22949
c-0.255859 0.15332 -0.410156 0.358398 -0.666016 0.511719l0.460938 -20.4805h5.06836zM277.299 34.3555c-0.5625 6.65527 -4.19824 11.3145 -8.85742 14.8477l-0.205078 -7.37305c2.25293 -2.09863 3.78906 -4.65918 4.30176 -7.93555
c2.25195 -10.3936 -6.91211 -15.6162 -14.4385 -23.9619l2.04785 -1.22852c6.04102 5.83691 18.9951 12.749 17.1514 25.6514zM282.112 129.434c-3.99414 2.81641 -7.9873 4.40332 -11.8271 5.68359l-0.358398 -16.4863c12.4414 -4.81348 9.0625 -16.333 -9.31836 -22.1191
c-8.80664 -4.30078 -21.4531 -5.47852 -28.3652 -19.2002c-2.45801 -6.75781 -0.307617 -14.0791 4.50586 -18.8926c2.25293 -2.15039 4.55664 -3.58398 6.91211 -4.70996l-0.205078 9.83008c-2.96973 2.91895 -4.0957 6.29785 -2.35547 10.291
c2.76465 5.83691 13.7734 8.5 23.4502 11.5205c8.5498 2.86719 24.8828 7.11621 26.8799 24.2178c1.33105 7.11621 -3.32812 16.332 -9.31836 19.8652zM250.419 125.03v0l0.512695 -23.3984c2.15039 0.819336 4.24902 1.58691 5.93848 2.40625
c0.358398 0.154297 0.768555 0.307617 1.17773 0.460938c1.17773 0.358398 2.25293 0.768555 3.22559 1.17773l0.255859 13.1074v0.0507812l0.358398 16.4355v0.102539l0.614258 27.9033c-5.58008 -1.79199 -10.291 -3.42969 -11.7754 -5.73438
c-0.0517578 -0.15332 -0.15332 -0.255859 -0.255859 -0.358398c-0.255859 -0.306641 -0.512695 -0.716797 -0.819336 -1.12598l0.205078 -8.3457c0 -0.0507812 0.0507812 -0.0507812 0.0507812 -0.102539zM304.896 216.269
c-0.410156 9.83105 -6.34961 17.9199 -11.3154 22.5283c-7.42383 6.80957 -14.5918 10.9053 -20.7871 14.5918l-0.716797 -33.6387c0.920898 -0.614258 1.74023 -1.17676 2.50879 -1.79199c4.35156 -4.14648 4.40332 -3.27637 1.58691 -10.0859
c-3.8916 -11.0078 -30.6689 -10.8545 -49.4082 -33.0752c-8.19141 -11.1104 -9.72754 -29.8496 1.28027 -41.1133c4.4541 -4.45508 9.2666 -7.11719 14.0283 -8.8584l-0.511719 22.6309c-2.50879 4.25 -1.74121 9.26758 2.20215 14.6436
c7.62793 11.6729 32.9727 7.11621 54.0156 31.4873c4.60742 6.24707 7.37305 13.0049 7.11719 22.6816z" />
    <glyph glyph-name="uniE6E2" unicode="&#xe6e2;" 
d="M256 445.44c139.98 0 253.44 -113.46 253.44 -253.44s-113.46 -253.44 -253.44 -253.44s-253.44 113.511 -253.44 253.44s113.46 253.44 253.44 253.44zM407.808 176.794v0l3.22559 0.0507812c0 82.6367 -64.5625 150.17 -145.971 154.88v20.6338h-18.2275v-20.6338
c-81.4082 -4.76172 -145.971 -72.2939 -145.971 -154.88h3.12305c5.27344 14.6943 19.3027 25.2412 35.8398 25.2412c16.5381 0 30.5664 -10.5469 35.8398 -25.2412h5.68359c5.27344 14.6943 19.3018 25.2412 35.8398 25.2412c12.0322 0 22.7842 -5.68262 29.7471 -14.4375
v-105.318c0 -18.2793 14.7969 -33.0244 33.0244 -33.0244c18.2266 0 33.0234 14.7969 33.0234 33.0244c0 4.91504 -3.94238 8.85742 -8.85742 8.85742c-4.86426 0 -8.85742 -3.94238 -8.85742 -8.85742c0 -8.39746 -6.80957 -15.207 -15.2061 -15.207
c-8.3457 0 -15.207 6.80957 -15.207 15.207v105.267c6.91211 8.75488 17.6641 14.4385 29.7471 14.4385c16.5381 0 30.5664 -10.5469 35.8398 -25.2412h5.68359c5.27344 14.6943 19.3027 25.2412 35.8398 25.2412c16.5381 0 30.5664 -10.5469 35.8398 -25.2412z" />
    <glyph glyph-name="uniE66E" unicode="&#xe66e;" 
d="M83.0469 296.448h277.146v-63.8975h-277.146v63.8975zM39.834 -16.7939l469.606 -0.460938v-35.9424h-506.266l-0.615234 490.343h37.2744v-453.939zM83.0469 403.098h191.897v-63.8975h-191.897v63.8975zM83.0469 83.3027h362.394v-64h-362.394v64zM83.0469 189.85
h191.897v-63.8975h-191.897v63.8975z" />
    <glyph glyph-name="uniE703" unicode="&#xe703;" 
d="M256 445.44v0c139.949 0 253.44 -113.44 253.44 -253.44s-113.44 -253.44 -253.44 -253.44s-253.44 113.491 -253.44 253.44s113.491 253.44 253.44 253.44zM123.299 127.627l-0.000976562 0.00195312c4.76465 13.8379 17.335 18.1973 27.4727 21.5928
c2.53516 0.911133 4.96777 1.72266 7.19824 2.68652c4.86621 2.07812 9.98535 4.25781 15.1562 6.4873c7.55176 3.24414 15.4092 6.59082 22.7588 9.63086c-0.40625 0.760742 -0.709961 1.52051 -1.01367 2.12891c-1.62207 0.253906 -3.24414 0.456055 -4.86621 0.709961
c0.25293 5.32227 3.54785 5.62598 4.86621 9.68164c1.11523 3.59863 0.101562 8.2627 1.92676 11.6074c1.26758 2.33105 4.10547 2.33105 5.52441 4.30859c1.2666 1.82422 2.12891 4.9668 2.53418 7.14648c0.203125 1.16602 0.40625 2.4834 0.557617 3.85156
c-7.7041 7.09668 -8.66699 20.8838 -9.32617 30.3115c-0.101562 1.16602 -0.152344 2.23047 -0.253906 3.14258c-0.404297 4.30859 1.36914 7.55273 2.43359 9.47949c0.203125 0.354492 0.456055 0.861328 0.608398 1.16504
c-0.912109 4.30957 -1.57129 8.46582 -1.97656 12.4199l-5.52539 0.962891l-3.49707 3.24414c-14.0918 8.66699 -29.1963 2.58496 -37.3066 -0.709961c-11.6582 -3.80176 -19.0586 -20.2754 -13.8887 -44.707c0.861328 -4.15625 -2.28125 -6.03125 -2.07812 -8.3125
c0.456055 -4.9668 0.557617 -16.9297 5.27148 -19.8691c0.456055 -0.253906 3.75098 -1.06543 3.75098 -0.862305c0.456055 -4.86621 0.912109 -9.68164 1.36816 -14.5479c1.16602 -3.19336 4.00488 -3.54785 4.81543 -8.10938l-3.59863 -0.862305
c-1.62109 -3.44727 -4.5625 -10.3906 -7.60254 -12.4697c-2.53516 -0.709961 -5.06934 -1.36914 -7.60352 -2.07812c-8.87109 -3.65039 -18.7549 -8.00977 -27.6758 -11.7607c-8.11035 -3.39551 -17.8428 -4.6123 -20.7822 -13.1279
c0 -5.77832 -0.557617 -19.4639 -0.405273 -27.0166h40.1953c0.0507812 2.4834 0.101562 4.9668 0.152344 7.34961c0.151367 5.27051 0.25293 10.1875 0.25293 13.2793v1.67383zM380.136 86.6709v0c0.202148 10.5938 -0.557617 29.7529 -0.457031 37.7637
c-4.10547 11.9111 -17.7412 13.6348 -29.1455 18.4502c-12.4697 5.27148 -26.3574 11.4053 -38.8271 16.5244c-3.59863 0.962891 -7.14648 1.92578 -10.6953 2.88965c-4.25781 2.93945 -8.41406 12.6719 -10.6953 17.4873
c-2.23047 0.303711 -4.51172 0.658203 -6.79199 0.962891c0.354492 7.4502 4.96777 7.85547 6.79199 13.584c1.57129 5.06836 0.152344 11.6074 2.68652 16.2705c1.77246 3.24414 5.77734 3.24414 7.75488 6.03223c1.77344 2.4834 2.99023 6.89355 3.54785 9.98535
c1.01465 5.62598 1.92578 13.3809 -0.760742 18.957c-1.51953 3.24414 -2.5332 3.54785 -2.93945 7.45117c-0.506836 4.76465 1.36914 20.1738 1.4707 23.5186c0.151367 8.66797 -0.0507812 16.5244 -2.12891 24.9385c0 0 -2.53516 7.6543 -6.53906 9.93555
l-7.95801 1.36816l-4.91699 4.56152c-19.7686 12.165 -41.0059 3.65039 -52.3604 -0.962891c-16.3721 -5.32227 -26.7637 -28.4863 -19.5146 -62.752c1.2666 -5.8291 -3.19336 -8.46484 -2.88965 -11.6582c0.608398 -6.94434 0.760742 -23.7217 7.34961 -27.8779
c0.608398 -0.354492 5.32227 -1.52051 5.27148 -1.2168c0.609375 -6.79297 1.26758 -13.584 1.92676 -20.376c1.62207 -4.51074 5.57617 -5.01758 6.74219 -11.4053l-5.06934 -1.2168c-2.28125 -4.86523 -6.4375 -14.5479 -10.6953 -17.4873
c-3.54785 -0.961914 -7.14648 -1.92578 -10.6953 -2.88867c-12.4688 -5.12012 -26.3066 -11.2529 -38.8262 -16.5244c-11.4053 -4.81543 -25.04 -6.53809 -29.1465 -18.4502c0 -8.11035 -0.759766 -27.2197 -0.557617 -37.8643h248.068zM429.859 103.803
l0.00195312 0.000976562c0.151367 7.55176 -0.40625 21.2383 -0.507812 27.0674c-2.93945 8.46484 -12.6719 9.68164 -20.7812 13.1279c-8.92188 3.75098 -18.8057 8.11035 -27.6768 11.7598c-2.53418 0.710938 -5.06836 1.36914 -7.60254 2.0791
c-3.04199 2.07812 -5.98242 9.02246 -7.60449 12.4688c-1.62207 0.253906 -3.24414 0.457031 -4.86523 0.709961c0.25293 5.32227 3.54785 5.62695 4.86523 9.68164c1.11621 3.59863 0.102539 8.2627 1.92676 11.6074c1.26758 2.33203 4.10645 2.33203 5.52539 4.30859
c1.2666 1.82422 2.12891 4.9668 2.53418 7.14648c0.709961 4.05566 1.36914 9.5293 -0.557617 13.5342c-1.06445 2.28125 -1.77441 2.48438 -2.07812 5.27148c-0.355469 3.3457 1.01367 14.3447 1.06445 16.7266c0.100586 6.13281 -0.0517578 11.709 -1.52148 17.7412
c0 0 -1.8252 5.47363 -4.66309 7.0957l-5.67773 0.962891l-3.49707 3.24414c-14.0918 8.66699 -29.1963 2.58496 -37.3066 -0.708984c-4.51172 -1.4707 -8.36426 -4.86621 -11.1006 -9.83398c-0.101562 -1.67285 -0.101562 -2.99023 -0.0507812 -3.7002
c0.0507812 -0.354492 0.100586 -0.557617 0.100586 -0.65918c0.101562 -0.202148 0.203125 -0.354492 0.304688 -0.557617c0.405273 -0.708984 0.962891 -1.67188 1.62207 -2.99023c3.95312 -8.26172 2.78809 -18.248 1.57129 -24.9893
c-0.608398 -3.3457 -2.12891 -9.58008 -5.27148 -13.9902c-0.811523 -1.11426 -1.72363 -2.07812 -2.63574 -2.83789c0.506836 -5.27246 1.62207 -11.3545 4.76465 -13.3311c0.456055 -0.253906 3.75098 -1.06543 3.75098 -0.862305
c0.456055 -4.86621 0.912109 -9.68164 1.36816 -14.5479c1.16602 -3.19336 4.00488 -3.54785 4.81543 -8.10938l-3.59863 -0.862305c-0.25293 -0.609375 -0.607422 -1.31836 -0.962891 -2.0791c7.40039 -3.09082 15.2568 -6.4375 22.9111 -9.73242
c5.16992 -2.23047 10.29 -4.40918 15.2061 -6.4873c2.23145 -0.962891 4.66406 -1.82422 7.19824 -2.68652c10.1377 -3.49707 22.709 -7.85645 27.4736 -21.6943l0.557617 -1.57129v-1.67285c0 -3.0918 0.151367 -8.05957 0.25293 -13.2803
c0.0507812 -2.38184 0.101562 -4.86523 0.152344 -7.34961h39.9922z" />
    <glyph glyph-name="uniE69B" unicode="&#xe69b;" 
d="M9.9873 263.744l2.66406 2.51074c12.4521 11.5293 25.8262 34.5371 29.7715 51.0381l1.89648 7.83984c3.89453 16.5 16.3457 19.625 27.6191 6.96875l14.2451 -16.0391c11.2734 -12.6562 33.3076 -28.3877 48.9873 -34.8955l94.4395 -39.252l-93.7734 -38.8926
l-27.876 11.5811c-15.6279 6.50781 -28.4902 11.8369 -28.4902 11.8369s-13.6816 2.40918 -30.3359 5.38086l-31.3594 5.53418c-16.7041 2.97168 -20.1885 14.8086 -7.78809 26.3887zM135.428 102.845c-15.7314 -6.50781 -28.542 -11.8369 -28.542 -11.8369
s-11.376 -7.99414 -25.2617 -17.7295l-26.083 -18.2422c-13.8867 -9.73633 -24.75 -3.84375 -24.1865 13.1182l0.154297 3.74023c0.563477 16.9102 -6.25195 42.6328 -15.1162 57.0322l-4.25391 6.86621c-8.91602 14.4502 -2.35645 25.416 14.5527 24.4941l21.4707 -1.23047
c16.9092 -0.973633 43.6064 3.58691 59.2871 10.0439l268.969 111.503c15.6289 6.50684 28.4912 11.7852 28.4912 11.7852s11.376 7.94238 25.2617 17.6787l26.083 18.293c13.8857 9.73633 24.75 3.84277 24.1348 -13.1182l-0.102539 -3.68945
c-0.563477 -16.9609 6.25195 -42.6328 15.1162 -57.083l4.25293 -6.86621c8.91602 -14.4502 2.35742 -25.417 -14.6035 -24.4424l-21.4697 1.22949c-16.9609 0.973633 -43.6074 -3.53613 -59.2871 -10.043l-268.867 -111.503v0zM502.013 120.216l-2.71582 -2.51074
c-12.4004 -11.5293 -25.7744 -34.5371 -29.6689 -50.9863l-1.89551 -7.83984c-3.94629 -16.5 -16.3467 -19.6777 -27.6201 -6.91797l-14.2959 15.9873c-11.2734 12.6572 -33.3076 28.3877 -48.9873 34.8965l-93.9268 39.0459l93.7734 38.8926l27.3633 -11.375
c15.6279 -6.50781 28.4395 -11.8369 28.4395 -11.8369s13.6816 -2.45996 30.3867 -5.38086l31.3594 -5.53418c16.7041 -3.02246 20.1885 -14.9111 7.78809 -26.4404v0z" />
    <glyph glyph-name="uniE6C6" unicode="&#xe6c6;" 
d="M59.1875 49.459v0c-4.91504 -4.91504 -12.9541 -4.76172 -17.9717 0.205078l-34.7646 34.7646c-5.06836 5.06934 -5.1709 13.1074 -0.307617 18.0225l241.46 232.141c4.91504 4.86426 12.9531 4.76172 18.0225 -0.306641l32.3066 -32.3076l207.975 -200.09
c4.8125 -4.86328 4.70996 -12.7998 -0.307617 -17.8174l-34.4062 -34.4062v0c-4.96582 -4.9668 -12.9531 -5.12012 -17.8682 -0.307617l-196.967 189.543z" />
    <glyph glyph-name="uniE7C0" unicode="&#xe7c0;" 
d="M134.195 116.94l-79.2061 -79.2061c-32.8711 42.752 -52.4297 96.2051 -52.4297 154.266s19.5586 111.514 52.4297 154.266l79.2061 -79.2061c-13.5166 -21.8623 -21.4531 -47.5137 -21.4531 -75.0596s7.93652 -53.1973 21.4531 -75.0596zM256 335.258
c-27.5459 0 -53.1973 -7.93652 -75.0596 -21.4531l-79.2061 79.2061c42.7012 32.8711 96.2051 52.4297 154.266 52.4297s111.514 -19.5586 154.266 -52.4297l-79.2061 -79.2061c-21.8623 13.5166 -47.5137 21.4531 -75.0596 21.4531zM256 48.7422
c27.5459 0 53.1973 7.93652 75.0596 21.4531l79.2061 -79.2061c-42.752 -32.8711 -96.2051 -52.4297 -154.266 -52.4297s-111.514 19.5586 -154.266 52.4297l79.2061 79.2061c21.8623 -13.5166 47.5137 -21.4531 75.0596 -21.4531zM377.805 267.06l79.2061 79.2061
c32.8711 -42.752 52.4297 -96.2051 52.4297 -154.266s-19.5586 -111.564 -52.4297 -154.266l-79.2061 79.2061c13.5166 21.8623 21.4531 47.5137 21.4531 75.0596s-7.93652 53.1973 -21.4531 75.0596z" />
    <glyph glyph-name="uniE7D0" unicode="&#xe7d0;" 
d="M367.82 366.541l-182.783 -70.1445h-83.5078l207.104 149.044zM423.526 296.396h-200.857l177.254 63.7441zM435.968 304.18l-0.767578 1.02344l-5.42773 14.541h47.8721c9.67676 0 23.2451 -14.9502 23.2451 -24.627l0.15332 -108.544l-15.2578 -7.62891v108.031
c0 9.67676 -6.24609 17.2041 -15.9229 17.2041h-33.8945zM485.785 54.4766l15.4629 7.68066l0.102539 -78.5928c0 -9.0625 -6.70703 -16.998 -15.5654 -17.9199v88.832zM42.9053 304.18c-3.22559 -0.921875 -5.58008 -3.94336 -5.5293 -7.47559
c0 -4.30078 3.48145 -7.78223 7.78223 -7.78223h9.57422c1.12695 -0.205078 2.45801 -0.255859 3.84082 -0.307617h395.725c9.67676 0 19.3018 -7.88477 19.3018 -17.5615v-106.035l-1.84277 -0.921875h-38.9629c-34.458 0 -62.3623 -27.8018 -62.3623 -62.208
c0 -34.3545 27.9043 -62.208 62.3623 -62.208h38.9629l1.89453 0.921875l0.0507812 -84.4287c0 -9.62598 -9.7793 -17.6133 -19.4561 -17.6133h-424.704c-9.67676 0 -19.3535 8.24316 -19.3535 17.9209v316.211c-0.358398 46.7451 11.1621 47.2061 48.7939 47.1553
l-0.358398 -0.102539h50.8926l-21.7598 -15.5645h-42.6494h-2.20215zM471.808 148.582l29.1846 23.8594l0.102539 -92.7227l-29.2871 -24.5254h-38.9629c-25.8047 0 -46.7451 20.8896 -46.7451 46.6943s20.8896 46.6943 46.7451 46.6943h38.9629zM409.446 101.939
c0 -12.9023 10.4961 -23.3477 23.3984 -23.3477s23.3984 10.4961 23.3984 23.3477c0 12.9023 -10.4961 23.3467 -23.3984 23.3467s-23.3984 -10.4961 -23.3984 -23.3467z" />
    <glyph glyph-name="uniE79C" unicode="&#xe79c;" 
d="M273.306 209.255v0.0507812h103.68v-34.5605h-103.68v-103.73h-34.5605v103.68h-103.68v34.5605h103.68v103.68h34.5605v-103.68zM256 428.186v-17.3057c-60.5186 0 -115.098 -24.4736 -154.777 -64.1025c-39.6289 -39.6797 -64.1025 -94.2588 -64.1025 -154.777
s24.4736 -115.098 64.1025 -154.777c39.6797 -39.6289 94.2588 -64.1025 154.777 -64.1025s115.098 24.4736 154.777 64.1533c39.6289 39.6797 64.1025 94.2598 64.1025 154.777c0 60.5186 -24.4736 115.098 -64.1025 154.778
c-39.6797 39.6289 -94.3105 64.1025 -154.777 64.1025v17.2539v17.2549c139.98 0 253.44 -113.46 253.44 -253.44s-113.46 -253.44 -253.44 -253.44s-253.44 113.46 -253.44 253.44s113.46 253.44 253.44 253.44v-17.2549z" />
    <glyph glyph-name="uniE72E" unicode="&#xe72e;" 
d="M256 -61.4404c-139.98 0 -253.44 113.46 -253.44 253.44c0 61.4912 21.9141 117.862 58.3682 161.741l-5.01758 5.01758l41.3701 41.3691l6.14355 -6.14355c42.4453 32.1533 95.1807 51.4561 152.576 51.4561c139.98 0 253.44 -113.46 253.44 -253.44
s-113.46 -253.44 -253.44 -253.44v0zM64.7168 192c0 -105.728 85.709 -191.437 191.437 -191.437c44.3398 0 84.9922 15.2061 117.453 40.499l-268.391 268.391c-25.293 -32.4609 -40.499 -73.1143 -40.499 -117.453zM256.153 383.437
c-40.2939 0 -77.6191 -12.4922 -108.492 -33.792l266.138 -266.138c21.248 30.8232 33.792 68.1992 33.792 108.493c0 105.728 -85.709 191.437 -191.438 191.437v0z" />
    <glyph glyph-name="uniE660" unicode="&#xe660;" 
d="M126.614 362.158v0l49.4062 -19.7627l24.5244 10.0342c1.94629 0.768555 3.94238 1.12695 5.93945 1.12695c6.65527 0 12.9023 -3.99316 15.4619 -10.5977c2.35547 -6.24707 0.716797 -13.0049 -3.63477 -17.5107l21.9131 -8.80566l21.708 8.49902
c1.99707 0.767578 3.99316 1.12598 5.99023 1.12598c6.60449 0 12.8506 -4.04395 15.4111 -10.5977c2.04785 -5.37598 1.17773 -11.1611 -1.89453 -15.5127l40.7539 -16.333c5.42773 2.15039 10.8027 4.25 16.0762 6.29785c61.7461 23.9092 105.418 33.1768 133.168 33.1768
c21.6055 0 33.5352 -5.63184 36.9141 -14.3867c7.32129 -18.9951 -20.4795 -54.834 -138.595 -100.555c-116.478 -45.0029 -286.814 -95.6387 -339.959 -95.6387c-9.21582 0 -14.8984 1.53613 -16.1787 4.86426c-1.38281 3.48145 2.20117 8.75488 9.67676 15.3594
l-20.7363 53.8604l24.4736 9.67773l37.8867 -35.0713c37.7852 22.5264 92.1572 49.918 148.732 75.8242l-145.046 102.5zM331.409 173.134v0c3.48145 -16.7939 -9.47266 -19.8145 -9.47266 -19.8135l-16.2803 -6.29785l-14.2852 -27.1865
c11.3154 -0.154297 14.4385 -9.2666 14.4385 -9.2666c3.02051 -7.7832 -1.53613 -16.7939 -10.1377 -20.1211l-26.3154 -9.31836l-20.3262 -36.8633l-58.0078 -22.4248l31.5898 115.094c36.4531 11.2129 73.8281 23.6543 108.797 36.1982zM74.8008 98.4346v0
l-4.09473 -19.2002l-24.627 -9.36914l-7.67969 23.501c9.9834 0.716797 22.2715 2.40625 36.4014 5.06836z" />
    </font>
</defs>
</svg>
