<?xml version="1.0" standalone="no"?>
<!DOCTYPE svg PUBLIC "-//W3C//DTD SVG 1.1//EN" "http://www.w3.org/Graphics/SVG/1.1/DTD/svg11.dtd" >
<svg xmlns="http://www.w3.org/2000/svg">
<metadata>
<json>
{
	"fontFamily": "MenIcon",
	"license": "Meniga ehf.",
	"licenseURL": "",
	"fontURL": "http://www.meniga.com",
	"designer": "Meniga ehf.",
	"majorVersion": 1,
	"minorVersion": 0,
	"version": "Version 1.0",
	"fontId": "MenIcon",
	"psName": "MenIcon",
	"subFamily": "Regular",
	"fullName": "MenIcon",
	"description": "Font generated by IcoMoon."
}
</json>
</metadata>
<defs>
<font id="MenIcon" horiz-adv-x="1024">
<font-face units-per-em="1024" ascent="960" descent="-64" />
<missing-glyph horiz-adv-x="1024" />
<glyph unicode="&#x20;" d="" horiz-adv-x="512" />
<glyph unicode="&#xe600;" d="M216.715 127.436c-118.242 114.651-214.981 256.386-214.981 256.386s338.952 0 547.929 0v-200.854c0-172.822-8.231-205.261-58.983-232.422-51.849-27.75-84.98-6.36-273.963 176.89z" horiz-adv-x="560" />
<glyph unicode="&#xe601;" d="M340.958 133.345c118.242 114.651 214.981 256.386 214.981 256.386s-338.951 0-547.929 0v-200.853c0-172.822 8.231-205.261 58.983-232.422 51.849-27.75 84.98-6.36 273.963 176.89z" horiz-adv-x="560" />
<glyph unicode="&#xe602;" d="M629.106 40.323l-300.177 298.301 300.177 295.157v-593.458z" />
<glyph unicode="&#xe603;" d="M391.184 644.801l300.177-298.301-300.177-295.156z" />
<glyph unicode="&#xe604;" d="M167.218-73.765l360.765 362.641 364.789-362.641h-725.554z" />
<glyph unicode="&#xe605;" d="M861.955 402.324l-360.765-362.641-364.789 362.641h725.554z" />
<glyph unicode="&#xe606;" d="M298.621-58.931c0 248.528 201.472 450 450 450 0.127 0 0.253-0.002 0.379-0.002l0.681 49.933c-310.957 0-500.060-226.441-500.060-499.931 0-0.357 0.006-0.712 0.007-1.069h49c-0.001 0.357-0.007 0.712-0.007 1.069z" />
<glyph unicode="&#xe607;" d="M158.31 867.43c-37.888-0.205-72.602-8.602-100.659-24.371-14.029-7.987-26.522-18.022-35.942-30.72-9.421-12.493-15.565-28.058-15.565-44.544v-563.507c0-16.486 6.144-32.051 15.565-44.646 14.234-18.944 34.816-32.154 58.266-41.165 23.040-8.806 49.254-13.619 77.107-13.824l681.062-97.587v122.061l179.712 5.939v753.971l-859.546-21.606zM958.976 213.402l-120.832-14.336v423.936l-677.581 90.010-1.638 1.843c-24.781-0.102-46.694 29.286-59.802 36.762-6.554 3.686-10.752 7.578-12.902 10.445-2.15 2.97-2.355 4.403-2.355 5.734 0.102 1.331 0.307 2.867 2.355 5.734 3.072 4.301 11.264 10.854 24.269 15.77 12.8 4.915 29.798 8.294 48.435 8.294h0.41l799.744 31.232v-615.424z" />
<glyph unicode="&#xe608;" d="M512 954.88c-279.962 0-506.88-226.918-506.88-506.88s226.918-506.88 506.88-506.88 506.88 226.918 506.88 506.88c0 279.962-226.918 506.88-506.88 506.88zM264.909 533.299l-0.307 84.378h306.893v101.069l182.374-141.926-182.374-141.926v98.406h-306.586zM449.741 264.602v-101.069l-182.374 141.926 182.374 141.926v-98.406h306.586l0.307-84.378h-306.893zM264.909 533.299v0l-0.307 84.378z" />
<glyph unicode="&#xe609;" d="M588.288 798.106l15.77 15.667h283.341v76.698l-69.325 69.12h-261.12l-489.779-485.786 96.768-96.563 424.346 420.864zM887.501 760.013h-261.12l-489.882-485.786 338.842-337.818 481.485 480.051v274.432l-69.325 69.12zM868.454 573.338c-27.341-27.238-71.578-27.238-98.918 0s-27.341 71.373 0 98.611c27.341 27.238 71.578 27.238 98.918 0s27.341-71.373 0-98.611z" />
<glyph unicode="&#xe60a;" d="M191.281 491.25l-186.5-171.875 115.156-0.438c-8.909-98.654 25.401-207.608 103.531-283.313 140.168-135.737 366.609-136.068 506.031-1.031l-101.063 97.813c-83.914-81.256-220.744-81.019-305.031 0.656-50.47 48.837-70.608 123.25-60.813 186.688l116.094 0.313-187.406 171.188z" />
<glyph unicode="&#xe60b;" d="M512.344 690.469c-91.564 0.187-183.016-33.489-252.75-101.031l101-97.813c83.914 81.256 220.666 81.019 305-0.656 50.47-48.837 70.639-123.219 60.844-186.656l-116.094-0.375 187.438-171.188 186.5 173.313-115.156-0.938c8.909 98.654-25.386 207.623-103.563 283.281-70.061 67.868-161.701 101.923-253.219 102.063z" />
<glyph unicode="&#xe60c;" d="M196-71.862c0 272.275 218.081 493.713 488.879 499.862h-488.879v-500c0 0.046 0 0.092 0 0.138z" />
<glyph unicode="&#xe60d;" d="M191.578 416.44c272.275 0 493.422-217.642 499.422-488.44v488.44h-499.56c0.046 0 0.092 0 0.138 0z" />
<glyph unicode="&#xe60e;" d="M689.862-56c-272.275 0-493.862 218.202-499.862 489v-489h500c-0.046 0-0.092 0-0.138 0z" />
<glyph unicode="&#xe60f;" d="M702 427.862c0-272.275-218.202-493.862-489-499.862h489v500c0-0.046 0-0.092 0-0.138z" />
<glyph unicode="&#xe610;" d="M444.438 903.313l-5.063-15.625-38.563-118.125-76.094-31.5-128.25 60.563-78-78.031 63.688-125.438-31.5-76.063-133.563-47.813v-110.375l133.75-43.656 31.5-76.094-60.563-128.188 78-78.063 14.625 7.438 110.813 56.219 76.094-31.5 47.813-133.5h110.344l5.094 15.594 37.094 113.625c-8.349 21.851-12.906 45.542-12.906 70.313 0 108.819 88.187 197.031 197 197.031 23.976 0 46.963-4.274 68.219-12.125l132.875 47.594v110.344l-133.719 43.625-31.531 76.125 60.594 128.219-78.063 78.031-125.406-63.688-76.094 31.531-47.844 133.531h-110.344zM501.969 572.969c85.341 0 154.531-69.181 154.531-154.531s-69.189-154.531-154.531-154.531c-85.342 0-154.531 69.181-154.531 154.531s69.191 154.531 154.531 154.531zM787.125 307.25c-95.436 0-172.813-77.327-172.813-172.781 0-95.436 77.376-172.781 172.813-172.781 95.431 0 172.781 77.347 172.781 172.781 0 95.455-77.349 172.781-172.781 172.781zM759.719 244.063h54.813v-82.156h82.156v-54.844h-82.156v-82.156h-54.813v82.156h-82.156v54.844h82.156v82.156z" />
<glyph unicode="&#xe611;" d="M753.447 842.166c-242.736 0-439.511-196.775-439.511-439.511s196.775-439.511 439.511-439.511 439.511 196.775 439.511 439.511-196.775 439.511-439.511 439.511zM753.808 81.926c-48.231 0-87.331 39.098-87.331 87.331 0 48.231 39.098 87.331 87.331 87.331s87.331-39.098 87.331-87.331c0-48.231-39.1-87.331-87.331-87.331zM814.887 315.013h-120.257l-34.361 358.624h188.976l-34.358-358.624z" horiz-adv-x="1448" />
<glyph unicode="&#xe612;" d="M927.804 655.294c-39.69 0.014-78.558-5.069-108.903-26.925-32.908-23.703-62.886-57.022-65.115-102.778-2.996-61.417 52.61-104.653 126.68-135.219 46.506-22.341 48.092-92.891-37.507-92.311-47.454 0.327-83.35 7.511-119.004 33.721-0.712-42.629-5.228-83.534-14.917-109.172 86.307-21.541 241.767-28.416 294.857 45.722 4.541 6.339 57.338 123.265-34.479 175.32-122.21 53.381-108.938 77.581-96.413 96.847 27.883 42.875 93.050 18.953 149.050 0 4.964 29.81 14.597 61.745 19.561 91.552-32.017 6.518-74.117 23.214-113.811 23.241zM440.768 634.538c-4.972-19.874-110.033-291.615-110.033-296.589-9.226 55.343-30.017 126.781-163.749 237.466 12.329-43.677 65.087-212.945 94.905-362.849h119.22c59.617 144.071 115.81 277.893 175.426 421.966-39.749 0-76.018 0-115.758 0v0zM604.736 634.538c-24.839-139.11-49.738-282.861-74.583-421.966h114.137c19.875 144.071 44.871 277.893 64.742 421.966h-104.301zM1230.769 634.538c-13.038-0.153-38.669-3.754-89.386-123.87-4.964-19.875-109.393-268.29-119.33-298.099h112.412l23.021 63.56c44.715 0 95.262-1.511 139.976-1.511 4.964-24.839 10.815-37.199 15.781-62.043h100.957c-29.81 144.071-59.684 277.893-89.495 421.966-34.781 0.002-59.154 0.002-93.93 0.002v0zM193.25 628.922c-50.81 4.93-89.641 1.976-153.051 5.298 106.071-26.518 179.82-39.191 272.057-191.636-16.421 146.559-16.338 150.907-29.938 172.078-15.030 23.38-59.139 11.361-89.066 14.268zM1248.5 525.59c4.964-44.711 22.054-122.176 27.027-166.886h-87.008c12.219 30.39 55.021 166.886 59.983 166.886z" horiz-adv-x="1448" />
<glyph unicode="&#xe613;" d="M118.625 610.58c-28.217-0.141-54.142-6.489-75.028-18.448-10.475-6.070-19.771-13.661-26.785-23.241-7.033-9.506-11.607-21.322-11.577-33.807v-426.774c-0.029-12.498 4.544-24.305 11.577-33.819 10.61-14.333 25.985-24.307 43.433-31.181 17.171-6.675 36.698-10.326 57.497-10.49l507.675-73.882v92.507l133.943 4.51v570.946l-640.731-16.326zM715.455 115.286l-90.077-10.844v320.979l-505.082 68.144-1.217 1.366c-18.498-0.065-34.837 22.139-44.569 27.859-4.882 2.793-8.048 5.771-9.596 7.926-1.568 2.231-1.741 3.316-1.778 4.364 0.039 1.047 0.211 2.133 1.778 4.355 2.26 3.252 8.43 8.253 18.064 11.958 9.572 3.75 22.23 6.256 36.101 6.244h0.27l596.107 23.639v-465.999z" horiz-adv-x="800" />
<glyph unicode="&#xe614;" d="M125.101-76.222h598.16v632.467h-598.16v-632.467zM537.18 429.607c0 19.207 15.66 34.777 34.991 34.777 19.307 0 34.974-15.569 34.974-34.777v-366.457c0-19.202-15.664-34.794-34.974-34.794-19.332 0-34.991 15.594-34.991 34.794v366.457zM389.195 429.6c0 19.203 15.667 34.791 34.983 34.791 19.314 0 34.988-15.585 34.988-34.791v-366.448c0-19.202-15.671-34.791-34.988-34.791s-34.983 15.588-34.983 34.791v366.448zM241.216 429.6c0 19.219 15.671 34.791 34.983 34.791 19.317 0 34.983-15.571 34.983-34.791v-366.452c0-19.207-15.664-34.788-34.983-34.788-19.309 0-34.983 15.577-34.983 34.788v366.452zM752.884 794.639h-130.046v21.155c-0.007 56.379-45.937 102.043-102.626 102.057h-192.073c-56.695-0.016-102.622-45.676-102.642-102.057v-21.155h-130.020c-26.695 0-48.359-21.529-48.359-48.084v-127.363h754.123v127.363c0.001 26.558-21.648 48.084-48.354 48.084zM552.875 794.639h-257.423l-0.006 21.155c0.054 17.947 14.65 32.46 32.694 32.491h192.073c18.023-0.029 32.639-14.542 32.662-32.491v-21.155z" horiz-adv-x="832" />
<glyph unicode="&#xe615;" d="M327.68 229.888h-307.2v-76.8h307.2zM221.515 303.814c0-25.452-20.633-46.085-46.085-46.085s-46.085 20.633-46.085 46.085c0 25.452 20.633 46.085 46.085 46.085s46.085-20.633 46.085-46.085zM218.445 81.579c0-23.755-19.257-43.012-43.012-43.012s-43.012 19.257-43.012 43.012c0 23.755 19.257 43.012 43.012 43.012s43.012-19.257 43.012-43.012z" horiz-adv-x="352" />
<glyph unicode="&#xe616;" d="M314.112 229.888h-307.2v-76.8h307.2z" horiz-adv-x="320" />
<glyph unicode="&#xe617;" d="M444.919 432.080h-359.998c-33.137 0-60.481-26.385-60.481-59.526v-359.993c0-33.137 27.344-60.481 60.481-60.481h359.997c33.137 0 59.522 27.344 59.522 60.481v359.993c0 33.142-26.385 59.526-59.521 59.526zM384.44 162.32h-89.28v-90.24h-60.48v90.24h-90.24v60.48h90.24v89.28h60.48v-89.28h89.28v-60.48z" horiz-adv-x="544" />
<glyph unicode="&#xe618;" d="M8.234 352.448l171.833-411.765 48.316 19.804-171.841 411.776-48.309-19.815zM385.594 382.27c0 0-68.622-93.086-170.141 7.534v-0.183c-72.402 73.632-135.284-10.131-135.284-10.131l101.89-242.558c0 0 42.322 119.153 170.141-7.534v0.185c72.401-73.625 135.284 10.133 135.284 10.133l-101.89 242.553z" horiz-adv-x="512" />
<glyph unicode="&#xe619;" d="M27.012 627.225c13.806 34.943 33.156 65.223 58.021 90.845 24.861 25.628 54.853 45.609 89.986 59.985 35.113 14.357 74.386 21.545 117.812 21.545 56.031 0 102.802-7.573 140.303-22.71 37.475-15.141 67.674-33.977 90.576-56.485 22.884-22.534 39.264-46.793 49.145-72.801 9.854-26.026 14.797-50.283 14.797-72.79 0-37.274-4.943-67.961-14.797-92.014-9.882-24.077-22.109-44.659-36.717-61.732-14.608-17.086-30.781-31.642-48.54-43.674-17.763-12.049-34.541-24.081-50.323-36.113-15.796-12.042-29.799-25.82-42.033-41.347-12.242-15.54-19.946-34.939-23.091-58.237v-44.252h-159.837v52.407c2.367 33.376 8.881 61.327 19.537 83.859 10.656 22.509 23.087 41.728 37.296 57.658 14.205 15.9 29.185 29.696 44.99 41.347 15.782 11.646 30.378 23.293 43.807 34.939 13.412 11.642 24.274 24.458 32.564 38.434 8.287 13.977 12.022 31.449 11.248 52.415 0 35.71-8.877 62.112-26.637 79.204-17.772 17.069-42.441 25.622-74.004 25.622-21.312 0-39.67-4.078-55.059-12.234-15.393-8.156-28.025-19.040-37.887-32.613-9.876-13.59-17.168-29.513-21.903-47.751-4.732-18.26-7.102-37.856-7.102-58.819h-174.053c0.78 41.934 8.089 80.372 21.903 115.312zM381.632 127.561v-179.365h-185.893v179.365h185.893z" horiz-adv-x="608" />
<glyph unicode="&#xe61a;" d="M399.36 212.48h152.64v-147.84h-152.64v147.84zM669.234 700.554c-18.872 18.547-43.754 34.066-74.633 46.542-30.901 12.473-69.438 18.713-115.606 18.713-35.783 0-68.142-5.922-97.074-17.753-28.948-11.844-53.661-28.309-74.146-49.426-20.488-21.113-36.432-46.283-47.808-75.077-11.384-28.79-17.406-60.673-18.048-95.233h143.416c0 17.28 1.954 33.641 5.852 48.687 3.903 15.028 9.91 28.257 18.048 39.456 8.126 11.184 18.535 20.208 31.218 26.928 12.68 6.72 27.806 10.108 45.367 10.108 26.008 0 46.334-7.035 60.978-21.098 14.632-14.082 21.948-35.831 21.948-65.255 0.638-17.276-2.44-31.67-9.268-43.186-6.831-11.516-15.781-22.074-26.832-31.668-11.066-9.596-23.092-19.192-36.096-28.789-13.023-9.6-25.366-20.968-37.071-34.069-11.708-13.126-21.877-28.962-30.657-47.509-8.781-18.562-14.105-41.595-16.025-69.095v-42.752h131.52v36.032c2.88 19.196 8.956 35.181 19.043 47.986 10.080 12.794 21.627 24.148 34.642 34.069 13.004 9.914 26.833 19.828 41.469 29.756 14.632 9.914 27.96 21.907 39.997 35.986 12.037 14.068 22.115 31.027 30.255 50.866 8.12 19.821 12.193 45.106 12.193 75.817 0 18.547-4.072 38.532-12.192 59.978-8.143 21.429-21.638 41.415-40.494 59.985zM481.44 888.32c-261.12 0-472.8-211.68-472.8-472.8s211.68-472.8 472.8-472.8 472.8 211.68 472.8 472.8-211.68 472.8-472.8 472.8zM480.96 12.8c-221.621 0-401.28 179.659-401.28 401.28s179.659 401.28 401.28 401.28 401.28-179.659 401.28-401.28-179.659-401.28-401.28-401.28z" horiz-adv-x="960" />
<glyph unicode="&#xe61b;" d="M480 871.168c-259.017 0-468.992-209.975-468.992-468.992s209.975-468.992 468.992-468.992 468.992 209.975 468.992 468.992-209.975 468.992-468.992 468.992zM553.728 21.248h-162.816v157.696h162.816v-157.696zM721.971 490.722c-8.685-21.161-19.433-39.251-32.271-54.257-12.839-15.017-27.053-27.81-42.662-38.385-15.612-10.59-30.358-21.165-44.229-31.74-13.883-10.583-26.208-22.694-36.96-36.34-10.759-13.658-17.241-30.708-20.313-51.184v-38.434h-140.288v45.602c2.048 29.334 7.727 53.901 17.093 73.703 9.366 19.783 20.252 36.675 32.74 50.676 12.485 13.974 25.632 26.1 39.522 36.34 13.871 10.236 26.689 20.471 38.492 30.708 11.788 10.231 21.33 21.495 28.615 33.78 7.283 12.284 10.565 27.639 9.883 46.068 0 31.386-7.803 54.591-23.412 69.613-15.62 15.002-37.301 22.521-65.044 22.521-18.731 0-34.867-3.584-48.393-10.752-13.529-7.168-24.631-16.734-33.299-28.665-8.679-11.945-15.089-26.175-19.251-42.205-4.159-16.049-6.242-33.501-6.242-51.933h-152.976c0.685 36.864 7.109 70.873 19.251 101.582 12.134 30.711 29.141 57.443 50.995 79.963 21.851 22.524 48.211 40.145 79.089 52.78 30.861 12.619 65.378 18.966 103.546 18.966 49.246 0 90.353-6.642 123.313-19.945 32.937-13.308 59.479-29.854 79.609-49.637 20.113-19.806 34.509-41.122 43.193-63.981 8.661-22.874 13.005-44.192 13.005-63.974 0-32.759-4.343-59.728-13.005-80.869z" horiz-adv-x="960" />
<glyph unicode="&#xe61c;" d="M487.2 884.533c-261.12 0-472.8-211.68-472.8-472.8s211.68-472.8 472.8-472.8 472.8 211.68 472.8 472.8-211.68 472.8-472.8 472.8zM395.086 86.071c-34.367 0-58.212 16.879-58.212 54.679 0 47.711 32.432 129.278 39.143 146.195l66.781 175.035c6.672 17.885-1.914 26.827-9.554 26.827-35.295 0-81.132-86.521-98.267-86.521-6.693 0-12.416 6.969-12.416 12.93 0 17.904 41.966 59.653 54.405 72.622 38.157 37.783 87.785 66.623 143.134 66.623 41.019 0 84.922-25.84 50.573-122.329l-68.715-193.906c-5.706-14.924-16.206-39.796-16.206-55.707 0-6.949 3.789-13.936 11.429-13.936 28.604 0 81.113 84.548 94.476 84.548 4.757 0 11.429-5.943 11.429-14.903 0-28.841-111.609-152.156-208-152.156zM559.204 590.212c-39.125 0-64.906 26.867-64.906 67.649 0 43.745 36.262 79.532 78.249 79.532 38.197 0 65.852-26.827 65.852-67.609 0-45.757-36.243-79.572-79.196-79.572z" horiz-adv-x="992" />
<glyph unicode="&#xe61d;" d="M296.011 425.877c-150.791 2.971-274.915-89.948-277.229-207.54-0.805-40.879 13.229-79.356 38.198-112.291l-0.005 0.001c42.95-55.181-3.927-150.038-3.927-150.038l138.4 59.605c29.815-9.423 62.218-14.912 96.172-15.58 150.791-2.971 274.915 89.948 277.23 207.542 2.318 117.593-118.047 215.33-268.838 218.302z" horiz-adv-x="576" />
<glyph unicode="&#xe61e;" d="M638.4 674.052c0 40.783-27.655 67.609-65.852 67.609-41.988 0-78.249-35.789-78.249-79.532 0-40.783 25.781-67.649 64.906-67.649 42.953 0 79.196 33.815 79.196 79.572zM322.56 419.485c0-5.962 5.724-12.93 12.416-12.93 17.134 0 62.97 86.52 98.267 86.52 7.64 0 16.227-8.943 9.554-26.827l-66.781-175.035c-6.713-16.917-39.144-98.483-39.144-146.195 0-37.802 23.846-54.681 58.212-54.681 96.391 0 208 123.316 208 152.156 0 8.962-6.672 14.904-11.429 14.904-13.364 0-65.872-84.547-94.476-84.547-7.64 0-11.429 6.988-11.429 13.936 0 15.911 10.502 40.783 16.207 55.707l68.715 193.906c34.348 96.489-9.554 122.329-50.573 122.329-55.352 0-104.977-28.84-143.134-66.622-12.44-12.967-54.406-54.717-54.406-72.622zM487.2 888.8c-261.12 0-472.8-211.68-472.8-472.8s211.68-472.8 472.8-472.8 472.8 211.68 472.8 472.8-211.68 472.8-472.8 472.8zM486.72 13.28c-221.621 0-401.28 179.659-401.28 401.28s179.659 401.28 401.28 401.28 401.28-179.659 401.28-401.28-179.659-401.28-401.28-401.28z" horiz-adv-x="992" />
<glyph unicode="&#xe61f;" d="M467.68 729.114c0 54.542-36.987 90.419-88.071 90.419-56.153 0-104.649-47.863-104.649-106.365 0-54.542 34.479-90.473 86.804-90.473 57.445 0.001 105.916 45.225 105.916 106.418zM45.28 388.659c0-7.973 7.655-17.292 16.606-17.292 22.914 0 84.216 115.711 131.421 115.711 10.217 0 21.702-11.96 12.777-35.878l-89.311-234.089c-8.977-22.625-52.351-131.71-52.351-195.518 0-50.556 31.891-73.129 77.853-73.129 128.911 0 278.176 164.921 278.176 203.491 0 11.985-8.923 19.932-15.285 19.932-17.873 0-88.096-113.072-126.351-113.072-10.217 0-15.285 9.346-15.285 18.638 0 21.279 14.045 54.542 21.674 74.502l91.898 259.328c45.936 129.043-12.777 163.601-67.637 163.601-74.026 0-140.395-38.57-191.426-89.101-16.636-17.344-72.761-73.179-72.761-97.124z" horiz-adv-x="512" />
<glyph unicode="&#xe620;" d="M108.019 139.109v-191.256h151.875v173.792h121.262v-173.792h151.876v191.27l-212.464 207.3zM22.533 209.897l56.064-54.701 241.97 236.013 241.885-235.998 56.049 54.673-297.948 290.728z" horiz-adv-x="640" />
<glyph unicode="&#xe621;" d="M197.534 334.53h-75.148v-112.722h-112.722v-75.148h112.722v-112.722h75.148v112.722h112.722v75.148h-112.722z" horiz-adv-x="320" />
<glyph unicode="&#xe622;" d="M409.356 450.112l-151.298-151.298-151.298 151.298-100.983-101.001 151.281-151.298-151.281-151.281 100.983-101.001 151.298 151.298 151.298-151.298 100.983 101.001-151.281 151.281 151.281 151.298z" horiz-adv-x="512" />
<glyph unicode="&#xe623;" d="M456.447 465.152h-383.998c-35.346 0-64.513-28.144-64.513-63.494v-383.993c0-35.346 29.167-64.513 64.513-64.513h383.997c35.346 0 63.49 29.167 63.49 64.513v383.993c0 35.351-28.144 63.494-63.489 63.494zM391.936 177.408h-256v64.512h256v-64.512z" horiz-adv-x="544" />
<glyph unicode="&#xe624;" d="M302.464 321.024h-64.512v-95.232h-96.256v-64.512h96.256v-96.256h64.512v96.256h95.232v64.512h-95.232zM462.207 449.024h-383.998c-35.346 0-64.513-28.144-64.513-63.494v-383.993c0-35.346 29.167-64.513 64.513-64.513h383.997c35.346 0 63.49 29.167 63.49 64.513v383.993c0 35.351-28.144 63.494-63.489 63.494zM474.496 39.835c0-28.278-22.515-51.611-50.791-51.611h-307.198c-28.278 0-51.611 23.333-51.611 51.611v307.194c0 28.281 23.333 50.796 51.611 50.796h307.198c28.277 0 50.791-22.515 50.791-50.796v-307.194z" horiz-adv-x="544" />
<glyph unicode="&#xe625;" d="M157.696 225.792h256v-64.512h-256v64.512zM478.207 449.024h-383.998c-35.346 0-64.513-28.144-64.513-63.494v-383.993c0-35.346 29.167-64.513 64.513-64.513h383.997c35.346 0 63.49 29.167 63.49 64.513v383.993c0 35.351-28.144 63.494-63.489 63.494zM490.496 39.835c0-28.278-22.515-51.611-50.791-51.611h-307.198c-28.278 0-51.611 23.333-51.611 51.611v307.194c0 28.281 23.333 50.796 51.611 50.796h307.198c28.277 0 50.791-22.515 50.791-50.796v-307.194z" horiz-adv-x="576" />
<glyph unicode="&#xe626;" d="M476.558 458.746l-162.98-0.005-305.727-293.843 211.474-204.316 300.526 290.356v165.977l-43.293 41.83zM464.68 345.828c-17.048-16.473-44.688-16.473-61.736 0-17.051 16.468-17.051 43.171 0 59.642 17.046 16.479 44.688 16.479 61.736 0.005 17.047-16.476 17.048-43.179 0-59.647z" horiz-adv-x="544" />
<glyph unicode="&#xe627;" d="M14.754 352.513h320.77v-103.883l190.749 149.852-190.749 149.854v-106.676h-321.070l0.3-89.147zM526.156 160.17h-317.314v102.928l-188.691-148.476 188.691-148.477v105.694h317.612l-0.298 88.33z" horiz-adv-x="544" />
<glyph unicode="&#xe628;" d="M463.487 464h-383.998c-35.346 0-64.513-28.144-64.513-63.494v-383.993c0-35.346 29.167-64.513 64.513-64.513h383.997c35.346 0 63.49 29.167 63.49 64.513v383.993c0 35.351-28.144 63.494-63.489 63.494zM475.776 54.811c0-28.278-22.515-51.611-50.791-51.611h-307.198c-28.278 0-51.611 23.333-51.611 51.611v307.194c0 28.281 23.333 50.796 51.611 50.796h307.198c28.277 0 50.791-22.515 50.791-50.796v-307.194zM141.952 245.982h272.384l-136.192-111.199z" horiz-adv-x="544" />
<glyph unicode="&#xe629;" d="M447.487 448h-383.998c-35.346 0-64.513-28.144-64.513-63.494v-383.993c0-35.346 29.167-64.513 64.513-64.513h383.997c35.346 0 63.49 29.167 63.49 64.513v383.993c0 35.351-28.144 63.494-63.489 63.494zM262.144 118.783l-136.192 111.199h272.384l-136.192-111.199z" horiz-adv-x="512" />
<glyph unicode="&#xe62a;" d="M447.487 448h-383.998c-35.346 0-64.513-28.144-64.513-63.494v-383.993c0-35.346 29.167-64.513 64.513-64.513h383.997c35.346 0 63.49 29.167 63.49 64.513v383.993c0 35.351-28.144 63.494-63.489 63.494zM459.776 38.811c0-28.278-22.515-51.611-50.791-51.611h-307.198c-28.278 0-51.611 23.333-51.611 51.611v307.194c0 28.281 23.333 50.796 51.611 50.796h307.198c28.277 0 50.791-22.515 50.791-50.796v-307.194zM398.336 144.383h-272.384l136.192 111.199z" horiz-adv-x="512" />
<glyph unicode="&#xe62b;" d="M64.513-64h383.998c35.346 0 64.513 28.144 64.513 63.494v383.993c0 35.346-29.167 64.513-64.513 64.513h-383.997c-35.346 0-63.49-29.167-63.49-64.513v-383.993c0-35.351 28.144-63.494 63.489-63.494zM249.856 265.217l136.192-111.199h-272.384l136.192 111.199z" horiz-adv-x="512" />
<glyph unicode="&#xe62c;" d="M787.565 727.342c-6.622-0.083-13.366-2.821-18.96-8.313l-443.899-435.93c-12.786-12.548-36.188-15.87-51.932-7.316l-113.722 61.824c-15.744 8.553-36.082 2.891-45.2-12.57l-33.109-56.157c-9.118-15.51-6.228-38.634 6.32-51.416l217.862-221.949c12.548-12.786 31.721-11.609 42.624 2.68l482.229 631.604c10.904 14.287 11.578 38.167 1.614 53.065l-21.364 31.943c-5.605 8.381-13.949 12.645-22.464 12.537z" />
<glyph unicode="&#xe62d;" d="M6.249 401.936l376.852-380.701c64.826 165.014 270.292 487.56 521.127 716.716l-23.134 52.981c-273.157-166.383-471.396-376.253-560.424-481.616l-218.081 169.718-96.34-77.098z" />
<glyph unicode="&#xe62e;" d="M115.671 703.265v-769.696h769.696v769.696h-769.696zM179.812 639.123h641.415v-641.414h-641.415v641.414z" />
<glyph unicode="&#xe62f;" d="M863 804.875c-6.904-0.25-13.962-3.725-19.781-9.438l-77.5-76.188h-732.281v-769.688h769.719v617.375l104.219 136.281c11.345 14.866 11.713 39.311 1.344 54.813l-22.719 33.406c-5.184 7.751-12.25 12.549-20.063 13.344-0.977 0.099-1.951 0.129-2.938 0.094zM97.594 655.125h602.656l-319.375-312.688c-13.302-13.056-37.055-16.931-53.438-8.031l-118.938 64.156c-16.383 8.9-37.294 4.057-46.781-12.031l-34.719-58.781c-9.487-16.137-6.401-40.168 6.656-53.469l227.188-231.188c13.057-13.301 32.748-12.178 44.094 2.688l334.063 436.969v-469.031h-641.406v641.406z" />
<glyph unicode="&#xe630;" d="M969.62 786.079c-62.179-37.874-119.705-76.957-173.715-117.593v50.779h-769.697v-769.697h769.697v575.936c60.832 72.995 126.476 144.549 196.433 208.46l-22.717 52.115zM90.349 655.124h641.413v-37.416c-150.318-121.524-261.619-241.178-322.043-312.689l-219.15 169.708-96.211-77.504 376.831-380.839c40.194 102.316 134.95 265.317 260.573 428.945v-431.618h-641.413v641.414z" />
<glyph unicode="&#xe631;" d="M460.513 590.982c-177.122 0-320.707-143.585-320.707-320.707s143.585-320.707 320.707-320.707c177.122 0 320.707 143.585 320.707 320.707s-143.585 320.707-320.707 320.707zM460.513 552.498c155.867 0 282.222-126.355 282.222-282.222s-126.355-282.222-282.222-282.222c-155.867 0-282.222 126.355-282.222 282.222s126.355 282.222 282.222 282.222z" />
<glyph unicode="&#xe632;" d="M495.094 590.969c-175.211-2.219-316.563-144.95-316.563-320.688 0-177.122 143.597-320.719 320.719-320.719s320.719 143.597 320.719 320.719c0 177.122-143.597 320.688-320.719 320.688-1.384 0-2.777 0.018-4.156 0zM499.25 552.219c155.867 0 283.281-126.071 283.281-281.938s-127.414-281.969-283.281-281.969c-155.867 0-281.969 126.102-281.969 281.969s126.102 281.938 281.969 281.938zM503.25 414.594c-82.657 0-149.656-66.999-149.656-149.656s66.999-149.656 149.656-149.656c82.657 0 149.656 66.999 149.656 149.656s-66.999 149.656-149.656 149.656z" />
<glyph unicode="&#xe633;" d="M500.469 420.469c-82.657 0-149.656-67-149.656-149.656 0-82.657 66.999-149.656 149.656-149.656s149.656 66.999 149.656 149.656c0 82.657-67 149.656-149.656 149.656z" />
<glyph unicode="&#xe634;" d="M500.813 665.844c-197.812 0-358.125-160.356-358.125-358.125s160.356-358.156 358.125-358.156c197.769 0 358.125 160.344 358.125 358.156s-160.356 358.125-358.125 358.125zM361.031 508.906c8.611 0 17.239-3.26 23.781-9.781l92.969-92.969c13.042-13.085 34.415-13.085 47.5 0l92.969 92.969c13.042 13.042 34.415 13.042 47.5 0l26.5-26.5c13.042-13.085 13.042-34.415 0-47.5l-92.969-92.969c-13.042-13.042-13.042-34.415 0-47.5l92.969-92.969c13.085-13.042 13.085-34.415 0-47.5l-26.5-26.469c-13.042-13.085-34.415-13.085-47.5 0l-92.938 92.906c-13.085 13.085-34.458 13.085-47.5 0l-92.969-92.906c-13.085-13.085-34.458-13.085-47.5 0l-26.5 26.469c-13.042 13.085-13.042 34.458 0 47.5l92.938 92.969c13.042 13.085 13.042 34.415 0 47.5l-92.938 92.969c-13.042 13.042-13.042 34.415 0 47.5l26.469 26.5c6.521 6.521 15.108 9.781 23.719 9.781z" />
<glyph unicode="&#xe635;" d="M392.688 762.063v-297.906h-299.188v-215.344h299.188v-299.25h214.031v299.25h299.25v215.344h-299.25v297.906h-214.031z" />
<glyph unicode="&#xe636;" d="M874.189 739.43h-114.586v127.181h-1.024c0.614 1.946 1.024 3.891 1.024 5.837 0 46.182-164.966 83.661-368.435 83.661-203.571 0-368.538-37.478-368.538-83.661 0-1.946 0.307-3.891 0.922-5.837h-0.922v-843.264c0.205-46.080 165.069-83.456 368.435-83.456s368.23 37.376 368.435 83.456v127.181h114.586c70.349 0.205 126.874 56.832 127.181 127.078v334.746c-0.205 70.349-56.73 126.874-127.078 127.078zM228.659 151.757c0-21.914-17.715-39.629-39.526-39.629-22.016 0-39.731 17.715-39.731 39.629v586.445c0 21.914 17.715 39.629 39.731 39.629 21.811 0 39.526-17.715 39.526-39.629v-586.445zM430.797 151.757c0-21.914-17.715-39.629-39.629-39.629s-39.629 17.715-39.629 39.629v586.445c0 21.914 17.715 39.629 39.629 39.629s39.629-17.715 39.629-39.629v-586.445zM632.832 151.757c0-21.811-17.715-39.526-39.629-39.526s-39.629 17.715-39.629 39.526v586.445c0 21.914 17.715 39.629 39.629 39.629s39.629-17.715 39.629-39.629v-586.445zM881.869 277.709c0-2.048-0.717-3.789-2.253-5.427-1.741-1.638-3.379-2.355-5.427-2.355h-114.586v350.106h114.586c2.048-0.102 3.686-0.819 5.427-2.355 1.536-1.638 2.253-3.277 2.253-5.325v-334.643z" />
<glyph unicode="&#xe637;" d="M931.021 131.482c-7.27 5.427-13.21 17.51-13.21 26.931v573.133c0 9.421 6.042 21.606 13.21 26.931 0 0 42.291 31.437 42.291 64.922 0 45.158-41.677 81.818-93.082 81.818-27.136 0-54.682-17.715-54.682-17.715-7.578-4.915-21.197-8.909-30.106-8.909h-83.968c-8.909 0-22.426 3.994-30.106 8.909 0 0-37.99 24.269-71.987 24.269-7.066 0-7.066 0-7.066 0-7.68-0.922-19.251 3.379-25.805 9.728 0 0-34.816 33.382-71.066 33.382-36.454 0-71.27-33.69-71.27-33.69-6.656-6.349-18.842-10.65-27.238-9.421 0 0 0 0-8.090 0-33.894 0-71.885-24.269-71.885-24.269-7.68-4.915-21.197-8.909-30.106-8.909h-68.301c-8.806 0-22.426 3.994-30.003 8.909 0 0-27.546 17.715-54.682 17.715-51.507 0-93.184-36.659-93.184-81.818 0-33.382 42.291-64.922 42.291-64.922 7.27-5.325 13.21-17.51 13.21-26.931v-573.133c0-9.421-5.939-21.402-13.21-26.931 0 0-42.291-31.539-42.291-64.922 0-45.158 41.677-81.715 93.184-81.715 30.413 0 61.030 22.733 61.030 22.733 7.373 5.427 20.48 9.83 29.491 9.83h53.555c8.909 0 22.221-4.506 29.389-10.035 0 0 42.598-32.563 81.613-32.563 11.674 0 17.715 1.229 17.715 1.229 8.806 1.741 21.606-1.638 28.672-7.373 0 0 32.87-27.443 65.946-27.443 31.846 0 63.795 25.19 63.795 25.19 7.066 5.632 19.354 9.523 27.034 8.499 0 0 0 0 7.373 0 39.014 0 81.613 32.563 81.613 32.563 7.27 5.53 20.48 10.035 29.389 10.035h69.325c8.909 0 22.221-4.403 29.389-9.83 0 0 30.72-22.733 61.133-22.733 51.507 0 93.082 36.659 93.082 81.715-0.102 33.28-42.394 64.819-42.394 64.819zM791.859 163.328h-569.344v569.344h569.344v-569.344z" />
<glyph unicode="&#xe638;" d="M124.109 221.389l-1.536-4.608v-4.813c0-9.011-0.307-23.45-0.717-38.81-0.205-6.963-0.307-14.234-0.512-21.402h-117.453c-0.41 22.118 1.229 62.054 1.229 78.95 8.602 24.883 36.966 28.467 60.723 38.4 26.010 10.957 54.989 23.757 80.896 34.406 7.373 2.048 14.848 4.096 22.221 6.042 8.806 6.144 17.51 26.317 22.221 36.454l10.547 2.56c-2.355 13.312-10.65 14.336-14.029 23.757-1.331 14.131-2.662 28.365-3.994 42.496 0.102-0.717-9.728 1.741-10.957 2.56-13.722 8.602-14.029 43.622-15.36 58.163-0.614 6.656 8.602 12.083 6.042 24.269-15.053 71.373 6.554 119.603 40.653 130.662 23.654 9.626 67.891 27.341 109.056 2.048l10.24-9.523 16.077-2.765c1.229-11.571 3.072-23.654 5.734-36.352-0.41-0.819-1.126-2.253-1.741-3.379-3.072-5.734-8.294-15.155-7.168-27.75 0.205-2.662 0.41-5.734 0.717-9.216 1.843-27.546 4.71-67.891 27.238-88.678-0.41-3.994-1.024-7.782-1.638-11.264-1.126-6.451-3.686-15.565-7.373-20.89-4.096-5.734-12.493-5.837-16.077-12.595-5.325-9.728-2.253-23.347-5.632-33.894-3.789-11.878-13.414-12.698-14.131-28.365 4.71-0.717 9.421-1.331 14.131-2.048 0.819-1.843 1.843-3.994 2.867-6.246-21.504-8.909-44.339-18.637-66.56-28.262-15.053-6.451-30.003-12.902-44.339-18.944-6.554-2.765-13.619-5.222-20.992-7.782-29.696-10.035-66.458-22.733-80.384-63.181zM874.701 101.683h-724.89c-0.614 31.027 1.638 87.040 1.638 110.694 12.083 34.918 51.917 39.936 85.197 53.965 36.557 15.36 77.107 33.28 113.562 48.23 10.445 2.867 20.787 5.632 31.232 8.499 12.39 8.602 24.576 36.966 31.232 51.098l14.746 3.584c-3.379 18.637-14.95 20.070-19.763 33.28-1.843 19.866-3.789 39.731-5.632 59.597 0.102-0.922-13.619 2.458-15.36 3.584-19.251 12.083-19.661 61.133-21.504 81.51-0.819 9.318 12.083 16.998 8.499 34.099-21.094 100.147 9.114 167.834 57.037 183.296 33.178 13.414 95.232 38.4 153.088 2.867l14.336-13.312 23.245-3.994c11.674-6.758 19.046-29.082 19.046-29.082 6.144-24.678 6.758-47.514 6.144-72.806-0.205-9.728-5.837-54.886-4.301-68.71 1.229-11.366 4.096-12.288 8.602-21.709 7.782-16.384 5.222-38.912 2.253-55.398-1.638-9.011-5.12-21.914-10.445-29.286-5.837-8.090-17.51-8.192-22.63-17.613-7.373-13.619-3.277-32.768-7.885-47.514-5.325-16.691-18.842-17.92-19.866-39.731 6.656-0.922 13.21-1.843 19.866-2.867 6.656-14.131 18.842-42.496 31.232-51.098 10.445-2.867 20.787-5.734 31.232-8.499 36.454-14.95 77.005-32.87 113.562-48.23 33.28-14.029 73.114-19.046 85.197-53.965-0.307-23.45 1.946-79.462 1.331-110.49zM1020.109 151.757h-116.838c-0.205 7.27-0.307 14.438-0.512 21.402-0.41 15.36-0.717 29.798-0.717 38.81v4.813l-1.536 4.608c-13.926 40.448-50.688 53.146-80.179 63.386-7.475 2.56-14.541 5.018-20.992 7.782-14.336 6.042-29.286 12.493-44.442 18.944-22.323 9.626-45.363 19.456-66.97 28.365 1.024 2.253 2.048 4.301 2.867 6.042l10.547 2.56c-2.355 13.312-10.65 14.336-14.029 23.757-1.331 14.131-2.662 28.365-3.994 42.496 0.102-0.717-9.728 1.741-10.957 2.56-9.216 5.837-12.39 23.552-13.824 38.912 2.662 2.253 5.325 4.915 7.782 8.294 9.216 12.902 13.619 31.13 15.36 40.96 3.584 19.763 7.066 48.845-4.608 73.114-1.843 3.891-3.482 6.758-4.71 8.806-0.307 0.512-0.614 1.126-0.922 1.638-0.102 0.307-0.205 0.922-0.307 1.946-0.205 2.048-0.102 5.939 0.102 10.752 8.090 14.541 19.354 24.371 32.461 28.672 23.654 9.626 67.891 27.341 109.056 2.048l10.24-9.523 16.589-2.867c8.294-4.813 13.619-20.685 13.619-20.685 4.403-17.51 4.813-33.894 4.403-51.917-0.205-6.963-4.198-39.117-3.072-48.947 0.922-8.090 2.97-8.806 6.144-15.462 5.632-11.674 3.686-27.75 1.536-39.526-1.126-6.451-3.686-15.565-7.373-20.89-4.198-5.734-12.493-5.837-16.077-12.595-5.325-9.728-2.355-23.347-5.632-33.894-3.789-11.878-13.414-12.698-14.131-28.365 4.71-0.717 9.421-1.331 14.131-2.048 4.71-10.035 13.414-30.31 22.221-36.454 7.373-2.048 14.848-4.096 22.221-6.042 26.010-10.65 54.886-23.45 80.896-34.406 23.757-10.035 52.122-13.619 60.723-38.4-0.307-16.589 1.331-56.525 0.922-78.643z" />
<glyph unicode="&#xe639;" d="M711.051-66.432l-420.714 420.714 420.714 420.714v-133.954l-287.857-286.76 287.857-286.76z" />
<glyph unicode="&#xe63a;" d="M288.705-66.432l420.714 420.714-420.714 420.714v-132.024l287.857-288.689-287.857-288.689z" />
<glyph unicode="&#xe63b;" d="M504.531 232.906l-256.563-299.344h513.125l-256.563 299.344z" />
<glyph unicode="&#xe63c;" d="M241.531 232.906l256.563-299.344 256.563 299.344h-513.125z" />
<glyph unicode="&#xe63d;" d="M670.781 360.906l-341.938-213.625 341.938-213.719v427.344z" />
<glyph unicode="&#xe63e;" d="M328.781 360.906v-427.344l341.969 213.719-341.969 213.625z" />
<glyph unicode="&#xe63f;" d="M500.736 729.079c-218.007 0-394.714-176.738-394.714-394.744s176.707-394.744 394.714-394.744c218.007 0 394.744 176.738 394.744 394.744s-176.738 394.744-394.744 394.744zM500.736 681.689c191.845 0 347.384-155.508 347.384-347.354s-155.539-347.384-347.384-347.384c-191.846 0-347.354 155.538-347.354 347.384s155.508 347.354 347.354 347.354zM498.767 442.892l-189.469-221.052h378.938l-189.469 221.052z" />
<glyph unicode="&#xe640;" d="M498.859 728.937c-218.007 0-394.744-176.738-394.744-394.744s176.738-394.744 394.744-394.744c218.007 0 394.744 176.738 394.744 394.744s-176.738 394.744-394.744 394.744zM498.859 681.546c191.846 0 347.384-155.508 347.384-347.354s-155.539-347.384-347.384-347.384c-191.846 0-347.354 155.538-347.354 347.384s155.508 347.354 347.354 347.354zM304.454 381.551l189.469-221.052 189.469 221.052h-378.938z" />
<glyph unicode="&#xe641;" d="M498.832 728.219c-218.007 0-394.757-176.749-394.757-394.757s176.749-394.688 394.757-394.688c218.007 0 394.757 176.682 394.757 394.688 0 218.007-176.749 394.757-394.757 394.757zM498.832 680.837c191.845 0 347.375-155.528 347.375-347.375s-155.528-347.307-347.375-347.307c-191.846 0-347.375 155.46-347.375 347.307s155.528 347.375 347.375 347.375zM584.993 482.163l-252.474-157.78 252.474-157.848v315.628z" />
<glyph unicode="&#xe642;" d="M501.785 727.996c-218.007 0-394.736-176.729-394.736-394.736s176.729-394.735 394.736-394.735c218.008 0 394.736 176.729 394.736 394.735 0 218.008-176.729 394.736-394.736 394.736zM501.785 680.626c191.846 0 347.368-155.521 347.368-347.368s-155.521-347.367-347.368-347.367c-191.846 0-347.368 155.521-347.368 347.367s155.521 347.368 347.368 347.368zM420.865 490.168v-314.802l252.631 156.907-252.631 157.895z" />
<glyph unicode="&#xe643;" d="M498.281 927.25c-269.979 0-488.844-218.865-488.844-488.844s218.865-488.844 488.844-488.844c269.979 0 488.844 218.865 488.844 488.844s-218.865 488.844-488.844 488.844zM496.25 584.031l195.531-228.125h-391.063l195.531 228.125z" />
<glyph unicode="&#xe644;" d="M498.313 927.25c-269.979 0-488.813-218.865-488.813-488.844s218.834-488.844 488.813-488.844c269.979 0 488.844 218.865 488.844 488.844s-218.865 488.844-488.844 488.844zM292.594 493.406h391.094l-195.531-228.125-195.563 228.125z" />
<glyph unicode="&#xe645;" d="M500.781 927.25c-269.979 0-488.813-218.865-488.813-488.844s218.834-488.844 488.813-488.844c269.979 0 488.844 218.865 488.844 488.844s-218.865 488.844-488.844 488.844zM599.594 601.344v-325.875l-260.719 162.938 260.719 162.938z" />
<glyph unicode="&#xe646;" d="M499.688 927.25c-269.979 0-488.813-218.865-488.813-488.844s218.834-488.844 488.813-488.844c269.979 0 488.844 218.865 488.844 488.844s-218.865 488.844-488.844 488.844zM424.344 601.344l260.719-162.938-260.719-162.938v325.875z" />
<glyph unicode="&#xe647;" d="M360.034 744.059l-4.16-12.813-31.618-96.817-62.337-25.86-105.104 49.689-63.934-63.969 6.058-11.981 46.095-90.861-25.827-62.337-109.498-39.207v-90.46l109.631-35.778 25.827-62.337-49.657-105.138 63.934-63.969 102.775 52.219 62.337-25.86 39.207-109.431h90.46l4.196 12.78 31.585 96.817 62.404 25.827 105.071-49.689 63.969 64.001-6.058 11.981-46.095 90.793 25.827 62.404 109.498 39.24v90.46l-12.78 4.196-96.817 31.585-25.827 62.404 49.657 105.071-63.969 63.969-11.981-6.058-90.793-46.162-62.404 25.86-39.207 109.431h-90.46zM407.194 473.278c69.946 0 126.671-56.708 126.671-126.704 0-69.946-56.723-126.604-126.671-126.604-69.946 0-126.704 56.708-126.704 126.604 0 69.946 56.758 126.704 126.704 126.704z" horiz-adv-x="816" />
<glyph unicode="&#xe648;" d="M419.406 695.875c-162.464 0-294.646-131.303-295.719-294.094-1.026-163.491 130.556-296.833 293.906-297.906h1.906c54.295 0 105.2 14.673 149 40.281l184.25-184.375c13.574-13.62 35.614-13.62 49.188 0l57.844 57.875c13.667 13.667 13.683 35.739 0.063 49.313l-4.5 4.469-179.938 180.063c25.002 43.1 39.502 93.060 39.875 146.469 1.026 163.491-130.509 296.88-293.906 297.906h-1.969zM419.406 620.469h1.5c58.866-0.373 114.032-23.66 155.406-65.594 41.327-41.934 63.904-97.431 63.531-156.344-0.373-58.633-23.455-113.688-65.063-155.063-41.561-41.281-96.695-64.031-155.281-64.031h-1.438c-121.464 0.746-219.715 100.334-218.969 221.938 0.373 58.679 23.486 113.704 65.094 155.031 41.561 41.281 96.679 64.063 155.219 64.063z" />
<glyph unicode="&#xe649;" d="M518.656 674.469c-91.547 0.181-183.008-33.489-252.719-101.031l101-97.813c83.914 81.256 220.666 81.019 305-0.656 50.47-48.837 70.608-123.219 60.813-186.656l-116.094-0.375 187.469-171.188 186.5 173.313-115.188-0.938c8.909 98.654-25.354 207.623-103.531 283.281-70.061 67.845-161.703 101.882-253.25 102.063zM197.594 507.25l-186.469-171.875 115.156-0.438c-8.909-98.654 25.37-207.608 103.5-283.313 140.168-135.737 366.609-136.068 506.031-1.031l-101.063 97.813c-83.914-81.256-220.713-81.019-305 0.656-50.47 48.837-70.608 123.25-60.813 186.688l116.094 0.344-187.438 171.156z" />
<glyph unicode="&#xe64a;" d="M358.563 454.969c-13.036 0-23.594-10.054-23.594-22.438v-80.781c0-12.351 10.558-22.406 23.594-22.406s23.594 10.022 23.594 22.406v80.781c0 12.384-10.558 22.438-23.594 22.438zM642.844 454.969c-13.036 0-23.594-10.054-23.594-22.438v-80.781c-0.033-12.351 10.558-22.406 23.594-22.406s23.594 10.022 23.594 22.406v80.781c0 12.384-10.558 22.438-23.594 22.438zM221.5 422.25v-488.688h554v488.688h-101.313v-32.906c9.809-8.278 16.031-20.323 16.031-33.75 0-24.898-21.204-45.063-47.406-45.063s-47.406 20.164-47.406 45.063c0 13.427 6.222 25.505 16.031 33.75v32.906h-221.531v-32.906c9.809-8.278 16.031-20.323 16.031-33.75 0-24.898-21.204-45.063-47.406-45.063-26.169 0-47.406 20.164-47.406 45.063 0 13.427 6.222 25.505 16.031 33.75v32.906h-105.656zM253.813 292.438h488.469v-326.063h-488.469v326.063zM319.375 227.406v-65.313h65.031v65.313h-65.031zM416.844 227.406v-65.313h64.063v65.313h-64.063zM514.344 227.406v-65.313h66.063v65.313h-66.063zM612.875 227.406v-65.313h64.063v65.313h-64.063zM319.375 96.938v-65.313h65.031v65.313h-65.031zM416.844 96.938v-65.313h64.063v65.313h-64.063zM515.344 96.938v-65.313h64.063v65.313h-64.063zM612.875 96.938v-65.313h64.063v65.313h-64.063z" />
<glyph unicode="&#xe64b;" d="M644.594 764.844c-58.818 0-107.533-30.944-116.813-71.5 15.683 21.345 47.252 35.969 83.688 35.969 52.059 0 94.25-29.766 94.25-66.469 0-35.843-40.221-64.982-90.531-66.375 9.428-1.719 19.238-2.75 29.406-2.75 65.459 0 118.531 38.306 118.531 85.563s-53.072 85.563-118.531 85.563zM335.625 763.344c-65.459 0-118.563-38.306-118.563-85.563s53.074-85.563 118.563-85.563c10.169 0 19.979 1.001 29.406 2.75-50.31 1.393-90.531 30.501-90.531 66.344 0 36.702 42.191 66.469 94.25 66.469 36.435 0 68.005-14.623 83.688-35.969-9.309 40.556-57.994 71.531-116.813 71.531zM500.656 686.063c-44.236-1.107-79.831-37.783-80.969-83.25h166.156c-1.186 46.189-37.852 83.25-83.063 83.25-0.706 0-1.423 0.018-2.125 0zM181.344 571.938c-19.418 0-35.125-16.204-35.125-36.156v-75.031c0-19.952 15.736-36.094 35.125-36.094l231.063 0.031v147.25h-231.063zM590.594 571.938v-147.25h231.938c19.389 0 35.125 16.142 35.125 36.094v75.031c0 19.952-15.707 36.125-35.125 36.125h-231.938zM175.438 364.531v-378.813c0-19.952 15.736-36.156 35.125-36.156h582.344c19.389 0 35.156 16.175 35.156 36.156v378.813h-237.438v-182.781h-0.031l-89.5 35.656-88.688-35.656v182.781h-236.969z" />
<glyph unicode="&#xe64c;" d="M389.656 810c-11.539-0.179-21.995-6.726-27.344-20.406l-97.406-249.469c-28.075-6.344-49.307-30.186-56.719-57.313h-91.031c-45.655 0-74.656-29.529-74.656-69.344 0-27.749 12.139-51.778 34.938-63.844 0.474-3.854 1.14-7.745 2-11.688l88.344-274.5c16.572-67.001 50.427-113.875 112.625-113.875h447.188c62.169 0 98.553 42.804 115.125 113.125l40.781 127.406 13.406 40.5-0.688-0.688 7.594 23.75 0.5-0.5 19.656 59.344h-1.344l8.156 25.469c0.712 5.099 1.072 10.046 1.25 14.938 19.27 12.837 29.531 35.157 29.531 60.594 0.030 39.726-24.97 69.25-70.625 69.25h-70.75c-7.767 24.458-28.307 46.76-53.625 55.031l-98.375 251.813c-7.441 19.033-24.731 24.182-41.125 17.719-16.335-6.493-24.912-23.811-17.5-42.844l90.938-232.813c-17.195-10.020-29.79-29.249-35.156-48.875h-302.313c-5.662 17.788-18.027 35.83-34.125 45.969l92.719 237.375c7.441 19.033-1.762 34.726-18.156 41.219-4.603 1.826-9.297 2.726-13.813 2.656zM743.094 507c18.974 0 34.375-15.503 34.375-34.625s-15.401-34.594-34.375-34.594c-18.974 0-34.344 15.501-34.344 34.594 0 19.152 15.37 34.625 34.344 34.625zM284.375 501.063c19.003 0 34.406-15.503 34.406-34.625s-15.403-34.625-34.406-34.625c-18.974 0-34.344 15.503-34.344 34.625s15.37 34.625 34.344 34.625zM105.781 336.063c2.401-0.178 4.853-0.313 7.344-0.313h773.656l-9.469-29.813h-108.813l-19.906-20.031-19.906 20.031h-166.75l-19.938-20.031-19.875 20.031h-86.531l59.938-60.375-63.063-63.5-63.094 63.5 59.969 60.375h-86.563l-19.906-20.031-19.875 20.031h-166.781l-15.719-15.813-14.813 43.625c0 0.8 0.064 1.542 0.094 2.313zM429.344 305.938h6.25l-3.125 3.156-3.125-3.156zM853.469 304.344l15.906-16.031-29.063-88.313-45.25 45.531 58.406 58.813zM219.625 302.813l56.813-57.25-56.813-57.219-56.813 57.219 56.813 57.25zM645.281 302.813l56.844-57.25-56.844-57.219-56.781 57.219 56.781 57.25zM322.875 198.719l63.094-63.5-56.813-57.219-63.063 63.531 56.781 57.188zM542 198.719l56.875-57.188-63.094-63.531-56.844 57.219 63.063 63.5zM748.625 198.719l58.375-58.75-56.844-57.188-58.344 58.75 56.813 57.188zM645.281 94.75l58.375-58.813-57.5-58h-11l-52.875 53.281 63 63.531zM219.625 94.719l63.063-63.531-37.313-37.594c-22.976 16.276-38.207 44.248-47.813 78.875l22.063 22.25zM432.469 88.438l56.813-57.219-52.875-53.281h-7.875l-52.875 53.281 56.813 57.219zM329.188-15.594l6.406-6.469h-12.813l6.406 6.469zM535.781-15.594l6.406-6.469h-12.813l6.406 6.469z" />
<glyph unicode="&#xe64d;" d="M134.906 690.75c-28.164 0-51-22.869-51-51.063v-639.031c0-28.223 22.836-51.094 51-51.094h728.344c28.164 0 50.969 22.9 50.969 51.094v639.031c0 28.194-22.805 51.063-50.969 51.063h-728.344zM631.531 622.281c13.548 0 24.531-11.047 24.531-24.625s-10.983-24.563-24.531-24.563c-13.548 0-24.531 11.014-24.531 24.563-0.030 13.578 10.953 24.625 24.531 24.625zM719.313 622.25c13.548 0 24.531-11.017 24.531-24.625 0-13.578-10.983-24.563-24.531-24.563s-24.531 11.014-24.531 24.563c-0.030 13.608 10.983 24.625 24.531 24.625zM810.219 620.75c13.548 0 24.563-11.014 24.563-24.563 0-13.578-11.014-24.594-24.563-24.594s-24.531 11.016-24.531 24.594c0.030 13.548 10.983 24.563 24.531 24.563zM143.094 513.75h712v-505.156h-712v505.156zM298.813 446.344c-15.624 0-28.313-12.723-28.313-28.406-0.030-15.653 12.689-28.313 28.313-28.313 5.485 0 10.578 1.552 14.906 4.25 3.706-5.781 6.803-11.876 8.938-18.25 6.137-19.3 59.069-200.592 64.969-220.781-0.059-0.445-0.125-0.869-0.125-1.344 0-4.21 2.982-7.625 6.688-7.625h6.75c-7.115-7.589-11.375-17.83-11.375-29.125h3.906c0.030-0.949 0.036-1.864 0.125-2.813 0.059-0.534 0.192-1.060 0.281-1.594 0.119-0.741 0.196-1.446 0.344-2.188 3.735-17.343 20.024-30.406 39.531-30.406 21.849 0 39.596 16.453 40.219 36.969h3.469c0 11.325-5.024 21.567-12.969 29.156l112.906 0.063c-6.522-7.234-10.438-16.824-10.438-27.438 0 0 0.758-0.031 2.063-0.031-0.030-0.771-0.125-1.543-0.125-2.344 0-1.304 0.1-2.6 0.219-3.875 2.046-19.211 19.223-34.188 40.094-34.188 22.235 0 40.313 17.042 40.313 38.031v0.031c0 0.8-0.095 1.573-0.125 2.344 1.186 0 1.844 0.031 1.844 0.031 0 10.613-4.646 20.235-11.969 27.469h20.219c3.706 0 4.094 3.448 4.094 7.688 0 4.21 0.55 7.313-3.156 7.313l-248.563 0.156-2.219 6.375c29.439 0.030 234.122 12.676 239.844 16.5 0.385 0.267 15.62-1.945 21.313 22.188l-0.219 0.219c0.119 0.030 0.255-0.026 0.344 0.063 4.062 18.677 3.99 103.136 3.813 133.969 0.178-1.186 0.25-2.485 0.25-3.938v13.156c0 23.45-17.088 25.438-33.156 25.438l-288.687 11.688-21.156 2.406c-2.639 4.773-5.778 9.331-9.188 13.719 2.757 4.358 4.344 9.487 4.344 15.031 0 15.683-12.689 28.406-28.313 28.406zM345.969 351.563l31.969-0.313-17.906-17.906-11.875 11.906-2.188 6.313zM438.563 350.625l28.438-0.281-14.063-14.125-14.375 14.406zM650.531 349.969l-16.625-16.625-15.375 15.406c0 0 27.761 0.537 32 1.219zM527.563 349.719l26.625-0.313-13.188-13.188-13.438 13.5zM586.031 343.344l28.906-29.031-26.031-26.094-28.906 29 26.031 26.125zM407.781 343.219l16.469-16.25 9.719-9.719-28.906-29-26 26.063 28.719 28.906zM497 342.219l25.063-25-25.094-25.156-25.063 25.188 0.594 0.594 24.5 24.375zM663.125 324.594l-0.5-19.969-9.719 9.719 10.219 10.25zM452.938 298.25l10.188-10.25 14.75-15.094-28.781-28.813-25.031 25.094 28.875 29.063zM541.063 298l28.844-28.781-25.031-25.094-28.875 28.906 25.063 24.969zM633.906 295.375l6.344-6.313 14.188-14.813-25.75-25.813-20.781 20.813 26 26.125zM368.25 287.125l17.844-17.875-8.656-8.688-9.188 26.563zM496.969 254.063l16.719-16.719 12.125-12.344-28.844-28.906-28.844 28.906 28.844 29.063zM588.906 250.281l14.219-14.25 6.5-6.625-25-25.125-20.781 20.813 0.156 0.188 0.063-0.063 24.844 25.063zM405.094 250.25l8.156-8.188 16.656-17.125 0.188 0.219 0.063-0.063-20.781-20.813-19.063 19.094-3.125 8.969 17.906 17.906zM661.031 242.719l-0.656-26.094-12.594 12.594 13.25 13.5zM628.688 210.406l15.344-15.406-32.969-2.25 17.625 17.656zM544.875 206.094l16.688-16.719-35.844-2.5 19.156 19.219zM449.094 206.063l22.875-22.875-38.906-2.688-4.75 4.75 20.781 20.813zM433.5 132.563c9.131 0 16.563-7.402 16.563-16.563s-7.431-16.594-16.563-16.594c-9.131 0-16.531 7.433-16.531 16.594-0.030 9.131 7.371 16.563 16.531 16.563zM610.344 132.563c9.131 0 16.563-7.402 16.563-16.563s-7.431-16.594-16.563-16.594c-9.131 0-16.531 7.433-16.531 16.594 0 9.131 7.4 16.563 16.531 16.563z" />
<glyph unicode="&#xe64e;" d="M549.25 809.344c-1.625-0.996-0.256-28.102-15.219-51.969-14.705-24.844-53.327-37.748-94.031-94.906-40.675-68.75-8.005-137.793 19.625-164 26.433-27.218 49.946-32.545 53.188-33.906-4.426 6.372-43.197 100.828-3.875 154.375 20.071 31.307 65.282 80.205 64.719 129.063-2.846 46.397-27.094 60.454-24.219 61.344-0.059 0.023-0.135 0.032-0.188 0zM512.813 464.563c0.232-0.335 0.38-0.514 0.406-0.344 0.078 0.072-0.096 0.213-0.406 0.344zM627.188 671.344c-0.013-0.009-0.019-0.048-0.031-0.063 0.023 0.032 0.072 0.046 0.125 0.063-0.034 0.012-0.063 0.020-0.094 0zM627.156 671.281c-0.883-1.036-0.271-16.57-8.906-30.5-8.657-14.527-31.385-22.092-55.25-55.563-24.014-40.527-4.779-81.017 11.438-96.344 15.642-16.132 29.48-19.18 31.25-19.938-2.472 3.464-25.364 59.121-2.188 90.625 11.681 18.351 38.318 47.171 37.844 75.75-1.493 26.365-14.889 34.973-14.188 35.969zM605.688 468.938c0.124-0.174 0.206-0.255 0.219-0.156 0.038 0.038-0.063 0.090-0.219 0.156zM235.844 414.781c-3.143-15.535-3.399-30.811-1.531-45.813-8.568 1.008-17.834 1.47-28.625 0.344-27.927-3.735-66.393-23.193-75.969-67.781-9.517-47.049 31.93-87.243 70.5-103.875 40.675-18.292 79.372-24.019 109.938-37.656 29.172-11.444 53.151-20.818 49.594-48.656-1.423-10.732-10.469-17.513-19.719-20.063 3.498 3.439 5.668 8.192 5.313 13.469-0.741 9.605-8.983 16.774-18.5 16.063-9.517-0.652-16.679-8.898-15.938-18.563 0.385-5.485 3.379-9.938 7.5-12.844 10.050-10.999 43.88-17.040 60.719 16.313 2.846 5.692 4.093 11.062 4.656 16.25 18.944-30.595 30.901-60.539 27.906-90.156h-216.469c31.573-34.568 84.465-63.158 150.25-82.25h373.75c65.756 19.092 118.767 47.682 150.281 82.25l-237.375 0.031c-11.681 115.947 205.556 237.047 175.969 382.938h-572.25zM236.063 357.656c12.896-64.777 65.179-124.75 109.5-181.938-43.758 26.059-111.453 41.108-131.969 50.625-34.301 15.416-61.563 42.755-57.531 71.156 2.757 28.965 29.515 49.91 52.906 56.344 9.813 2.668 18.763 3.635 27.094 3.813z" />
<glyph unicode="&#xe64f;" d="M569.469 572.094c-29.706 0-59.83-1.957-89.625-5.781-21.197-2.668-46.721-4.711-76.219-6.875-121.669-9.161-325.305-24.491-351.75-125.438-22.65-86.419 91.454-126.079 255.25-172.594 81.35-23.213 151.743-43.169 192.625-76.344 49.687-40.438 143.623-67.563 233.719-67.563 82.802 0 148.502 22.010 184.938 62.063 25.496 28.164 36.51 64.527 33.219 111.25-18.055 261.037-297.101 281.281-382.156 281.281zM188.031 468.25c0.385 0.004 0.798 0.017 1.188 0 89.562-3.824 180.137-14.342 268.75-31.063 59.174-11.117 115.669-38.094 176.563-39.25 65.489-1.245 131.332 32.252 196.406 40.375 12.363 1.482 23.611-7.591 25.094-20.25 1.512-12.748-7.356-24.268-19.719-25.75-31.218-3.913-84.045-5.852-109.719-26.813-36.198-29.795-7.223-60.218 13.5-85.625 29.439-36.999 59.922-72.057 71.188-78.313 10.702-6.552 14.18-20.81 7.688-31.75-4.239-7.263-11.698-11.25-19.406-11.25-3.913 0-7.885 0.998-11.531 3.281-25.111 16.187-51.801 50.665-82.781 88.375-28.905 35.131-54.218 76.736-93.5 100.75-39.43 24.073-89.31 32.53-133.75 41.75-95.639 19.952-193.327 25.040-290.656 29.25-12.54 0.534-22.19 11.315-21.656 24.063 0.431 12.407 10.401 22.109 22.344 22.219zM10.875 402.313v-108.063c-15.446-175.24 365.68-186.979 464.906-267.469 120.394-97.744 475.416-128.774 513.156 64.906l0.406 3.5h0.219v155.469l-0.469-0.063c-24.903-224.216-386.485-199.429-513.313-96.438-95.402 77.348-451.506 91.267-464.906 248.156z" />
<glyph unicode="&#xe650;" d="M319.938 690.719c0 0-15.853-91.322 29.625-148.688 45.567-57.307 135.219-58.781 135.219-58.781s15.821 91.256-29.656 148.563c-45.507 57.336-135.188 58.906-135.188 58.906zM602.813 658.844c-48.857-46.545-99.733-134.442-115.594-213.094-61.427 43.313-150.983 54.578-214.219 24.25-87.872-42.009-101.941-166.308-96.813-255.781 7.649-132.964 99.096-252.085 233.75-264.063 30.061-2.609 64.196 3.368 91.5 19.406 27.156-16.068 61.281-22.015 91.313-19.406 134.684 11.977 226.164 131.098 233.813 264.063 5.129 89.443-8.909 213.711-96.781 255.75-62.761 30.061-151.379 19.266-212.688-23.188 20.753 73.493 79.227 136.060 147.563 162.594-17.966 18.025-40.261 35.238-61.844 49.469zM652.625 444.25c90.688-28.846 201.996-199.954 77.125-234.344 8.005 39.993 17.925 77.675 5.563 118.469-10.169 33.827-43.643 95.864-82.688 115.875z" />
<glyph unicode="&#xe651;" d="M799.236 879.898v-141.662h-165.545l-453.13-253.314h-171.181v-141.236h171.181l453.13-253.283h165.545v-141.729l226.057 195.588-226.057 195.588v-136.42h-110.146l-346.981 210.888 346.981 210.855h110.146v-136.42l226.057 195.556-226.057 195.588z" />
<glyph unicode="&#xe652;" d="M145.656 741.063c-21.372 0-38.688-17.315-38.688-38.688v-4.25c0-10.013-11.071-36.146-25.438-36.563-19.811-0.35-35.75-16.483-35.75-36.375v-18.406h906.344v18.406h-0.031c0 20.107-16.272 34.719-36.406 34.719h-460.594c-14.401 0.35-25.5 28.206-25.5 38.219v4.25c0 21.372-17.347 38.688-38.719 38.688h-245.219zM45.75 526.125v-0.75c-17.819-3.472-31.281-19.127-31.281-37.969 0 0 12.752-188.54 15.094-258.281s8.594-256.875 8.594-256.875c0-21.372 4.409-38.688 25.781-38.688h870.063c21.372 0 25.813 17.342 25.813 38.688 0 0 6.252 187.133 8.594 256.875s15.094 258.281 15.094 258.281c0.027 18.896-13.506 34.582-31.406 38v0.719h-906.344z" />
<glyph unicode="&#xe653;" d="M254.438 902.563c-22.799 0-41.313-18.705-41.313-41.719v-150.156c0-22.987 18.514-41.656 41.313-41.656s41.281 18.642 41.281 41.656v150.156c0 23.014-18.483 41.719-41.281 41.719zM751.594 902.563c-22.799 0-41.281-18.705-41.281-41.719v-150.156c0-22.987 18.483-41.656 41.281-41.656s41.313 16.142 41.313 39.156v152.656c0 23.014-18.514 41.719-41.313 41.719zM199.5 824.625l-184.75-2.5v-888.563h969.031v888.563h-177.281v-41.625c17.173-15.343 28.031-37.704 28.031-62.656 0-46.243-37.125-83.75-82.938-83.75s-82.906 37.507-82.906 83.75c0 24.979 10.858 47.341 28.031 62.656v41.625h-387.469v-41.625c17.173-15.343 28.063-37.704 28.063-62.656 0-46.243-37.152-83.75-82.938-83.75s-82.938 37.507-82.938 83.75c0 24.979 10.89 47.341 28.063 62.656v44.125zM94.844 579.594h807.969v-565.094h-807.969v565.094zM310.125 471.906v-107.25h108v107.25h-108zM445.313 471.906v-107.25h107.938v107.25h-107.938zM579.688 471.906v-107.25h108v107.25h-108zM714.063 471.906v-107.25h107.938v107.25h-107.938zM176.594 336.531v-106.406h107.125v106.406h-107.125zM310.125 336.531v-106.406h108v106.406h-108zM445.313 336.531v-106.406h107.938v106.406h-107.938zM579.688 336.531v-106.406h108v106.406h-108zM714.063 336.531v-106.406h107.938v106.406h-107.938zM176.594 203.688v-108.969h107.125v108.969h-107.125zM310.125 203.688v-108.969h108v108.969h-108zM445.313 203.688v-108.969h107.938v108.969h-107.938zM579.688 203.688v-108.969h108v108.969h-108z" />
<glyph unicode="&#xe654;" d="M95.531 918.625v-941.031h475.844c-17.738 16.392-32.756 28.909-44.25 50.281h-377.063v837.031h330.781c86 0 44.563-204.313 44.563-204.313s212.287 47.661 214.844-42.188v-271.219c20.053-0.296 36.093-3.247 54.531-8.469v355.094l-221.219 208.094-16.969 16.719h-461.063zM721.531 307.313c-100.239 0-181.5-80.063-181.5-178.875 0-98.785 81.261-178.875 181.5-178.875s181.5 80.090 181.5 178.875c0 98.812-81.261 178.875-181.5 178.875zM687.188 245.219h81.281v-79.531h80.156v-81.156h-80.156v-81.25h-81.281v81.25h-80.125v81.156h80.125v79.531z" />
<glyph unicode="&#xe655;" d="M57.031 821.313v-887.75h887.75v38.719l-850.031 0.813v848.219h-37.719zM898 802.25l-246.594-84.625 70.406-60.906-133.875-143.625c-6.6 2.007-13.588 3.094-20.844 3.094-14.474 0-27.941-4.33-39.25-11.625l-118.531 70.938c0.077 1.235 0.219 2.421 0.219 3.656 0 39.986-32.445 72.469-72.469 72.469-39.986 0-72.438-32.444-72.438-72.469 0-6.947 1.030-13.576 2.844-19.906l-96.469-88.688v-87l139.563 128.25c8.182-3.203 17.090-5.063 26.469-5.063 15.245 0 29.368 4.746 41.063 12.813l116.875-69.938c-0.154-1.93-0.313-3.836-0.313-5.844 0-39.986 32.413-72.406 72.438-72.406s72.469 32.421 72.469 72.406c0 9.032-1.764 17.667-4.813 25.656l135.531 145.406 79.594-68.844 48.125 256.25zM927.156 501.781l-162.656-66.188 42.031-32.438-119.344-135.531c-6.021 1.621-12.321 2.531-18.844 2.531-19.221 0-36.657-7.515-49.625-19.75l-210 78.219c-4.632 35.547-34.968 63-71.75 63-39.986 0-72.469-32.421-72.469-72.406 0-2.007 0.12-3.969 0.313-5.938l-93.938-87.813v-85l126.906 117.875c11.386-7.256 24.815-11.531 39.25-11.531 19.993 0 38.103 8.103 51.188 21.188l208.094-77.531c3.667-36.551 34.547-65.125 72.063-65.125 39.986 0 72.438 32.421 72.438 72.406 0 9.803-1.957 19.126-5.469 27.656l122 138.594 47.094-36.375 22.719 174.156z" />
<glyph unicode="&#xe656;" d="M480.188 898.469v-77.344h-463v-154.531h76.656v-500.875h313.188l-207.438-189.813 35.063-42.344 259.688 210.469h1.844l259.656-210.469 35.063 42.375-207.406 189.781h320.25v500.875h78.281v154.531h-463.375v77.344h-38.469zM132.344 666.625h735.438v-463h-735.438v463zM326 577.844c-79.431 0-143.813-63.723-143.813-142.344s64.382-142.344 143.813-142.344v142.344h143.813c0 78.62-64.382 142.344-143.813 142.344zM595.813 551.406v-37.844h192.344v37.844h-192.344zM595.75 475.031v-39.094h193.594v39.094h-193.594zM595.75 397.469v-37.875h193.594v37.875h-193.594zM364 396.688v-142.344c79.431 0 143.813 63.723 143.813 142.344h-143.813z" />
<glyph unicode="&#xe657;" d="M303.594 683.031c-18.413 0-33.281-14.456-33.281-32.25v-116.125c0-17.794 14.901-32.25 33.281-32.25 18.413 0 33.313 14.456 33.313 32.25v116.125c0 17.794-14.932 32.25-33.313 32.25zM704.938 683.031c-18.38 0-33.313-14.456-33.313-32.25v-116.125c-0.033-17.794 14.9-32.25 33.313-32.25s33.313 14.456 33.313 32.25v116.125c0 17.794-14.932 32.25-33.313 32.25zM110.156 618.031v-684.469h782.156v684.469l-143.094-0.063v-29.313c13.85-11.863 22.656-29.176 22.656-48.469 0-35.783-29.981-64.781-66.938-64.781s-66.938 28.998-66.938 64.781c0 19.325 8.806 36.605 22.656 48.5v29.313h-312.75v-29.313c13.85-11.863 22.625-29.176 22.625-48.469 0-35.783-29.981-64.781-66.938-64.781s-66.938 28.998-66.938 64.781c0 19.325 8.806 36.605 22.656 48.5v29.313h-149.156zM175.344 422h651.813v-423.125h-651.813v423.125z" />
<glyph unicode="&#xe658;" d="M20.531 606.406v-656.844h958.656v656.844h-958.656zM108.5 518.156h782.219v-480.219h-782.188l-0.031 480.219zM702.594 456.5c-35.328 0-64.031-27.881-64.031-62.25-0.018-34.423 28.703-62.281 64.031-62.281 35.417 0 64.125 27.877 64.125 62.281 0 34.369-28.708 62.25-64.125 62.25zM292.125 380.219l-128.375-230.656v-58h637.625c-81.201 68.028-252.469 208.031-252.469 208.031l-68-114.438-188.781 195.063z" />
<glyph unicode="&#xe659;" d="M399.781 686.719c-61.156 0.029-127.040-26.643-184.438-84.156-57.528-57.441-84.2-123.361-84.156-184.531-0.029-36.063 9.297-70.345 26.469-99.875-17.186-29.544-26.498-63.843-26.469-99.906-0.043-61.17 26.643-127.073 84.156-184.5 57.398-57.513 123.33-84.216 184.5-84.188h0.125c36.034 0 70.297 9.343 99.813 26.5 29.544-17.157 63.828-26.483 99.906-26.469h0.094c61.127 0 126.992 26.657 184.375 84.156 57.528 57.427 84.216 123.282 84.188 184.438 0 36.107-9.36 70.424-26.531 99.969 17.172 29.544 26.514 63.814 26.5 99.906 0.043 61.141-26.631 127.059-84.188 184.5-57.398 57.513-123.313 84.2-184.469 84.156-36.092 0.014-70.393-9.328-99.938-26.5-29.559 17.172-63.86 26.514-99.938 26.5zM399.781 643.219c22.014-0.014 42.837-4.367 61.656-12.375-0.116-0.116-0.228-0.197-0.344-0.313-0.043-0.043-0.113-0.098-0.156-0.156-142.577-17.547-255.799-130.497-273.375-273.406-0.058-0.058-0.13-0.098-0.188-0.156-0.116-0.101-0.211-0.243-0.313-0.344-8.008 18.776-12.329 39.58-12.344 61.594 0.029 48.465 20.86 103.057 71.406 153.719 50.619 50.547 105.191 71.394 153.656 71.438zM599.656 643.188c48.451-0.043 103.071-20.86 153.719-71.406 50.575-50.648 71.363-105.254 71.406-153.719-0.014-22.028-4.336-42.803-12.344-61.594-0.116 0.101-0.197 0.211-0.313 0.313-0.072 0.072-0.146 0.115-0.219 0.188-17.562 142.591-130.495 255.784-273.375 273.375-0.058 0.043-0.098 0.113-0.156 0.156-0.116 0.116-0.211 0.228-0.313 0.344 18.805 8.008 39.58 12.329 61.594 12.344zM311.063 513.156l74.688-73-0.844-0.875c-66.085-66.114-66.413-173.967-0.719-240.5l-74.281-73.375c-106.325 107.641-105.704 280.919 1.156 387.75zM689.281 509.313c106.325-107.641 105.661-280.904-1.156-387.75l-74.719 73.031 0.844 0.813c66.128 66.114 66.445 174.030 0.75 240.563l74.281 73.344zM499.688 444.438h1.188c33.678-0.289 64.77-13.426 88.75-37.594 23.618-24.009 36.348-54.923 36.406-88.5v-1.031c-0.26-68.918-57.301-125.568-126.219-125.438h-1.125v0.031c-33.78 0.304-64.862 13.393-88.813 37.531-23.633 24.066-36.32 54.966-36.406 88.688 0 0.101 0.031 0.321 0.031 0.625v0.25c0.304 68.932 57.27 125.568 126.188 125.438zM812.406 279.875c8.008-18.819 12.361-39.628 12.375-61.656-0.029-48.48-20.845-103.054-71.406-153.688-50.633-50.561-105.254-71.377-153.719-71.406-22.014 0.014-42.789 4.319-61.594 12.313 0.101 0.101 0.211 0.211 0.313 0.313 0.072 0.087 0.115 0.178 0.188 0.25 142.548 17.562 255.753 130.435 273.344 273.344 0.072 0.072 0.146 0.115 0.219 0.188 0.101 0.101 0.18 0.228 0.281 0.344zM187.063 279.844c0.116-0.116 0.211-0.243 0.313-0.344 0.058-0.058 0.13-0.098 0.188-0.156 17.547-142.562 130.449-255.741 273.344-273.375 0.072-0.072 0.115-0.146 0.188-0.219 0.116-0.116 0.211-0.197 0.313-0.313-18.791-7.993-39.58-12.315-61.594-12.344-48.48 0.029-103.083 20.86-153.688 71.406-50.561 50.633-71.394 105.254-71.438 153.719 0.014 22.014 4.367 42.82 12.375 61.625z" />
<glyph unicode="&#xe65a;" d="M498.906 525.781l-484.188-156.781 111.375-36.063v-127.656c-18.66-5.493-32.438-23.051-32.438-44.125 0-16.261 8.214-30.506 20.5-38.688-8.008-7.068-13.219-17.484-13.219-29.25v-87.656l74.563 31.563v56.094c0 11.766-5.18 22.196-13.188 29.25 12.286 8.181 20.438 22.426 20.438 38.688 0 21.060-13.743 38.632-32.375 44.125v119.781l66.875-21.656v-147.5c0-42.047 126.085-76.125 281.656-76.125s281.688 34.092 281.688 76.125v124c0 19.499-64.824 57.86-254.406 74.656-8.701 0.766-15.244 9.795-14.594 20.188 0.636 10.378 8.236 18.172 16.938 17.406 162.567-14.411 254.12-41.943 273.156-81.938l181.406 58.75-484.188 156.813z" />
<glyph unicode="&#xe65b;" d="M563.969 592.063l-43.344-42.156-16.563 12.219-121.281-155.313 283.219-209.188 151.906 147.688-9.594 9.344-28.125-9.344-87.25-84.781c-0.737 1.113-1.582 2.188-2.594 3.156-7.531 7.328-19.751 7.328-27.281 0-1.258-1.229-2.21-2.632-3.063-4.063l-184.5 179.313c1.474 0.809 2.899 1.74 4.156 2.969 7.531 7.314 7.531 19.217 0 26.531-0.896 0.867-1.863 1.616-2.875 2.281l72.531 70.438c0.679-0.983 1.431-1.914 2.313-2.781 7.545-7.328 19.767-7.328 27.313 0 0.434 0.434 0.783 0.944 1.188 1.406l144.344-140.313-46.469-28.594c-11.852-7.401-14.426-23.778-4.25-38.781 10.19-14.989 27.131-19.715 38.969-12.344l65.281 40.156 87.906 35.313c27.073 10.87 32.813 42.156 32.813 42.156l71.5 43.75-50.219 91.594-202.281-46.875c0 0-19.339-4.033-33.75-11.969l75.406-79.938 21.063-0.031-32.875-20.219-183.594 178.375zM614.531 458.563c-14.102 0.002-28.208-5.206-38.969-15.656-21.522-20.915-21.508-54.818 0-75.719 21.508-20.915 56.415-20.915 77.938 0 21.508 20.915 21.522 54.787 0 75.688-10.768 10.458-24.867 15.686-38.969 15.688zM439.813 436.969l169.438-164.656-189.125 139.438 19.688 25.219zM174.75 321.719c-2.527-0.087-5.076-0.757-7.406-2.094-7.458-4.293-9.923-13.65-5.5-20.906l8.781-14.469c-0.101-0.029-0.243-0.048-0.344-0.063-64.047-10.682-123.281-113.219-123.281-113.219h2.313c-2.558-3.975-4.125-8.603-4.125-13.344v-66.813c-5.796 0-10.997-4.944-14.438-14.094l5.594-46.75c-0.708-6.938 4.629-12.656 11.813-12.656h38.438c6.042-42.785 43.654-75.75 89.344-75.75 45.661 0.029 83.271 29.824 89.313 72.594h302.844c6.027-42.756 43.637-72.594 89.313-72.594 45.661 0.014 83.285 29.824 89.313 72.594h36.813c7.184 0 13.094 5.692 13.094 12.688v51.25c-0.043 6.981-5.941 12.719-13.125 12.719h-15.781v37.719c0 11.809-9.379 23.116-20.813 25.125l-127.063 25.625c-19.455 15.206-121.317 93.898-153.969 100.938-42.134 9.077-184.985 11.897-260.813 7.344l-16.219 26.688c-3.041 4.979-8.534 7.66-14.094 7.469zM280.188 251.813c27.897-0.058 55.084-0.618 83.125-1.5v-77.188l-106.688 0.063 23.563 78.625zM238.969 251.5l-23.281-77.969-35.844-1.031c-27.275 0-36.21 18.478-21.438 40 10.407 15.163 23.777 36.886 59.219 38.375 6.432 0.275 13.654 0.48 21.344 0.625zM406.594 248.75c12.329-0.607 22.603-1.294 31.781-2.031 27.68-2.24 97.625-59.531 97.625-59.531 5.522-3.758 4.428-14.43-2.438-14.344h-126.969v75.906zM175.906 71.25c23.821-0.043 43.127-18.799 43.156-41.969-0.043-23.17-19.336-41.909-43.156-41.938-23.85 0.029-43.159 18.782-43.188 41.938 0.029 23.17 19.338 41.925 43.188 41.969zM657.375 71.25c23.835-0.043 43.159-18.813 43.188-41.969-0.029-23.17-19.381-41.923-43.188-41.938-23.864 0.029-43.13 18.767-43.188 41.938 0.058 23.17 19.324 41.925 43.188 41.969z" />
<glyph unicode="&#xe65c;" d="M499.625 686.656c-12.879 0-25.741-4.607-35.563-13.844l-354.75-346.125v-73.531h72.094v-303.594h636.344v303.594h72.094v73.531l-0.375 0.375-72.219-44.938c0 0-5.852-32.286-33.344-43.531l-89.25-36.5-66.313-41.438c-12.040-7.632-29.228-2.745-39.563 12.75-10.364 15.509-7.742 32.385 4.313 40.031l47.219 29.531-146.656 144.906c-0.405-0.477-0.739-1.006-1.188-1.469-7.661-7.56-20.058-7.543-27.719 0.031-0.911 0.896-1.681 1.878-2.375 2.875l-73.625-72.75c1.026-0.694 1.996-1.464 2.906-2.375 7.661-7.56 7.678-19.815 0.031-27.375-1.272-1.258-2.747-2.255-4.25-3.094l187.375-185.156c0.853 1.489 1.853 2.916 3.125 4.188 7.661 7.56 20.058 7.574 27.719 0 1.012-1.012 1.859-2.123 2.625-3.25l88.594 87.563 28.563 9.656 9.75-9.656-154.25-152.531-287.656 216.031 123.188 160.406 16.813-12.594 44.063 43.531 186.438-184.25 33.375 20.875-21.375 0.031-76.594 82.563c14.642 8.21 34.281 12.375 34.281 12.375l167.906 39.563-27.469 32.125v241.469h-115.375v-139.906l-123.281 126.063c-9.836 9.236-22.746 13.844-35.625 13.844zM528.625 304.031c14.324-0.002 28.659-5.414 39.594-16.219 21.855-21.595 21.824-56.578-0.031-78.188-21.855-21.595-57.27-21.595-79.125 0s-21.84 56.61 0 78.219c10.92 10.797 25.238 16.189 39.563 16.188zM351.188 281.719l-20-26.031 192.094-144-172.094 170.031z" />
<glyph unicode="&#xe65d;" d="M381.375 686.75c-114.174 0-206.75-100.459-206.75-224.375 0-107.742 70.027-197.66 163.344-219.313l-27.031-42.281c-6.374-10.797-1.241-19.625 11.406-19.625h40.094v-231.594h29.406v231.594h48.625c12.691 0 17.855 8.842 11.438 19.625l-27.063 42.281c93.317 21.652 163.344 111.57 163.344 219.313 0 123.902-92.624 224.375-206.813 224.375zM377.313 640.063v-45.438c-32.45-0.029-57.83-14.131-79.844-37.938-21.927-23.806-35.844-63.872-35.844-101.063h-46.125c0.043 48.378 18.066 99.288 47.813 131.594 29.675 32.276 67.587 52.873 114 52.844zM627.063 526.031c-3.989 0-7.866-0.384-11.813-0.688 4.741-20.236 7.5-41.244 7.5-62.969 0-61.17-19.879-117.702-53.5-162.25-20.872-27.694-47.464-50.378-77.688-67 24.095-34.994 59.253-60.439 100-69.906l-22.094-37.188c-5.247-8.817-1.037-16.938 9.313-16.938h29.469v-159.531h29.094v159.531h38.063c10.349 0 14.559 8.12 9.313 16.938l-22.094 37.188c76.318 17.721 133.563 91.245 133.563 179.344 0 101.324-75.736 183.469-169.125 183.469z" />
<glyph unicode="&#xe65e;" d="M397.188 599.75c-20.175-0.435-28.993-6.32-33.844-12.125-8.86-10.581 4.897-23.95 42.594-41.656 98.954-46.427 112.998-83.032 107.188-122.969-0.781-5.406-15.136-27.114-30.125-45.688l90.063-87.781c25.194 21.334 66.047 48.603 94.219 35.406 18.097-8.47 62.961-40.599 63.063-40.469-12.185-10.884-12.013-26.425-2.719-35.531l20.688-20.188c9.28-9.092 24.381-9.109 33.719-0.031l80.156 77.906c9.294 9.048 9.309 23.781 0 32.844l-20.719 20.188c-9.294 9.121-24.884 9.247-36.375-2.563-0.014 0.014-99.545 146.907-258.281 205.563-79.004 29.197-123.686 37.653-149.625 37.094zM456.969 349.844l-314.688-284.688c-13.081-12.763-13.496-33.010-0.906-45.281l61.75-60.219c22.765-18.675 38.377-7.219 46.5 0.875 101.295 100.92 269.966 275.937 295.969 302.938l-88.625 86.375z" />
<glyph unicode="&#xe65f;" d="M172.188 577.094c-15.119 0-27.375-12.378-27.375-27.656v-566.219c0-15.278 12.256-27.656 27.375-27.656h653.656c15.119 0 27.406 12.378 27.406 27.656v44.688h-33.781c-5.493 0-9.938 4.512-9.938 10.063v124.781c0 5.565 4.445 10.063 9.938 10.063h33.781v187.594h-33.781c-5.478 0-9.938 4.498-9.938 10.063v124.344c0 5.55 4.445 10.031 9.938 10.031h33.781v44.594c0 15.278-12.287 27.656-27.406 27.656h-653.656zM464.031 486.75c22.288 0 40.438-18.305 40.438-40.781l-15.219-132.188c71.462-27.347 53.25-94.781 53.25-94.781l109.625-59.781c9.381-6.519 15.294-15.852 17.188-26.563 1.894-10.725 0.212-22.059-6.625-30.5-26.711-32.956-56.281-10.156-56.281-10.156l-93.094 82.781c-13.067-9.858-29.236-15.75-46.813-15.75-18.834 0-36.142 6.733-49.656 17.906l-94.688-84.531c-7.314-5.175-15.263-7.719-23.531-7.719-13.226 0-25.676 6.541-33.25 17.469-12.734 18.444-8.208 43.886 10.063 56.75l114.438 62.563c-0.029 0-14.793 61.488 48.719 90.469l-14.969 133.438c-0.029 23.083 18.103 41.375 40.406 41.375z" />
<glyph unicode="&#xe660;" d="M252.688 599.75l-110.781-42.844 277.125-195.813c-108.046-49.491-211.928-101.871-284.156-144.844l-72.406 67-46.75-18.563 39.625-102.875c-14.281-12.619-21.090-22.695-18.531-29.344 2.443-6.389 13.332-9.281 30.938-9.281 101.57 0 427.003 96.704 649.469 182.75 225.689 87.304 278.804 155.775 264.813 192.156-6.432 16.695-29.279 27.438-70.531 27.438-53.018 0-136.421-17.745-254.469-63.406-10.060-3.888-20.324-7.929-30.688-12.063l-77.906 31.219c5.854 8.355 7.571 19.391 3.625 29.625-4.842 12.561-16.792 20.25-29.469 20.25-3.773 0-7.648-0.694-11.406-2.125l-41.469-16.219-41.906 16.781c8.311 8.6 11.474 21.51 6.906 33.406-4.842 12.575-16.838 20.281-29.5 20.281-3.773 0-7.631-0.68-11.375-2.125l-46.844-19.188-94.313 37.781zM644.031 238.594c-66.836-23.994-138.249-47.778-207.875-69.156l-60.313-219.875 110.781 42.844 38.844 70.469 50.25 17.781c16.434 6.374 25.13 23.562 19.406 38.406 0 0-5.941 17.413-27.594 17.688l27.281 51.938 31.063 12.031c0 0 24.762 5.772 18.156 37.875zM153.75 95.875c-27.029-5.045-50.495-8.355-69.531-9.656l14.719-44.875 47.031 17.875 7.781 36.656z" />
<glyph unicode="&#xe661;" d="M646.243 941.802l-252.058-252.058 252.058-252.059v504.117zM646.243 437.685l-252.058-252.058 252.058-252.059v504.117z" />
<glyph unicode="&#xe662;" d="M396.211 941.802l252.058-252.058-252.058-252.059v504.117zM396.211 437.685l252.058-252.058-252.058-252.059v504.117z" />
<glyph unicode="&#xe663;" d="M498.969 907.344c-264.461 0-478.875-214.382-478.875-478.875s214.382-478.906 478.875-478.906c264.461 0 478.906 214.413 478.906 478.906s-214.445 478.875-478.906 478.875zM498.969 837.906c225.76 0 409.438-183.647 409.438-409.406 0-225.791-183.678-409.438-409.438-409.438s-409.438 183.678-409.438 409.438c0 225.76 183.678 409.406 409.438 409.406zM346.75 621.531c-35.7 0-64.25-28.646-64.25-64.219s28.55-65.063 64.25-65.063c35.572 0 64.25 29.49 64.25 65.063s-28.678 64.219-64.25 64.219zM651.219 621.531c-35.7 0-64.25-28.646-64.25-64.219s28.55-65.063 64.25-65.063c35.604 0 64.25 29.522 64.25 65.063 0 35.572-28.678 64.219-64.25 64.219zM336.219 291.719c-3.385-6.929-5.406-14.684-5.406-23.625 0-57.797 75.266-104.656 168.156-104.656 92.858 0 168.156 46.859 168.156 104.656 0 8.941-1.958 16.696-5.375 23.625-41.607-14.593-78.545-35.813-162.781-35.813-84.205 0-121.143 21.22-162.75 35.813z" />
<glyph unicode="&#xe664;" d="M498.125 907.344c-264.493 0-478.875-214.413-478.875-478.906s214.382-478.875 478.875-478.875c264.461 0 478.875 214.382 478.875 478.875s-214.414 478.906-478.875 478.906zM498.125 837.906c225.76 0 409.406-183.647 409.406-409.406s-183.647-409.438-409.406-409.438c-225.76 0-409.438 183.678-409.438 409.438s183.678 409.406 409.438 409.406zM345.875 621.531c-35.7 0-64.219-28.646-64.219-64.219s28.551-65.063 64.219-65.063c35.572 0 64.281 29.49 64.281 65.063s-28.709 64.219-64.281 64.219zM650.375 621.531c-35.7 0-64.25-28.646-64.25-64.219s28.582-65.063 64.25-65.063c35.572 0 64.25 29.522 64.25 65.063 0 35.572-28.678 64.219-64.25 64.219zM498.125 291.75c-92.89 0-168.156-46.828-168.156-104.625 0-8.941 2.021-16.727 5.406-23.656 41.576 14.625 78.514 35.844 162.719 35.844 84.141 0 121.111-21.251 162.719-35.844 3.385 6.929 5.406 14.715 5.406 23.656 0.032 57.797-75.235 104.625-168.094 104.625z" />
<glyph unicode="&#xe665;" d="M501.125 907.344c-264.461 0-478.875-214.414-478.875-478.875s214.382-478.906 478.875-478.906c264.493 0 478.906 214.445 478.906 478.906s-214.413 478.875-478.906 478.875zM501.125 837.875c225.76 0 409.438-183.647 409.438-409.375 0-225.791-183.678-409.438-409.438-409.438s-409.406 183.678-409.406 409.438c0 225.76 183.647 409.375 409.406 409.375zM348.906 621.531c-35.7 0-64.25-28.646-64.25-64.219s28.55-65.063 64.25-65.063c35.572-0.032 64.25 29.458 64.25 65.063 0 35.572-28.678 64.219-64.25 64.219zM653.375 621.531c-35.7 0-64.219-28.646-64.219-64.219s28.519-65.063 64.219-65.063c35.572 0 64.25 29.49 64.25 65.063s-28.678 64.219-64.25 64.219zM501.125 397.375c-60.096 0-108.813-59.038-108.813-131.875s48.716-131.906 108.813-131.906c60.096 0 108.875 59.037 108.875 131.906 0 72.837-48.779 131.875-108.875 131.875z" />
<glyph unicode="&#xe666;" d="M501.906 907.344c-264.493 0-478.875-214.413-478.875-478.906 0-264.461 214.382-478.875 478.875-478.875 264.461 0 478.875 214.382 478.875 478.875s-214.414 478.906-478.875 478.906zM501.906 837.875c225.76 0 409.406-183.647 409.406-409.375 0-225.76-183.647-409.438-409.406-409.438-225.76 0-409.438 183.678-409.438 409.438s183.678 409.375 409.438 409.375zM349.656 621.531c-35.7 0-64.219-28.646-64.219-64.219-0.032-35.572 28.519-65.063 64.219-65.063 35.572 0 64.281 29.49 64.281 65.063s-28.709 64.219-64.281 64.219zM654.156 621.531c-35.7 0-64.25-28.646-64.25-64.219s28.55-65.063 64.25-65.063c35.572 0 64.25 29.49 64.25 65.063s-28.678 64.219-64.25 64.219zM501.906 374.406c-130.658 0-261.313-26.747-261.313-80.281 0-107.1 116.98-193.906 261.313-193.906s261.313 86.806 261.313 193.906c0 53.534-130.655 80.281-261.313 80.281z" />
<glyph unicode="&#xe667;" d="M61.906 888.281v-507.656h8.656l429.75-447.063 429.75 447.063h8.656v507.656h-876.813zM409.469 671.938h46.156v-276.875h-46.156v276.875zM542.125 671.938h46.156v-276.875h-46.156v276.875z" />
<glyph unicode="&#xe668;" d="M36.593 963.328v-550.781h9.391l466.257-485.040 466.257 485.040h9.391v550.781h-951.296zM961.168 427.488v-8.864h-8.864l-440.064-457.793-440.064 457.793h-8.864v519.84h897.855v-510.976z" />
<glyph unicode="&#xe669;" d="M767.75 695.938l-85.969-85.875 101.094-100.938 85.969 85.875-101.094 100.938zM636.156 564.438l-431.531-431.094 0.313-0.313-82.438-183.469 182.875 83.125 0.313-0.281 0.844 0.844 430.719 430.25-45.656 45.625-328.438-328.063-27.375 27.375 328.375 328.031-28 27.969zM292.063 163.563l5.781-38.281 38.031-5.406-40.25-40.25-79.781-36.25 35.969 80.031 40.25 40.156z" />
<glyph unicode="&#xe66a;" d="M922.231 316.071c26.79 26.185 36.244 51.136 29.155 133.841-4.361 50.881 68.527 113.423-29.155 153.593-61.964 0-124.438-37.809-223.093-109.288 24.785 49.57 202.627 180.179 155.365 239.253-56.712 44.897-49.623 37.809-118.15 28.355-44.128-6.087-118.15 85.067-172.499-4.726 0-61.964 47.262-137.052 106.336-248.111-61.032 40.896-116.341 166.452-233.938 163.046-37.179-32.040-53.31-56.712-30.719-139.418 0-37.177-50.73-56.013-0.155-139.483 73.406-50.877 237.134 89.629 269.534 101.084-97.716-105.69-126.642-119.447-179.363-179.727-7.313-61.957 9.227-117.731 122.651-99.142 75.615-30.092 118.15-58.45 163.046 12.441 2.361 99.246-75.038 215.66-87.429 252.838 40.462-25.769 118.15-170.136 228.412-164.559zM903.637 252.534c-12.39 0-110.572 89.722-146.020 135.939 0-37.177 108.699-165.408 179.587-205 37.177 0 21.765 0 58.945 0 0 11.236-38.821 27.848-92.515 69.061z" horiz-adv-x="1448" />
<glyph unicode="&#xe66b;" d="M874.398 572.686c-38.554 0-69.83-31.223-69.83-69.776s31.276-69.83 69.83-69.83c38.554 0 69.776 31.276 69.776 69.83s-31.223 69.776-69.776 69.776zM1192.473 564.731c-25.305-25.302-70.17-65.734-86.171-81.066-6.437-6.167-82.963-67.454-114.931-81.816-17.038-7.289-73.47-26.031-93.106-32.038-39.824-12.18-107.366-12.433-154.387 0.537-40.761 11.244-131.862 65.099-137.456 66.496-17.072 12.203-65.54 35.748-140.090 57.734-20.889 6.162-76.849-0.121-135.412-13.707-30.933-7.177-80.473-34.126-80.473-38.113 55.822 0 111.243-1.957 141.38-7.795 29.047-5.628 79.596-27.613 88.054-36.072 0.177-0.177 106.419-56.643 112.94-61.875 12.824-10.289 49.138-26.185 54.777-31.824 3.747-3.747 50.49-19.337 66.549-22.955 52.005-11.714 168.735-8.045 200.725 1.881 30.272 16.577 56.938 29.724 107.566 68.593 6.786 4.197 148.852 149.288 170.033 212.020z" horiz-adv-x="1448" />
<glyph unicode="&#xe66c;" d="M451.673 738.55c-193.818 0-350.943-156.336-350.943-349.215 0-192.831 157.125-349.179 350.943-349.179v349.179h350.973c0 192.879-157.125 349.215-350.973 349.215zM544.388 294.102v-349.179c193.821 0 350.97 156.297 350.97 349.179h-350.97z" />
<glyph unicode="&#xe66d;" d="M120.402 838.809v-793.133h0.753v-0.753h792.381v35.278h-758.608v758.608c-0.003 0-34.526 0-34.526 0zM223.976 770.137v-201.976h103.104v201.976c0 0-103.104 0-103.104 0zM396.129 631.378v-204.61h103.104v204.61h-103.104zM740.91 562.423v-110.537h103.198v110.537h-103.198zM223.976 545.583v-242.050h103.104v242.050h-103.104zM568.191 493.655v-129.538h103.198v129.538h-103.198zM740.91 427.521v-178.363h103.198v178.363h-103.198zM396.129 407.577v-54.939h103.104v54.939h-103.104zM568.191 340.786v-191.44h103.198v191.44h-103.198zM396.129 331.566v-182.219h103.104v182.219h-103.104zM223.786 282.554v-133.208h103.198v133.208h-103.198zM740.91 228.838v-79.491h103.198v79.491h-103.198z" />
<glyph unicode="&#xe66e;" d="M206.79-25.507v0.729h-1.939v757.304h-33.71v-792.586h792.586v34.553h-756.937zM584.661 663.589h-310.126v-103.366h310.126v103.366zM722.496 491.301h-447.961v-103.384h447.961v103.384zM584.661 318.995h-310.126v-103.366h310.126v103.366zM860.333 146.703h-585.799v-103.366h585.799v103.366z" />
<glyph unicode="&#xe66f;" d="M186.747-33.695v0.729h-1.936v757.304h-33.71v-792.586h792.582v34.553h-756.937zM357.867 655.398h-103.375v-620.249h103.375v620.249zM530.164 517.569h-103.381v-482.42h103.381v482.42zM702.456 379.728h-103.375v-344.579h103.375v344.579zM874.75 448.65h-103.375v-413.498h103.375v413.498z" />
<glyph unicode="&#xe670;" d="M314.796 849.047l-0.86-881.602 878.162 0.86 0.86 881.602-878.162-0.86zM1051.902 348.469h-239.108v-239.108h-118.694v239.108h-239.108v118.694h239.108v239.108h118.694v-239.108h239.108v-118.694z" horiz-adv-x="1448" />
<glyph unicode="&#xe671;" d="M753.447 847.327c-242.736 0-439.511-196.775-439.511-439.511s196.775-439.511 439.511-439.511 439.511 196.775 439.511 439.511-196.775 439.511-439.511 439.511zM1051.902 348.469h-239.108v-239.108h-118.694v239.108h-239.108v118.694h239.108v239.108h118.694v-239.108h239.108v-118.694z" horiz-adv-x="1448" />
<glyph unicode="&#xe672;" d="M314.796 849.047l-0.86-881.602 878.162 0.86 0.86 881.602-878.162-0.86zM1051.902 348.469h-596.909v118.694h596.909v-118.694z" horiz-adv-x="1448" />
<glyph unicode="&#xe673;" d="M753.447 847.327c-242.736 0-439.511-196.775-439.511-439.511s196.775-439.511 439.511-439.511 439.511 196.775 439.511 439.511-196.775 439.511-439.511 439.511zM1051.902 348.469h-596.909v118.694h596.909v-118.694z" horiz-adv-x="1448" />
<glyph unicode="&#xe674;" d="M438.99 717.179c-157.81 0-285.766-127.957-285.766-285.766s127.957-285.766 285.766-285.766c68.094 0 130.069 24.57 179.158 64.332-37.25 36.128-65.398 81.623-80.709 132.625h23.77c14.833-45.395 40.729-85.817 74.501-118.019 33.975 32.291 60.096 72.533 74.975 118.138h23.71c-15.373-51.289-43.998-96.68-81.537-132.92 49.217-40.169 111.503-64.153 179.987-64.153 157.81 0 285.766 127.957 285.766 285.766s-127.955 285.766-285.766 285.766c-68.48 0-130.769-23.985-179.987-64.153 37.539-36.239 66.164-81.629 81.537-132.92h-23.71c-14.877 45.605-40.999 85.848-74.975 118.138-33.769-32.203-59.669-72.623-74.501-118.019h-23.77c15.315 51.004 43.461 96.497 80.709 132.625-49.091 39.761-111.063 64.332-179.158 64.332zM1062.909 498.525h30.214l-25.012-134.163h-30.983l-3.725 8.515c-5.895-4.052-15.424-8.145-25.012-8.515-20.639 0-39.574 29.167-30.214 61.198 14.002 47.911 38.668 44.996 54.516 44.996 13.64 0 16.935-8.486 22.468-12.535l7.745 40.503zM787.551 498.229c0.652-0.003 1.27-0.036 1.891-0.060 23.589-0.878 32.068-8.797 39.438-16.91l-18.802-18.802c-7.373 4.426-12.527 5.145-22.114 5.145-9.579 0-30.949-9.148-35.005-35.005-4.792-30.588 16.22-45.721 45.706-35.773l8.455-25.78c-9.581-4.424-19.156-6.681-35.005-6.681-29.858 0-62.283 26.539-47.539 80.356 10.188 37.176 40.779 52.314 60.962 53.452 0.673 0.037 1.358 0.063 2.011 0.060zM526.264 497.105h28.737l-5.913-28.026h15.491l-5.145-22.883h-14.723l-8.159-42.75c-1.476-8.111-0.684-15.47 15.904-12.89l-1.891-21.345c-6.267-4.055-14.708-5.205-21.345-5.205-6.63 0-28.416 4.070-22.883 32.815l19.926 100.282zM202.655 491.902h46.060l5.498-77.399 35.062 77.399h47.183l-24.006-127.539h-29.86l16.97 89.934-40.147-89.934h-27.317l-7.745 92.181-17.678-92.181h-28.737l24.715 127.539zM481.444 470.97c5.356 0.070 13.954-0.27 24.183-4.138l-6.622-21.345c-8.118 2.215-21.751 2.219-28.381 1.478-10.693-2.947-6.311-12.911-0.414-15.491 5.898-2.583 15.11-7.722 20.636-11.412 5.527-3.313 12.334-10.376 9.993-25.838-4.785-31.703-39.060-29.86-46.060-29.86-9.962 0-20.67 0.035-33.939 3.725l4.081 21.759c14.374-4.795 33.534-2.601 37.959-2.601 9.646 0 10.959 12.2 3.667 15.847-5.895 2.95-12.174 7.385-23.236 12.181-6.849 2.967-13.986 11.036-9.933 30.569 5.29 25.486 39.818 25.070 43.873 25.070 1.015 0 2.412 0.036 4.198 0.060zM381.755 470.911c48.283 0 43.513-34.649 40.563-49.018l-11.412-57.532h-26.903l-3.725 5.913c-5.162-3.684-9.204-5.528-23.946-6.268-14.743-0.734-33.534 10.353-30.214 32.107 8.104 44.228 59.678 36.096 67.051 36.836 3.321 15.847-7.721 14.351-17.678 14.723-9.951 0.362-28.703-2.58-35.713-3.31l4.375 22.883c18.806 3.686 28.763 3.296 37.605 3.667zM868.32 470.911c48.283 0 43.513-34.649 40.563-49.018l-11.47-57.532h-26.903l-3.667 5.913c-5.162-3.684-9.204-5.528-23.946-6.268-14.741-0.734-33.533 10.353-30.214 32.107 8.104 44.228 59.68 36.096 67.051 36.836 3.323 15.847-7.722 14.351-17.678 14.723-9.952 0.362-28.763-2.58-35.773-3.31l4.435 22.883c18.803 3.686 28.76 3.296 37.605 3.667zM611.407 470.557c50.495 0 42.757-42.049 39.438-59.010h-62.676c-3.31-23.962 15.127-23.178 26.55-23.178 11.431 0 28.041 1.44 32.461 2.543l-4.435-21.7c-7.010-3.691-24.73-5.217-36.896-4.849-49.756 0-48.996 46.812-47.895 53.452 1.105 6.63 7.006 52.743 53.452 52.743zM928.334 470.201h24.952l2.601-10.406c4.469 5.218 13.035 10.406 27.553 10.406l-7.805-27.553c-7.074 0-20.526 1.836-29.091-29.8l-8.928-48.366h-29.031l19.749 105.722zM671.186 469.078h24.715l2.601-10.346c4.424 5.164 12.884 10.346 27.258 10.346l-7.392-27.673c-7.001 0-20.616 2.225-29.091-29.091l-8.868-47.953h-28.737l19.513 104.715zM590.025 430.728h35.753c1.847 10.319-1.474 19.168-12.896 19.168-11.433 0-19.54-5.898-22.856-19.168v0zM388.41 411.565c-4.795 0.744-15.483 3.691-24.699-2.578-9.22-6.269-11.796-17.32-2.21-21.012 9.226-3.546 22.841 2.569 24.696 12.166l2.214 11.423zM1044.866 414.887c2.95 9.578 1.34 21.547-1.843 25.793-8.845 11.796-29.186 2.469-35.386-20.635-4.052-15.106 4.797-26.539 14.743-26.539 10.693 0 17.32 8.483 22.486 21.382v0zM874.949 411.565c-4.795 0.744-15.487 3.691-24.703-2.578s-11.794-17.32-2.207-21.012c9.221-3.546 22.84 2.569 24.693 12.166l2.217 11.423z" horiz-adv-x="1448" />
<glyph unicode="&#xe675;" d="M683.556 739.103c-34.531-5.12-62.605-34.599-82.376-80.736s-103.798-308.101-115.334-347.645c-11.535-39.543-49.428-136.745-79.083-153.226s-13.556-17.354 36.25-16.478c42.834-3.293 467.912 0 467.912 0l70.5-0.995c75.163 16.030 46.485 80.079 11.886 147.637-34.599 67.548-72.49 187.825-75.791 194.42-3.293 6.594-52.719-136.745-52.719-136.745l-56.022-148.284c0 0-16.478-36.25-32.949-32.949-16.478 3.293-49.428 9.886-37.891 37.891 11.535 28.005 11.535 62.605 41.192 146.631 38.040 122.172 90.974 331.268 146.642 367.405 41.192 13.176 55.893 13.454 62.605 16.478 18.109 8.165-260.335 13.19-304.821 6.596v0z" horiz-adv-x="1448" />
<glyph unicode="&#xe676;" d="M120.414 838.833v-793.133h0.753v-0.753h792.381v35.278h-758.608v758.608h-34.526zM235.936 683.611l-42.897-14.016 130.574-295.39-106.867-133.395 24.929-24.835 98.589 120.414 69.428-157.008 1.222-3.010 1.505 2.824 167.451 304.232 184.667 31.326 111.573-221.827 29.917 14.016-122.295 249.296-180.245-29.917 39.7 72.155 231.421 21.732-0.376 36.594-251.74-24.742-63.97-113.264-137.347-22.767-63.031-78.645-122.205 266.229zM534.054 475.617l-111.852-197.837-46.66 101.599 65.945 80.527 92.568 15.711z" />
<glyph unicode="&#xe677;" d="M753.447 847.327c-242.736 0-439.511-196.775-439.511-439.511s196.775-439.511 439.511-439.511 439.511 196.775 439.511 439.511-196.775 439.511-439.511 439.511zM753.447 763.646c43.089 0 78.018-34.93 78.018-78.018s-34.93-78.018-78.018-78.018-78.018 34.93-78.018 78.018c0 43.089 34.929 78.018 78.018 78.018zM857.394 80.978h-207.893v20.642h25.929v457.573h156.038v-457.573h25.929v-20.642z" horiz-adv-x="1448" />
<glyph unicode="&#xe678;" d="M959.32 503.834c-2.342 7.196-9.098 12.114-16.668 12.114h-318.678l-98.638 302.948c-2.354 7.194-9.086 12.088-16.658 12.1-7.56 0.012-14.312-4.876-16.664-12.076l-99.192-302.972h-318.126c-7.57 0-14.328-4.908-16.666-12.1-2.336-7.206 0.23-15.14 6.342-19.602l257.434-187.518-99.19-304.644c-2.35-7.196 0.23-15.14 6.354-19.606 6.126-4.448 14.474-4.448 20.602 0l259.084 188.092 258.552-188.092c3.078-2.238 6.686-3.36 10.302-3.36 3.61 0 7.224 1.122 10.306 3.36 6.176 4.486 8.714 12.368 6.372 19.606l-99.208 304.636 257.974 187.512c6.126 4.448 8.702 12.398 6.366 19.602z" />
<glyph unicode="&#xe679;" d="M706.021 481.572c0.048 0.074 0.122 0.138 0.162 0.21-0.181 0.865-0.323 1.624-0.396 2.167 0.086-0.786 0.17-1.584 0.234-2.377zM875.155 296.888c0.010 0.005 0.010 0.010 0.010 0.015-0.024 0.015-0.093 0.015-0.117 0.034 0.024-0.026 0.083-0.026 0.107-0.050zM879.486 296.35c-1.048 0.167-3.401-0.138-4.33 0.538-0.569-1.982 0.298-2.725 4.33-0.538zM714.741 847.151c-243.212 0-440.369-197.162-440.369-440.373 0-243.207 197.157-440.369 440.369-440.369s440.373 197.162 440.373 440.369c0 243.21-197.162 440.373-440.373 440.373zM996.024 675.119c-15.174-0.456-25.732-0.48-37.927-8.895-4.913-3.396-8.25-7.892-14.479-9.643-5.584-1.565-11.627-0.196-17.166-2.075-20.013-6.786-16.837-49.645-43.201-43.177-12.384 3.043-21.114 17.678-27.348 27.231-5.489 8.407-15.492 15.365-8.733 25.889-3.077-0.793-6.366 0.112-9.404-0.47 4.228 9.277 18.389 8.46 20.742 13.206 5.871 11.88-16.148 13.118-22.387 14.768 7.516 8.014 11.322-2.696 18.745-0.876 7.134 1.751-3.772 11.147-8.044 12.198-1.536 0.382-26.653-6.938-12.11 6.062-17.943 11.444-35.882 22.88-53.828 34.32-3.024-12.728 23.883-19.954 32.672-24.446-1.366-5.25-9.542-12.908-15.805-10.657-5.887 2.109-3.494 11.876-12.394 10.897-6.361-14.782 13.436-10.457 15.275-19.514 2.093-10.314-7.486-5.945-11.166-5.764-0.876 0.048-7.736 7.149-8.107 1.767-0.451-6.38 10.946-3.889 11.749-10.338-13.27-0.538-20.042 4.252-30.841 11.426-12.6 8.367-19.068 7.614-34.505 7.614 4.614 1.894 10.98 3.303 14.924 6.351 2.162 1.674 10.627 9.898 11.181 11.739 2.393 7.922-0.132 7.325-7.706 12.511-6.738 4.619-14.919 12.893-23.080 14.522-29.593 5.911-9.131-26.716-31.6-31.218 0.387-0.015 0.807-0.040 1.135-0.040h-1.282c0.048 0.010 0.098 0.029 0.146 0.040-5.186 0.191-14.933 1.454-18.275-1.287-2.364-1.934-2.565-9.683-5.207-12.492-4.703-5.011-11.704-6.014-17.321-9.63-5.481-3.528-17.551-12.585-20.766-18.731-11.861-22.65 26.701-29.677 41.328-36.301 6.606-2.99 25.91-7.085 29.51-12.086 4.82-6.709-4.165-13.006 5.911-17.728 3.21-1.497 9.845-1.801 12.614 1.316 4.507 5.064-1.83 6.215-2.907 12.071-2.085 11.274 1.35 6.802 7.022 10.99 11.567 8.539 8.959 9.057 4.805 22.66-1.934 6.332-9.224 24-2.818 28.674 8.362 6.102 26.188-3.303 32.598-4.091 7.462-0.915 11.694-11.245 15.76-15.471 2.696-2.804 7.521-8.763 12.243-8.118 7.486 1.022 4.35 7.569 8.699 10.584 11.641 8.083 14.704-2.892 19.357-13.867 4.364-10.309 8.494-14.137 16.264-20.747 3.611-3.083 19.43-14.068 17.933-20.835-1.008-4.565-19.079-11.479-23.912-13.012-17.66-5.598-50.796 9.155-54.357-18.853 6.855 2.554 26.345 18.477 32.192 10.932 2.666-3.43-2.109-8.417-0.989-11.816 3.332-10.202 11.2-6.645 19.445-4.995-0.557-0.353-1.14-0.661-1.743-0.925 11.269 5.788 10.089 4.579 15.262 13.97 1.688 3.069 4.202 10.495 6.581 12.688 8.192 7.54 9.449 2.353 14.522-3.464 1.331-1.536 13.877-19.591 9.404-18.697-14.586 2.931-28.6 2.539-40.696-5.441-6.977-4.605-13.569-10.818-21.896-13.877-1.997-0.735-16.779-2.133-15.031 0.387 2.549 3.674 11.333 6.117 14.797 10.070-9.606 3.958-17.605-4.767-25.16-9.869-7.995-3.791-9.86-10.842-16.676-17.039-2.974-2.696-8.603-3.157-11.524-6.709-2.833-3.44-3.186-8.861-5.876-12.129-1.878-2.29-6.714-0.9-8.675-4.359-2.56-4.512 2.353-8.69 1.273-11.943-1.966-5.905-13.197-10.906-17.517-15.158 0.583 0.552 1.149 1.12 1.708 1.703-4.321-4.536-9.791-7.882-13.177-13.134 1.552-7.417 6.449-25.106 5.083-29.178-4.502-13.388-13.246 7.282-16.787 12.619-12.179 18.36-36.522 6.072-53.159 4.555-21.265-1.942-42.095-29.55-28.972-51.955 6.292-10.744 16.885-14.904 29.040-12.413 10.808 2.212 14.057 17.346 24.244 17.62 18.716 0.494 0.411-18.344-1.204-25.253-1.497-6.404 2.329-7.006 8.921-8.582 4.868-1.17 11.763 2.080 15.981-0.705 2.661-1.756 2.53-11.357 6.184-8.327-7.189-5.964-5.51-20.116 1.865-25.223 8.186-5.677 17.825-0.425 26.388-2.608 16.177-4.12 8.45 1.239 22.66 9.81 9.582 5.783 11.155-1.085 17.708-1.116 4.457-0.019 7.295 6.415 14.747 4.541 6.077-1.526 8.481-6.219 15.731-7.295 2.974-0.44 6.053 1.111 8.895 0.798 13.412-1.488 23.687-10.065 34.266-17.816 8.715-6.385 14.484-5.094 24.671-8.001 7.438-2.124 21.158-12.884 20.453-22.332-0.127-1.693-6.624-10.187-7.736-14.018 1.904-1.321 15.139 1.639 19.020 1.918-1.273-1.483-10.29-7.81-10.29-4.452 0-1.722 6.375-5.266 7.932-6.361 4.698 15.267 12.423 5.441 21.716 1.658 7.903-3.215 17.625-3.385 26.056-5.396 7.154-1.708 22.934-6.537 28.242-12.384 6.375-7.032 1.958-18.461-2.764-25.473-6.176-9.179-15.482-12.697-19.337-23.501-3.048-8.558-0.759-17.209-2.499-26.697-2.353-12.84-4.237-8.343-12.511-16.182-6.958-6.592-0.117-5.446-9.585-9.654-9.521-4.228-17.899-2.974-24.49-13.412 0.265 0.655 0.48 1.321 0.661 2.001-2.78-3.889-4.173-11.861-5.486-14.474-3.327-6.669-7.908-10.882-13.163-16.436-2.016-2.128-20.531-27.422-21.599-25.39-1.374 2.642-15.97-2.653-16.665 1.12 0.583-3.165-0.138-2.109 3.489-3.939-3.361-20.782-12.155-23.878-32.569-24.093 1.761-9.987-7.388-7.995-11.641-13.368-2.486-3.136-3.674-11.954-5.396-16.010-1.082-2.554-9.047-12.771-9.047-14.806-0.005-1.86 2.682-4.595 5.207-7.218-14.391-2.843-29.070-4.829-43.973-6.038 2.794 3.513 3.464 6.6-5.417 7.022 2.374 6.459 7.956 10.153 10.325 16.402 1.116 2.955 0.191 4.125 1.14 7.046 3.255 10.104 1.844 6.292 0.010 14.137-4.292 18.384 1.526 23.414 6.537 40.251 5.143 17.297 4.663 39.723 7.956 58.359 1.565 8.916 4.135 27.465 1.037 35.895-3.489 9.492-18.843 16.97-25.87 23.355-9.953 9.062-15.246 18.867-22.636 30.073-3.748 5.685-8.025 11.274-10.951 17.463-6.258 13.24 0.005 5.358 1.056 13.168 1.008 7.55-0.896 14.288 2.093 22.215 3.318 8.759 11.592 14.214 14.317 23.042 2.438 7.863 0.573 17.742-7.497 20.365-4.507 1.467-9.468-1.913-13.989-1.175-6.308 1.024-13.447 5.73-18.392 9.497-6.908 5.26-9.492 13.818-16.856 18.8-6.155 4.165-10.534 1.674-17.116 3.616-6.879 2.030-11.112 10.505-16.66 13.158-8.319 3.979-13.001-1.732-21.779-0.583-7.467 0.984-18.853 9.258-25.836 12.38-14.185 6.346-22.827 13.357-28.492 27.754-4.854 12.346-11.943 18.105-20.278 28.385-8.446 10.423-11.102 19.304-24.119 22.077-1.531 0.332 3.186-10.94 3.669-11.842 4.658-8.616 11.641-16.49 17.262-24.515 8.269-11.813 4.751-14.028-3.666-2.603-9.614 13.074-20.782 26.070-29.128 39.912-3.157 5.236-2.549 8.622-7.751 13.588-5.030 4.799-11.606 7.139-16.67 11.694-18.217 16.387-21.535 38.259-19.45 61.614 0.679 7.603 3.42 13.696 2.207 21.016-0.998 6.072-4.584 11.097-9.062 15.58-1.448 2.29-5.069 7.956-5.284 8.319-4.135 6.865-7.349 13.627-13.922 19.265-3.772 3.244-13.519 10.834-22.703 17.185 41.259 51.451 95.239 92.235 157.166 117.546 0.489-3.102 1.825-6.215 3.831-9.189 5.094-7.56 9.948-6.958 19.88-9.052-1.067-11.529-14.548-11.617-23.673-10.373-10.897 1.493-22.361 5.112-31.796-4.433 5.216-3.136 19.519-15.339 17.62-2.584 10.431 0.523 20.522 0.836 30.738-0.416 4.091-0.499 17.792-5.104 21.509-3.005 1.56 0.881 3.225 8.568 4.873 10.94-2.916-0.019-6.038 1.448-8.93 1.175 6.762 8.656 13.495 1.87 22.098-2.114-9.468-5.759-3.855-19.554 5.407-8.348 7.608 9.219-1.86 15.903-11.524 21.275 9.747 12.184 15.75 13.285 24.915-0.47 1.507 8.479 8.357 5.080 15.511 4.462v2.114c-3.146-0.069-6.513 1.746-9.63 1.414 7.29 11.627 2.637 14.288 13.055 18.079 8.298 3.019 31.966 0.21 34.887 8.009-16.567-3.22-36.58-3.987-51.529-11.529-6.439-3.244-14.113-13.5-20.551-6.831-6.595 6.831 4.717 17.825 10.5 21.177h-1.38c26.202 5.579 53.354 8.568 81.2 8.568 17.997 0 35.68-1.331 53.041-3.704-6.009-3.151-1.565-5.284-5.935-8.51-8.357-6.146-23.193-11.274-33.136-15.153 12.633 0.029 43.241-11.856 49.117 5.871-4.072 0.626-8.147 1.257-12.224 1.884 7.614 5.051 16.113 9.141 25.032 12.139 80.492-15.951 152.078-56.775 206.532-114.063-0.378 0.007-0.76 0.017-1.142 0.002zM1067.292 520.507c0.735 1.552 2.417 2.064 3.122 3.337 1.472 2.687 1.14 4.507 2.955 6.812 1.937 2.486 4.555 3.102 6.719 5.045 0.87 0.783 1.356 1.507 1.756 2.25 6.497-18.129 11.675-36.874 15.447-56.123-0.127-0.132-0.186-0.342-0.329-0.456-0.944-0.748-7.12-1.663-8.386-1.708-4.467-0.175-7.786 2.788-10.996 5.584-3.263 2.833-7.115 6.63-9.428 10.301-2.486 3.924-0.95 7.946-0.772 12.428 0.15 3.771-1.689 9.139-0.089 12.53zM1072.332 318.599c-7.565 6.576-16.485 15.384-21.867 23.894-5.744 9.081-2.202 18.408-1.78 28.81 0.353 8.744-3.919 21.183-0.201 29.056 1.698 3.592 5.608 4.78 7.218 7.725 3.42 6.234 2.661 10.447 6.86 15.81 4.507 5.754 10.555 7.168 15.57 11.68 5.26 4.736 5.114 8.47 8.441 14.537 2.432 4.433 8.152 11.826 13.569 15.692 2.942-19.249 4.467-38.959 4.467-59.025 0-34.696-4.614-68.331-13.168-100.382-7.287 1.884-13.285 7.139-19.108 12.203z" horiz-adv-x="1448" />
<glyph unicode="&#xe67a;" d="M717.836 263.141l-197.479 182.776 197.479 182.776 197.481-182.776zM717.834 637.723l-191.33 177.085h-7.948v-184.441h396.759v-367.22h-396.759v367.22h-199.278v-7.356l191.33-177.085-191.33-177.085v-7.356h199.278v-184.441h7.948l191.33 177.085 191.33-177.085h7.948v184.441h199.278v7.356l-191.33 177.085 191.33 177.085v7.356h-199.278v184.441h-7.948z" horiz-adv-x="1448" />
<glyph unicode="&#xe67b;" d="M711.828 296.37v206.848l-95.324-206.848h-62.369l-95.84 205.861v-205.861h-150.094l-26.357 62.863h-138.923l-26.876-62.863h-83.164l126.243 299.639h107.011l115.598-275.319v275.319h120.163l83.68-186.075 83.164 186.075h120.163v-299.639h-77.084zM175.359 435.793h74.031l-37.002 89.236-37.028-89.236zM831 296.37v299.639h237.298v-69.958h-160.738v-46.133h107.865v-67.95h-107.865v-50.729h160.738v-64.87h-237.298zM1196.039 451.921l-116.142 143.81h118.658l54.922-80.502 54.925 80.502h118.658l-116.142-143.81 129.974-155.553h-123.683l-63.732 90.563-63.727-90.563h-123.687l129.978 155.553z" horiz-adv-x="1448" />
<glyph unicode="&#xe67c;" d="M737.258 887.752l-602.259-923.747h1204.518l-602.259 923.747zM660.305 605.997h150.844l-27.425-383.751h-95.992l-27.427 383.751zM734.97 45.802c-38.5 0-69.709 31.21-69.709 69.709 0 38.5 31.21 69.709 69.709 69.709s69.709-31.21 69.709-69.709c-0.002-38.498-31.211-69.709-69.709-69.709z" horiz-adv-x="1448" />
<glyph unicode="&#xe67d;" d="M670.604 399.706c10.799 21.683 18.304 43.966 21.475 65.748 12.865 87.086-47.676 132.506-135.241 101.514-15.209-5.375-30.227-12.781-44.717-21.69-17.281 79.355-62.116 136.001-114.839 136.001-52.682 0-97.492-56.661-114.802-135.98-14.509 8.895-29.5 16.317-44.695 21.683-87.528 30.999-148.152-14.417-135.262-101.514 3.193-21.732 10.68-44.012 21.475-65.717-67.553-19.388-114.541-62.082-114.541-111.774 0-67.933 87.56-122.937 195.618-122.937 95.392 0 174.706 42.875 191.995 99.692 0.003 0.003 0.005 0.004 0.008 0.006 0.003 0 0.005-0.001 0.009-0.001s0.010 0.001 0.014 0.001c0.001-0.001 0.004-0.004 0.006-0.005 17.281-56.817 96.614-99.714 191.994-99.714 108.019 0 195.617 54.973 195.617 122.937 0.003 49.658-46.993 92.381-114.504 111.768z" horiz-adv-x="791" />
<glyph unicode="&#xe67e;" d="M597.71 499.799h-133.752c-12.279 0-23.316-0.040-34.477-0.040-57.874 74.758-61.356 170.342-5.519 218.011 56.004 47.831 150.344 29.165 215.102-40.199l71.066 60.693c-1.618 2.035-3.069 4.105-4.771 6.101-92.061 107.781-245.888 127.527-343.671 44.059-82.35-70.319-97.742-191.21-45.801-292.062-122.261-10.951-117.903-58.080-117.903-262.483-0.040-265.885-0.040-265.885 265.885-265.885h133.752c265.885 0 265.885 0 265.885 265.885 0.082 265.925 12.487 265.925-265.803 265.925zM561.409 208.066v-74.922c0-17.671-14.314-31.985-31.985-31.985s-31.985 14.272-31.985 31.944v76.128c-20.039 11.533-33.727 32.898-33.727 57.665 0 36.883 29.909 66.752 66.752 66.752 36.883 0 66.752-29.909 66.752-66.752 0.040-25.638-14.602-47.666-35.803-58.825z" />
<glyph unicode="&#xe67f;" d="M945.766 588.288c-13.195 21.767-30.076 45.817-71.592 57.285-41.691 11.498-88.503 15.097-149.416 12.464-60.943-2.662-105.969-42.394-105.969-42.394v-487.512h84.787v148.363c0 0-7.929 10.416 21.182 0 55.647-19.866 107.023-20.597 149.416-7.548 34.289 10.562 73.026 30.076 83.734 92.336 4.096 24.108 16.355 180.019-12.142 227.006zM873.092 382.464c-11.030-21.855-31.422-40.316-63.576-42.394-35.606-2.282-105.56 17.964-105.969 21.182v190.757c0 0 29.462 22.148 84.787 21.182 76.829-1.317 84.904-19.778 92.306-59.421 6.407-34.319 11.147-94.267-7.548-131.306zM512.761 636.826c-16.091 11.41-45.319 14.453-84.787 21.182-86.63 3.54-91.75-0.936-145.759-27.648-19.632 12.581-54.067 27.18-108.603 27.648-26.8 0.234-80.808-9.275-105.969-21.182-25.161-11.937-42.394-21.182-42.394-21.182v-360.331h84.787v296.726c0 0 0 19.866 42.394 21.182s86.104-3.979 84.787-63.576 0-254.362 0-254.362h105.969v296.755c0 0-2.662 21.182 42.394 21.182s83.471-6.612 84.787-63.576c1.317-56.964 0-254.362 0-254.362h105.969v259.95c0 0 0 75.922-63.576 121.593z" />
<glyph unicode="&#xe680;" d="M719.053-46.826c0 0 191.078-1.521 204.8 0 8.748 0.965 87.771-12.2 87.771 87.771s0 800.914 0 819.2 7.314 85.343-117.029 87.771c-103.307-1.229-676.016 0.205-760.686 0-18.578-0.293-111.557 6.7-117.029-87.771 0-121.915-1.229-792.371 0-819.2-2.428-26.829 10.679-97.514 87.771-87.771 93.564-1.229 420.571 0.293 438.857 0 1.843 92.043-0.614 384.293 0 409.6-30.486-1.229-71.183-0.556-117.029 0-0.293 31.685-0.293 74.050 0 117.029 15.857-0.907 80.75-0.614 117.029 0 2.282 27.882-0.293 128.614 0 146.286 0.293 17.232 21.943 137.275 117.029 175.543 70.422 7.168 137.713 5.296 204.8 3.306 0.907-26.214-0.029-116.795 0-149.592-21.007-0.614-73.435-0.614-87.771 0-40.58-0.146-58.514-10.357-58.514-87.771 0-39 0-87.771 0-87.771s97.514-0.907 117.029 0c-0.614-48.45-1.521-102.107 0-117.029-24.137-0.819-104.828 0-117.029 0-0.322-17.349 0-409.6 0-409.6z" />
<glyph unicode="&#xe681;" d="M765.535 535.215c-0.797 150.298-111.442 271.865-247.948 271.865-136.596 0-247.333-121.787-247.948-272.265-110.516-15.207-106.36-70.995-106.36-277.477-0.042-283.316-0.042-283.316 283.316-283.316h142.521c283.316 0 283.316 0 283.316 283.316 0.042 208.033 6.677 263.16-106.891 277.878zM550.474 229.844v-79.834c0-18.829-15.253-34.082-34.082-34.082s-34.082 15.207-34.082 34.038v81.119c-21.352 12.289-35.938 35.054-35.938 61.445 0 39.301 31.87 71.128 71.128 71.128 39.301 0 71.128-31.87 71.128-71.128 0.042-27.319-15.559-50.791-38.15-62.682zM446.633 540.7c-26.787 0-50.261-0.088-72.188-0.311 9.856 93.761 70.245 166.389 144.732 166.389s134.871-72.676 144.732-166.389c-22.635 0.221-46.904 0.311-74.709 0.311h-142.563z" />
<glyph unicode="&#xe682;" d="M835.964 404.725h-414.866v140.581c0 40.433 15.243 76.186 38.941 101.639 23.903 25.424 54.974 40.082 89.439 40.112 34.436-0.059 65.536-14.687 89.41-40.112 23.698-25.454 38.941-61.235 38.941-101.639v-25.922h116.092v25.922c0 70.042-26.507 134.29-70.246 181.248-43.593 46.958-105.706 77.093-174.197 77.034-68.52 0.059-130.604-30.106-174.197-77.034-43.769-46.958-70.246-111.206-70.276-181.248v-140.581h-41.984c-17.437 0-31.568-14.19-31.568-31.685v-371.566c0-17.496 14.131-31.685 31.568-31.685h572.943c17.437 0 31.568 14.19 31.568 31.685v371.566c0 17.496-14.131 31.685-31.568 31.685z" />
<glyph unicode="&#xe683;" d="M835.964 404.725h-414.866v140.581c0 40.433 15.243 76.186 38.941 101.639 23.903 25.424 54.974 40.082 89.439 40.112 34.436-0.059 65.536-14.687 89.41-40.112 23.698-25.454 38.941-61.235 38.941-101.639v-25.922h116.092v25.922c0 70.042-26.507 134.29-70.246 181.248-43.593 46.958-105.706 77.093-174.197 77.034-68.52 0.059-130.604-30.106-174.197-77.034-43.769-46.958-70.246-111.206-70.276-181.248v-140.581h-41.984c-17.437 0-31.568-14.19-31.568-31.685v-371.566c0-17.496 14.131-31.685 31.568-31.685h572.943c17.437 0 31.568 14.19 31.568 31.685v371.566c0 17.496-14.131 31.685-31.568 31.685zM835.964 404.725h-42.013v140.581c0 70.042-26.478 134.29-70.246 181.248-43.593 46.958-105.706 77.122-174.197 77.034-68.52 0.059-130.604-30.076-174.226-77.034-43.769-46.958-70.246-111.206-70.276-181.248v-140.581h-42.013c-17.437 0-31.568-14.19-31.568-31.685v-371.566c0-17.496 14.131-31.685 31.568-31.685h572.943c17.437 0 31.568 14.19 31.568 31.685v371.566c0.029 17.496-14.102 31.685-31.539 31.685zM421.098 545.306c0 40.433 15.243 76.186 38.941 101.639 23.874 25.424 54.974 40.082 89.439 40.112 34.436-0.059 65.536-14.687 89.41-40.112 23.698-25.454 38.941-61.235 38.941-101.639v-140.581h-256.761v140.581z" />
<glyph unicode="&#xe684;" d="M796.672 878.387l-68.813 68.813c-10.035 10.035-25.907 10.24-35.635 0.614l-420.966-437.555c-9.728-9.728-9.421-25.6 0.614-35.635l68.813-68.813c10.035-10.035 26.010-10.24 35.635-0.614l420.966 437.453c9.626 9.83 9.318 25.805-0.614 35.738zM797.082 54.374l-464.077 483.021c-9.728 9.83-25.907 9.523-36.045-0.614l-69.53-69.53c-10.138-10.138-10.342-26.214-0.614-36.045l464.282-482.918c9.83-9.728 25.907-9.523 36.045 0.614l69.53 69.53c9.933 10.035 10.24 26.112 0.41 35.942z" />
<glyph unicode="&#xe685;" d="M801.997 597.094c0.512-2.355 0.819-4.813 1.126-7.168-29.594-1.024-57.242-5.939-82.33-14.95l-40.243-14.541c-24.064 7.27-49.664 10.957-76.288 10.957-6.861 0-13.722-0.41-20.582-0.922-0.102 7.987-1.536 16.486-3.379 22.63-13.107 44.544-30.618 70.758-68.301 96.256 110.899 40.038 272.589-14.336 289.997-92.262zM2.458 404.992c-11.674 48.742 18.125 112.435 88.371 152.883 65.843 41.267 177.766-0.307 235.315-53.862-3.789 8.090-2.662 15.565-10.342 27.238-31.744 48.128-67.072 62.976-117.043 74.138 27.443 30.822 67.789 51.61 98.509 63.283 42.598 16.179 104.653 23.142 161.894 3.277 48.538-16.896 94.72-53.555 119.296-101.581-25.395-2.355-50.586-7.885-72.806-16.384-26.522-10.035-76.288-32.768-111.309-72.090l-17.613-19.763c-0.307 0-0.717 0-1.024 0 0 0 0 0 0 0-31.232 0-58.778-7.168-81.715-21.402-44.237-25.6-76.595-60.928-93.594-99.123-107.827-10.547-183.603 3.584-197.939 63.386zM650.342 238.899c-220.877-53.043-404.582-76.083-427.93 20.787-11.674 48.64 18.125 112.435 88.371 152.883 65.843 41.267 177.766-0.307 235.315-53.862-3.789 8.090-2.662 15.565-10.342 27.238-31.744 48.128-66.97 62.976-117.043 74.138 27.443 30.72 67.789 51.61 98.509 63.181 42.598 16.179 104.653 23.142 161.894 3.277 51.61-17.92 100.966-58.163 124.006-110.694 1.741 9.83-0.102 23.347-2.765 32.154-13.107 44.544-30.618 70.758-68.301 96.256 110.797 39.834 272.589-14.438 289.997-92.467 21.811-97.28-150.938-159.846-371.712-212.89z" />
</font>
</defs>
</svg>
